<?xml version="1.0" encoding="utf-8"?>
<!-- Generator: Adobe Illustrator 25.0.1, SVG Export Plug-In . SVG Version: 6.00 Build 0)  -->
<svg version="1.1" id="Layer_1" xmlns="http://www.w3.org/2000/svg" xmlns:xlink="http://www.w3.org/1999/xlink" x="0px" y="0px"
	 width="68.9px" height="24px" viewBox="0 0 68.9 24" style="enable-background:new 0 0 68.9 24;" xml:space="preserve">
<style type="text/css">
	.st0AP{fill:#A6A6A6;}
	.st1AP{fill:#FFFFFF;}
</style>
<g>
	<path class="st0AP" d="M62.7,0.8H6.2c-0.2,0-0.4,0-0.6,0c-0.2,0-0.3,0-0.5,0c-0.4,0-0.8,0-1.1,0.1C3.6,0.9,3.2,1.1,2.9,1.2
		C2.6,1.4,2.3,1.6,2,1.9C1.7,2.2,1.5,2.5,1.3,2.8C1.2,3.1,1,3.5,1,3.9C0.9,4.2,0.9,4.6,0.9,5c0,0.2,0,0.3,0,0.5v13
		c0,0.2,0,0.3,0,0.5c0,0.4,0,0.8,0.1,1.1c0.1,0.4,0.2,0.7,0.4,1.1c0.2,0.3,0.4,0.6,0.7,0.9c0.3,0.3,0.6,0.5,0.9,0.7
		c0.3,0.2,0.7,0.3,1.1,0.4c0.4,0.1,0.7,0.1,1.1,0.1c0.2,0,0.3,0,0.5,0c0.2,0,0.4,0,0.6,0h56.5c0.2,0,0.4,0,0.6,0c0.2,0,0.3,0,0.5,0
		c0.4,0,0.8,0,1.1-0.1c0.4-0.1,0.7-0.2,1.1-0.4c0.3-0.2,0.6-0.4,0.9-0.7c0.3-0.3,0.5-0.6,0.7-0.9c0.2-0.3,0.3-0.7,0.3-1.1
		c0.1-0.4,0.1-0.7,0.1-1.1c0-0.2,0-0.3,0-0.5c0-0.2,0-0.4,0-0.6V6.1c0-0.2,0-0.4,0-0.6c0-0.2,0-0.3,0-0.5c0-0.4,0-0.8-0.1-1.1
		c-0.1-0.4-0.2-0.7-0.3-1.1c-0.3-0.7-0.9-1.2-1.6-1.6c-0.3-0.2-0.7-0.3-1.1-0.4c-0.4-0.1-0.7-0.1-1.1-0.1c-0.2,0-0.3,0-0.5,0
		C63.1,0.8,62.9,0.8,62.7,0.8L62.7,0.8z"/>
	<path d="M5.6,22.7c-0.2,0-0.3,0-0.5,0c-0.4,0-0.7,0-1-0.1c-0.3-0.1-0.6-0.2-0.9-0.3c-0.3-0.1-0.6-0.3-0.8-0.6
		c-0.2-0.2-0.4-0.5-0.6-0.8c-0.1-0.3-0.3-0.6-0.3-0.9c-0.1-0.3-0.1-0.7-0.1-1.1c0-0.1,0-0.5,0-0.5v-13c0,0,0-0.4,0-0.5
		c0-0.4,0-0.7,0.1-1.1C1.5,3.6,1.6,3.3,1.8,3c0.1-0.3,0.3-0.6,0.6-0.8C2.6,2,2.8,1.8,3.1,1.7c0.3-0.1,0.6-0.3,0.9-0.3
		c0.3-0.1,0.7-0.1,1.1-0.1l0.5,0h57.7l0.5,0c0.3,0,0.7,0,1,0.1c0.3,0.1,0.6,0.2,0.9,0.3C66.4,2,66.9,2.4,67.2,3
		c0.1,0.3,0.2,0.6,0.3,0.9c0.1,0.4,0.1,0.7,0.1,1.1c0,0.2,0,0.3,0,0.5c0,0.2,0,0.4,0,0.6v11.8c0,0.2,0,0.4,0,0.6c0,0.2,0,0.3,0,0.5
		c0,0.3,0,0.7-0.1,1c-0.1,0.3-0.2,0.6-0.3,0.9c-0.1,0.3-0.3,0.6-0.6,0.8c-0.2,0.2-0.5,0.4-0.8,0.6c-0.3,0.1-0.6,0.3-0.9,0.3
		c-0.3,0.1-0.7,0.1-1,0.1c-0.2,0-0.3,0-0.5,0l-0.6,0L5.6,22.7z"/>
	<path class="st1AP" d="M14.8,12.2c0-0.5,0.1-0.9,0.4-1.3c0.2-0.4,0.6-0.8,1-1c-0.3-0.4-0.6-0.7-1-0.9c-0.4-0.2-0.8-0.3-1.3-0.3
		c-0.9-0.1-1.9,0.6-2.3,0.6c-0.5,0-1.2-0.6-2-0.5C9,8.7,8.5,8.8,8,9.1C7.6,9.4,7.2,9.7,7,10.2c-1.1,1.9-0.3,4.6,0.8,6.2
		c0.5,0.7,1.1,1.6,1.9,1.5c0.8,0,1.1-0.5,2-0.5c0.9,0,1.2,0.5,2,0.5c0.8,0,1.4-0.7,1.9-1.5c0.4-0.5,0.7-1.1,0.9-1.7
		c-0.5-0.2-0.9-0.5-1.2-1C14.9,13.2,14.8,12.7,14.8,12.2z"/>
	<path class="st1AP" d="M13.2,7.6c0.5-0.5,0.7-1.3,0.6-2c-0.7,0.1-1.3,0.4-1.8,0.9c-0.2,0.3-0.4,0.6-0.5,0.9c-0.1,0.3-0.2,0.7-0.1,1
		c0.3,0,0.7-0.1,1-0.2C12.7,8.1,13,7.9,13.2,7.6z"/>
	<path class="st1AP" d="M24.6,16H22l-0.6,1.9h-1.1l2.5-7h1.2l2.5,7h-1.1L24.6,16z M22.2,15.1h2.1l-1-3.1h0L22.2,15.1z"/>
	<path class="st1AP" d="M31.8,15.4c0,1.6-0.8,2.6-2.1,2.6c-0.3,0-0.6-0.1-0.9-0.2c-0.3-0.2-0.5-0.4-0.7-0.7h0v2.5h-1v-6.8h1v0.8h0
		c0.2-0.3,0.4-0.5,0.7-0.7c0.3-0.2,0.6-0.2,0.9-0.2C31,12.8,31.8,13.8,31.8,15.4z M30.8,15.4c0-1-0.5-1.7-1.3-1.7
		c-0.8,0-1.3,0.7-1.3,1.7c0,1,0.5,1.7,1.3,1.7C30.2,17.1,30.8,16.4,30.8,15.4z"/>
	<path class="st1AP" d="M37.4,15.4c0,1.6-0.8,2.6-2.1,2.6c-0.3,0-0.6-0.1-0.9-0.2c-0.3-0.2-0.5-0.4-0.7-0.7h0v2.5h-1v-6.8h1v0.8h0
		c0.2-0.3,0.4-0.5,0.7-0.7c0.3-0.2,0.6-0.2,0.9-0.2C36.6,12.8,37.4,13.8,37.4,15.4z M36.4,15.4c0-1-0.5-1.7-1.3-1.7
		c-0.8,0-1.3,0.7-1.3,1.7c0,1,0.5,1.7,1.3,1.7C35.8,17.1,36.4,16.4,36.4,15.4L36.4,15.4z"/>
	<path class="st1AP" d="M41.1,16c0.1,0.7,0.7,1.1,1.7,1.1c0.9,0,1.5-0.5,1.5-1.1c0-0.5-0.4-0.9-1.3-1.1l-0.9-0.2
		c-1.3-0.3-1.9-0.9-1.9-1.9c0-1.2,1-2,2.5-2c1.5,0,2.5,0.8,2.5,2h-1.1c-0.1-0.7-0.6-1.1-1.5-1.1c-0.8,0-1.4,0.4-1.4,1
		c0,0.5,0.4,0.8,1.3,1l0.8,0.2c1.4,0.3,2,0.9,2,1.9c0,1.3-1,2.1-2.7,2.1c-1.5,0-2.6-0.8-2.7-2.1L41.1,16z"/>
	<path class="st1AP" d="M47.7,11.6v1.2h1v0.8h-1v2.8c0,0.4,0.2,0.6,0.6,0.6c0.1,0,0.2,0,0.3,0v0.8c-0.2,0-0.4,0.1-0.6,0
		c-1,0-1.4-0.4-1.4-1.4v-2.9h-0.7v-0.8h0.7v-1.2H47.7z"/>
	<path class="st1AP" d="M49.2,15.4c0-1.6,0.9-2.6,2.4-2.6c1.5,0,2.4,1,2.4,2.6c0,1.6-0.9,2.6-2.4,2.6C50.1,18,49.2,17,49.2,15.4z
		 M53,15.4c0-1.1-0.5-1.7-1.3-1.7c-0.8,0-1.3,0.7-1.3,1.7c0,1.1,0.5,1.7,1.3,1.7C52.5,17.1,53,16.5,53,15.4L53,15.4z"/>
	<path class="st1AP" d="M54.9,12.8h1v0.9h0c0.1-0.3,0.2-0.5,0.4-0.7c0.2-0.2,0.5-0.3,0.8-0.2c0.1,0,0.2,0,0.4,0v1
		c-0.2,0-0.3-0.1-0.5-0.1c-0.2,0-0.3,0-0.4,0.1c-0.1,0.1-0.3,0.1-0.4,0.3c-0.1,0.1-0.2,0.2-0.2,0.4c0,0.1-0.1,0.3,0,0.4v3h-1
		L54.9,12.8L54.9,12.8z"/>
	<path class="st1AP" d="M62.3,16.4c-0.1,0.9-1,1.6-2.2,1.6c-1.5,0-2.4-1-2.4-2.6c0-1.6,0.9-2.6,2.4-2.6c1.4,0,2.3,1,2.3,2.5v0.4h-3.6
		v0.1c0,0.2,0,0.4,0.1,0.6c0.1,0.2,0.2,0.3,0.3,0.5c0.1,0.1,0.3,0.2,0.5,0.3c0.2,0.1,0.4,0.1,0.5,0.1c0.2,0,0.5,0,0.7-0.2
		c0.2-0.1,0.4-0.3,0.5-0.6L62.3,16.4z M58.8,14.9h2.5c0-0.2,0-0.3-0.1-0.5c-0.1-0.2-0.1-0.3-0.3-0.4c-0.1-0.1-0.3-0.2-0.4-0.3
		c-0.2-0.1-0.3-0.1-0.5-0.1c-0.2,0-0.3,0-0.5,0.1s-0.3,0.2-0.4,0.3c-0.1,0.1-0.2,0.3-0.3,0.4C58.8,14.5,58.8,14.7,58.8,14.9
		L58.8,14.9z"/>
	<path class="st1AP" d="M20.9,9V5.7h1.3c0.6,0,1,0.3,1,0.8c0,0.2-0.1,0.3-0.2,0.5c-0.1,0.1-0.3,0.2-0.4,0.3v0c0.2,0,0.4,0.1,0.5,0.2
		c0.1,0.2,0.2,0.3,0.2,0.6C23.4,8.7,23,9,22.3,9H20.9z M21.4,7.1H22c0.5,0,0.7-0.2,0.7-0.5c0-0.3-0.2-0.5-0.6-0.5h-0.7
		C21.4,6.1,21.4,7.1,21.4,7.1z M22.2,8.6c0.5,0,0.7-0.2,0.7-0.5c0-0.4-0.3-0.5-0.7-0.5h-0.7v1.1H22.2z"/>
	<path class="st1AP" d="M24,8.3c0-0.5,0.3-0.7,0.9-0.8l0.7,0V7.3c0-0.3-0.2-0.4-0.5-0.4c-0.3,0-0.5,0.1-0.5,0.3h-0.5
		c0.1-0.4,0.5-0.7,1-0.7c0.6,0,1,0.3,1,0.8V9h-0.5V8.7h0c-0.1,0.1-0.2,0.2-0.3,0.3C25.1,9,25,9.1,24.8,9.1c-0.1,0-0.2,0-0.3,0
		c-0.1,0-0.2-0.1-0.3-0.2c-0.1-0.1-0.1-0.2-0.2-0.3S24,8.4,24,8.3z M25.6,8.1V7.9l-0.6,0c-0.3,0-0.5,0.1-0.5,0.4
		c0,0.2,0.2,0.4,0.5,0.4c0.1,0,0.2,0,0.2,0c0.1,0,0.1-0.1,0.2-0.1c0.1-0.1,0.1-0.1,0.1-0.2C25.6,8.2,25.6,8.2,25.6,8.1z"/>
	<path class="st1AP" d="M26.8,5.7c0-0.1,0-0.1,0-0.2c0-0.1,0.1-0.1,0.1-0.1c0.1,0,0.1,0,0.2,0c0.1,0,0.1,0,0.2,0.1
		c0,0,0.1,0.1,0.1,0.2c0,0.1,0,0.1,0,0.2c0,0.1-0.1,0.1-0.1,0.1C27.3,6,27.2,6,27.1,6c0,0-0.1,0-0.1,0c0,0-0.1,0-0.1-0.1
		c0,0-0.1-0.1-0.1-0.1C26.8,5.8,26.8,5.8,26.8,5.7z M26.9,6.5h0.5V9h-0.5V6.5z"/>
	<path class="st1AP" d="M29.1,8.1L28.5,9H28l0.8-1.3L28,6.5h0.6l0.5,0.9h0l0.5-0.9h0.6l-0.8,1.2L30.2,9h-0.6L29.1,8.1L29.1,8.1z"/>
	<path class="st1AP" d="M30.7,8.3c0-0.5,0.3-0.7,0.9-0.8l0.7,0V7.3c0-0.3-0.2-0.4-0.5-0.4c-0.3,0-0.5,0.1-0.5,0.3h-0.5
		c0.1-0.4,0.5-0.7,1-0.7c0.6,0,1,0.3,1,0.8V9h-0.5V8.7h0C32.2,8.8,32.1,8.9,32,9c-0.1,0.1-0.3,0.1-0.4,0.1c-0.1,0-0.2,0-0.3,0
		c-0.1,0-0.2-0.1-0.3-0.2c-0.1-0.1-0.1-0.2-0.2-0.3C30.7,8.5,30.7,8.4,30.7,8.3z M32.3,8.1V7.9l-0.6,0c-0.3,0-0.5,0.1-0.5,0.4
		c0,0.2,0.2,0.4,0.5,0.4c0.1,0,0.2,0,0.2,0c0.1,0,0.1-0.1,0.2-0.1c0.1-0.1,0.1-0.1,0.1-0.2C32.3,8.2,32.3,8.2,32.3,8.1z"/>
	<path class="st1AP" d="M33.6,6.5h0.5v0.4h0c0.1-0.1,0.1-0.2,0.3-0.3s0.3-0.1,0.4-0.1c0.1,0,0.1,0,0.2,0V7c-0.1,0-0.2,0-0.3,0
		c-0.1,0-0.2,0-0.2,0c-0.1,0-0.1,0.1-0.2,0.1c-0.1,0.1-0.1,0.1-0.1,0.2c0,0.1,0,0.2,0,0.2V9h-0.5L33.6,6.5L33.6,6.5z"/>
	<path class="st1AP" d="M36.9,6.5h0.5v0.4h0c0.1-0.1,0.2-0.3,0.3-0.3s0.3-0.1,0.4-0.1c0.1,0,0.2,0,0.4,0.1s0.2,0.1,0.3,0.2
		C39,6.8,39,6.9,39.1,7c0,0.1,0,0.2,0,0.4V9h-0.5V7.5c0-0.4-0.2-0.6-0.5-0.6c-0.1,0-0.2,0-0.2,0c-0.1,0-0.1,0.1-0.2,0.1
		c-0.1,0.1-0.1,0.1-0.1,0.2c0,0.1,0,0.2,0,0.2V9h-0.5L36.9,6.5L36.9,6.5z"/>
	<path class="st1AP" d="M39.7,8.3c0-0.5,0.3-0.7,0.9-0.8l0.7,0V7.3c0-0.3-0.2-0.4-0.5-0.4c-0.3,0-0.5,0.1-0.5,0.3h-0.5
		c0.1-0.4,0.5-0.7,1-0.7c0.6,0,1,0.3,1,0.8V9h-0.5V8.7h0C41.2,8.8,41.1,8.9,41,9c-0.1,0.1-0.3,0.1-0.4,0.1c-0.1,0-0.2,0-0.3,0
		S40,8.9,40,8.9c-0.1-0.1-0.1-0.2-0.2-0.3C39.7,8.5,39.7,8.4,39.7,8.3z M41.3,8.1V7.9l-0.6,0c-0.3,0-0.5,0.1-0.5,0.4
		c0,0.2,0.2,0.4,0.5,0.4c0.1,0,0.2,0,0.2,0c0.1,0,0.1-0.1,0.2-0.1c0.1-0.1,0.1-0.1,0.1-0.2C41.3,8.2,41.3,8.2,41.3,8.1L41.3,8.1z"/>
</g>
</svg>
