<?xml version="1.0" encoding="utf-8"?>
<!-- Generator: Adobe Illustrator 25.0.1, SVG Export Plug-In . SVG Version: 6.00 Build 0)  -->
<svg version="1.1" id="Layer_1" xmlns="http://www.w3.org/2000/svg" xmlns:xlink="http://www.w3.org/1999/xlink" x="0px" y="0px"
	 width="24px" height="24px" viewBox="0 0 24 24" enable-background="new 0 0 24 24" xml:space="preserve">
<g>
	<path fill-rule="evenodd" clip-rule="evenodd" fill="#1E1E1E" d="M17.6,3.2v7.7c0,1.2-1,2.2-2.2,2.2h-10L1,17.4V3.2C1,2,2,1,3.2,1
		h12.1C16.5,1,17.6,2,17.6,3.2z M19.7,5.4h1.1c1.2,0,2.2,1,2.2,2.2V23l-4.4-4.4h-11c-1.2,0-2.2-1-2.2-2.2v-1.1h13.3
		c0.6,0,1.1-0.5,1.1-1.1L19.7,5.4L19.7,5.4z"/>
</g>
</svg>
