<?xml version="1.0" encoding="utf-8"?>
<!-- Generator: Adobe Illustrator 25.0.1, SVG Export Plug-In . SVG Version: 6.00 Build 0)  -->
<svg version="1.1" id="Layer_1" xmlns="http://www.w3.org/2000/svg" xmlns:xlink="http://www.w3.org/1999/xlink" x="0px" y="0px"
	 width="24px" height="24px" viewBox="0 0 24 24" enable-background="new 0 0 24 24" xml:space="preserve">
<path d="M22.5,1.5c-0.3-0.3-0.7-0.4-1.2-0.4s-0.8,0.1-1.1,0.4L12,9.7L3.8,1.5C3.6,1.2,3.1,1.1,2.7,1.1S1.8,1.2,1.5,1.5
	c-0.7,0.7-0.7,1.7,0,2.3l8.2,8.2l-8.2,8.2c-0.7,0.7-0.7,1.7,0,2.3c0.7,0.7,1.7,0.7,2.3,0l8.2-8.2l8.2,8.2c0.7,0.7,1.7,0.7,2.3,0
	c0.7-0.7,0.7-1.7,0-2.3l-8.2-8.2l8.2-8.2C23,3.2,23,2,22.5,1.5z"/>
</svg>
