<?xml version="1.0" encoding="utf-8"?>
<!-- Generator: Adobe Illustrator 25.0.1, SVG Export Plug-In . SVG Version: 6.00 Build 0)  -->
<svg version="1.1" id="Layer_1" xmlns="http://www.w3.org/2000/svg" xmlns:xlink="http://www.w3.org/1999/xlink" x="0px" y="0px"
	 width="24px" height="24px" viewBox="0 0 24 24" enable-background="new 0 0 24 24" xml:space="preserve">
<g>
	<path fill-rule="evenodd" clip-rule="evenodd" fill="#D8D8D8" d="M12,22.6c5.9,0,10.6-4.7,10.6-10.6S17.9,1.4,12,1.4
		S1.4,6.1,1.4,12S6.1,22.6,12,22.6z"/>
	<defs>
		<filter id="Adobe_OpacityMaskFilter" filterUnits="userSpaceOnUse" x="-2.9" y="1.4" width="29.7" height="21.3">
			<feColorMatrix  type="matrix" values="1 0 0 0 0  0 1 0 0 0  0 0 1 0 0  0 0 0 1 0"/>
		</filter>
	</defs>
	<mask maskUnits="userSpaceOnUse" x="-2.9" y="1.4" width="29.7" height="21.3" id="mask0_2_">
		<path fill-rule="evenodd" clip-rule="evenodd" fill="#FFFFFF" filter="url(#Adobe_OpacityMaskFilter)" d="M12,22.6
			c5.9,0,10.6-4.7,10.6-10.6S17.9,1.4,12,1.4S1.4,6.1,1.4,12S6.1,22.6,12,22.6z"/>
	</mask>
	<g mask="url(#mask0_2_)">
		<path fill="#FFFFFF" stroke="#F5F5F5" stroke-width="0.3532" d="M-1.4,1.6h26.8c0.7,0,1.3,0.6,1.3,1.3v18.4c0,0.7-0.6,1.3-1.3,1.3
			H-1.4c-0.7,0-1.3-0.6-1.3-1.3V2.8C-2.7,2.1-2.1,1.6-1.4,1.6z"/>
		<defs>
			<filter id="Adobe_OpacityMaskFilter_1_" filterUnits="userSpaceOnUse" x="-2.8" y="1.4" width="29.7" height="21.2">
				<feColorMatrix  type="matrix" values="1 0 0 0 0  0 1 0 0 0  0 0 1 0 0  0 0 0 1 0"/>
			</filter>
		</defs>
		<mask maskUnits="userSpaceOnUse" x="-2.8" y="1.4" width="29.7" height="21.2" id="mask1_2_">
			<path fill="#FFFFFF" filter="url(#Adobe_OpacityMaskFilter_1_)" stroke="#FFFFFF" stroke-width="0.3532" d="M-1.4,1.6h26.8
				c0.7,0,1.3,0.6,1.3,1.3v18.4c0,0.7-0.6,1.3-1.3,1.3H-1.4c-0.7,0-1.3-0.6-1.3-1.3V2.8C-2.7,2.1-2.1,1.6-1.4,1.6z"/>
		</mask>
		<g mask="url(#mask1_2_)">
			<path fill-rule="evenodd" clip-rule="evenodd" fill="#88BBE8" d="M-2.8,8.5h29.7V1.4H-2.8V8.5z"/>
			<path fill-rule="evenodd" clip-rule="evenodd" fill="#88BBE8" d="M-2.8,22.6h29.7v-7.1H-2.8V22.6z"/>
			<path fill="#F4B32E" stroke="#DB7A2C" stroke-width="0.4709" d="M12,14.3c1.3,0,2.3-1.1,2.3-2.3S13.3,9.7,12,9.7S9.7,10.7,9.7,12
				S10.7,14.3,12,14.3z"/>
		</g>
	</g>
	<path fill="none" stroke="#CCCCCC" stroke-width="0.7064" d="M12,22.6c5.9,0,10.6-4.7,10.6-10.6S17.9,1.4,12,1.4S1.4,6.1,1.4,12
		S6.1,22.6,12,22.6z"/>
</g>
</svg>
