<?xml version="1.0" encoding="utf-8"?>
<!-- Generator: Adobe Illustrator 25.0.1, SVG Export Plug-In . SVG Version: 6.00 Build 0)  -->
<svg version="1.1" id="Layer_1" xmlns="http://www.w3.org/2000/svg" xmlns:xlink="http://www.w3.org/1999/xlink" x="0px" y="0px"
	 width="24px" height="24px" viewBox="0 0 24 24" enable-background="new 0 0 24 24" xml:space="preserve">
<g>
	<path fill-rule="evenodd" clip-rule="evenodd" fill="#D8D8D8" d="M12,22.7c5.9,0,10.7-4.8,10.7-10.7S17.9,1.3,12,1.3
		S1.3,6.1,1.3,12S6.1,22.7,12,22.7z"/>
	<defs>
		<filter id="Adobe_OpacityMaskFilter" filterUnits="userSpaceOnUse" x="-2.9" y="1.3" width="29.8" height="21.3">
			<feColorMatrix  type="matrix" values="1 0 0 0 0  0 1 0 0 0  0 0 1 0 0  0 0 0 1 0"/>
		</filter>
	</defs>
	<mask maskUnits="userSpaceOnUse" x="-2.9" y="1.3" width="29.8" height="21.3" id="mask0_2_">
		<path fill-rule="evenodd" clip-rule="evenodd" fill="#FFFFFF" filter="url(#Adobe_OpacityMaskFilter)" d="M12,22.7
			c5.9,0,10.7-4.8,10.7-10.7S17.9,1.3,12,1.3S1.3,6.1,1.3,12S6.1,22.7,12,22.7z"/>
	</mask>
	<g mask="url(#mask0_2_)">
		<path fill="#FFFFFF" d="M-1.5,1.3h27c0.8,0,1.4,0.6,1.4,1.4v18.5c0,0.8-0.6,1.4-1.4,1.4h-27c-0.8,0-1.4-0.6-1.4-1.4V2.8
			C-2.9,2-2.3,1.3-1.5,1.3z"/>
		<defs>
			<filter id="Adobe_OpacityMaskFilter_1_" filterUnits="userSpaceOnUse" x="-2.9" y="1.3" width="29.8" height="21.3">
				<feColorMatrix  type="matrix" values="1 0 0 0 0  0 1 0 0 0  0 0 1 0 0  0 0 0 1 0"/>
			</filter>
		</defs>
		<mask maskUnits="userSpaceOnUse" x="-2.9" y="1.3" width="29.8" height="21.3" id="mask1_2_">
			<path fill="#FFFFFF" filter="url(#Adobe_OpacityMaskFilter_1_)" d="M-1.5,1.3h27c0.8,0,1.4,0.6,1.4,1.4v18.5
				c0,0.8-0.6,1.4-1.4,1.4h-27c-0.8,0-1.4-0.6-1.4-1.4V2.8C-2.9,2-2.3,1.3-1.5,1.3z"/>
		</mask>
		<g mask="url(#mask1_2_)">
			<rect x="-2.9" y="1.3" fill="#05AB41" width="29.8" height="21.3"/>
			<path fill-rule="evenodd" clip-rule="evenodd" fill="#FDD216" d="M0.6,12.4c-0.3-0.2-0.3-0.6,0-0.8l11.2-7.3
				c0.1-0.1,0.4-0.1,0.5,0l11.2,7.2c0.3,0.2,0.3,0.6,0,0.8l-11.2,7.3c-0.1,0.1-0.4,0.1-0.5,0L0.6,12.4z"/>
			<path fill-rule="evenodd" clip-rule="evenodd" fill="#053087" d="M12,17c2.8,0,5-2.2,5-5s-2.2-5-5-5s-5,2.2-5,5S9.2,17,12,17z"/>
			<defs>
				<filter id="Adobe_OpacityMaskFilter_2_" filterUnits="userSpaceOnUse" x="5.8" y="10" width="12.4" height="4.7">
					<feColorMatrix  type="matrix" values="1 0 0 0 0  0 1 0 0 0  0 0 1 0 0  0 0 0 1 0"/>
				</filter>
			</defs>
			<mask maskUnits="userSpaceOnUse" x="5.8" y="10" width="12.4" height="4.7" id="mask2_2_">
				<path fill-rule="evenodd" clip-rule="evenodd" fill="#FFFFFF" filter="url(#Adobe_OpacityMaskFilter_2_)" d="M12,17
					c2.8,0,5-2.2,5-5s-2.2-5-5-5s-5,2.2-5,5S9.2,17,12,17z"/>
			</mask>
			<g mask="url(#mask2_2_)">
				<path fill="none" stroke="#FFFFFF" stroke-width="0.9474" stroke-linecap="square" d="M6.5,10.7c0.8-0.6,3.3,0,5.7,0.6
					s4.8,1.9,5.4,2.7"/>
			</g>
		</g>
	</g>
	<path fill="none" stroke="#CCCCCC" stroke-width="0.7106" d="M12,22.7c5.9,0,10.7-4.8,10.7-10.7S17.9,1.3,12,1.3S1.3,6.1,1.3,12
		S6.1,22.7,12,22.7z"/>
</g>
</svg>
