<?xml version="1.0" encoding="utf-8"?>
<!-- Generator: Adobe Illustrator 25.0.1, SVG Export Plug-In . SVG Version: 6.00 Build 0)  -->
<svg version="1.1" id="Layer_1" xmlns="http://www.w3.org/2000/svg" xmlns:xlink="http://www.w3.org/1999/xlink" x="0px" y="0px"
	 width="76.5px" height="24px" viewBox="0 0 76.5 24" style="enable-background:new 0 0 76.5 24;" xml:space="preserve">
<style type="text/css">
	.st0GP{fill:#A6A6A6;}
	.st1GP{fill:#FFFFFF;}
	.st2GP{fill:url(#SVGID_1_);}
	.st3GP{fill:url(#SVGID_2_);}
	.st4GP{fill:url(#SVGID_3_);}
	.st5GP{fill:url(#SVGID_4_);}
	.st6GP{opacity:0.2;}
	.st7GP{opacity:0.2;enable-background:new    ;}
	.st8GP{opacity:0.12;}
	.st9GP{opacity:0.12;enable-background:new    ;}
	.stX{opacity:0.25;}
	.stXI{opacity:0.25;fill:#FFFFFF;enable-background:new    ;}
	.stXII{fill:none;stroke:#FFFFFF;stroke-width:0.1476;stroke-miterlimit:10;}
	.stXIII{fill:#FFFFFF;stroke:#FFFFFF;stroke-width:0.1476;stroke-miterlimit:10;}
</style>
<g>
	<path d="M73,23.1H3.8c-1.5,0-2.8-1.3-2.8-2.8V3.7c0-1.5,1.3-2.8,2.8-2.8H73c1.5,0,2.8,1.3,2.8,2.8v16.6
		C75.8,21.8,74.6,23.1,73,23.1z"/>
	<path class="st0GP" d="M73,0.9H3.8c-1.5,0-2.8,1.3-2.8,2.8v16.6c0,1.5,1.3,2.8,2.8,2.8H73c1.5,0,2.8-1.3,2.8-2.8V3.7
		C75.8,2.2,74.6,0.9,73,0.9z M73,1.3c1.3,0,2.3,1.1,2.3,2.3v16.6c0,1.3-1.1,2.3-2.3,2.3H3.8c-1.3,0-2.3-1.1-2.3-2.3V3.7
		c0.1-1.3,1.1-2.3,2.3-2.3H73z"/>
	<path class="st1GP" d="M60.3,17.5h1.1v-6.9h-1.1V17.5z M69.6,13.1l-1.2,3l0,0l-1.2-3H66l1.8,4.2l-1.1,2.3h1.1l2.8-6.5
		C70.7,13.1,69.6,13.1,69.6,13.1z M63.7,16.8c-0.4,0-0.8-0.1-0.8-0.6c0-0.6,0.6-0.7,1.1-0.7c0.4,0,0.6,0.1,0.9,0.2
		C64.9,16.3,64.3,16.8,63.7,16.8z M63.9,12.9c-0.8,0-1.5,0.4-1.8,1.1l0.9,0.4c0.2-0.4,0.6-0.5,0.9-0.5c0.6,0,1.1,0.4,1.1,0.9v0.1
		c-0.2-0.1-0.6-0.3-1.1-0.3c-1,0-2,0.6-2,1.6c0,0.9,0.8,1.5,1.7,1.5c0.7,0,1.1-0.3,1.3-0.7l0,0v0.6h1v-2.6
		C65.9,13.6,65,12.9,63.9,12.9z M57.5,13.9H56v-2.3h1.5c0.8,0,1.2,0.6,1.2,1.2C58.7,13.3,58.3,13.9,57.5,13.9z M57.5,10.7H55v6.9
		h1.1v-2.6h1.4c1.1,0,2.3-0.9,2.3-2.1C59.7,11.4,58.6,10.7,57.5,10.7z M44,16.8c-0.7,0-1.3-0.6-1.3-1.4s0.6-1.4,1.3-1.4
		s1.3,0.6,1.3,1.4C45.2,16.1,44.7,16.8,44,16.8z M45.1,13.5L45.1,13.5c-0.3-0.3-0.7-0.5-1.3-0.5c-1.2,0-2.3,1.1-2.3,2.3
		c0,1.3,1.1,2.3,2.3,2.3c0.6,0,1-0.3,1.2-0.6h0.1v0.4c0,0.9-0.5,1.3-1.3,1.3c-0.6,0-1-0.4-1.2-0.9l-0.9,0.4c0.3,0.6,0.9,1.4,2.1,1.4
		c1.2,0,2.3-0.7,2.3-2.5v-4.2h-1V13.5z M46.8,17.5h1.1v-6.9h-1.1V17.5z M49.4,15.3c0-0.9,0.7-1.3,1.2-1.3c0.4,0,0.8,0.2,0.9,0.5
		L49.4,15.3z M52.6,14.5c-0.2-0.5-0.8-1.5-2-1.5c-1.2,0-2.2,0.9-2.2,2.3c0,1.3,1,2.3,2.3,2.3c1.1,0,1.7-0.6,2-1.1L51.9,16
		c-0.3,0.4-0.6,0.6-1.1,0.6c-0.5,0-0.9-0.2-1.1-0.7l3.1-1.3L52.6,14.5z M27.5,13.7v1h2.4c-0.1,0.6-0.3,1-0.6,1.3
		c-0.4,0.4-0.9,0.7-1.8,0.7c-1.5,0-2.6-1.2-2.6-2.6c0-1.5,1.1-2.6,2.6-2.6c0.8,0,1.3,0.3,1.8,0.7l0.7-0.7c-0.6-0.6-1.4-1-2.5-1
		c-2,0-3.7,1.6-3.7,3.6s1.7,3.6,3.7,3.6c1.1,0,1.9-0.4,2.6-1c0.6-0.6,0.9-1.6,0.9-2.3c0-0.2,0-0.4-0.1-0.6
		C30.9,13.7,27.5,13.7,27.5,13.7z M33.7,16.8c-0.7,0-1.3-0.6-1.3-1.4s0.6-1.4,1.3-1.4s1.3,0.6,1.3,1.4C35,16.2,34.4,16.8,33.7,16.8z
		 M33.7,13c-1.3,0-2.3,1-2.3,2.3s1.1,2.3,2.3,2.3s2.3-1,2.3-2.3S35,13,33.7,13z M38.8,16.8c-0.7,0-1.3-0.6-1.3-1.4s0.6-1.4,1.3-1.4
		c0.7,0,1.3,0.6,1.3,1.4C40.1,16.2,39.5,16.8,38.8,16.8z M38.8,13c-1.3,0-2.3,1-2.3,2.3s1.1,2.3,2.3,2.3s2.3-1,2.3-2.3
		C41.2,14,40.1,13,38.8,13z"/>
	
		<linearGradient id="SVGID_1_" gradientUnits="userSpaceOnUse" x1="13.1996" y1="-185.7752" x2="3.9139" y2="-195.0609" gradientTransform="matrix(1 0 0 -1 0 -180)">
		<stop  offset="0" style="stop-color:#00A0FF"/>
		<stop  offset="6.599999e-03" style="stop-color:#00A1FF"/>
		<stop  offset="0.2601" style="stop-color:#00BEFF"/>
		<stop  offset="0.5122" style="stop-color:#00D2FF"/>
		<stop  offset="0.7604" style="stop-color:#00DFFF"/>
		<stop  offset="1" style="stop-color:#00E3FF"/>
	</linearGradient>
	<path class="st2GP" d="M6.9,5.1C6.8,5.3,6.6,5.5,6.6,5.9v12.2c0,0.4,0.1,0.6,0.3,0.8L7,19l6.9-6.9V12v-0.1L6.9,5.1L6.9,5.1z"/>
	
		<linearGradient id="SVGID_2_" gradientUnits="userSpaceOnUse" x1="19.8363" y1="-192" x2="6.4483" y2="-192" gradientTransform="matrix(1 0 0 -1 0 -180)">
		<stop  offset="0" style="stop-color:#FFE000"/>
		<stop  offset="0.4087" style="stop-color:#FFBD00"/>
		<stop  offset="0.7754" style="stop-color:#FFA500"/>
		<stop  offset="1" style="stop-color:#FF9C00"/>
	</linearGradient>
	<path class="st3GP" d="M13.8,11.9L13.8,11.9v0.1l2.3,2.3h0.1l2.7-1.6c0.8-0.4,0.8-1.1,0-1.6l-2.7-1.6h-0.1L13.8,11.9z"/>
	
		<linearGradient id="SVGID_3_" gradientUnits="userSpaceOnUse" x1="14.8421" y1="-193.26" x2="2.2501" y2="-205.852" gradientTransform="matrix(1 0 0 -1 0 -180)">
		<stop  offset="0" style="stop-color:#FF3A44"/>
		<stop  offset="1" style="stop-color:#C31162"/>
	</linearGradient>
	<path class="st4GP" d="M6.9,18.9c0.3,0.3,0.7,0.3,1.1,0l8.1-4.6L13.8,12L6.9,18.9z"/>
	
		<linearGradient id="SVGID_4_" gradientUnits="userSpaceOnUse" x1="5.1615" y1="-181.0238" x2="10.7843" y2="-186.6467" gradientTransform="matrix(1 0 0 -1 0 -180)">
		<stop  offset="0" style="stop-color:#32A071"/>
		<stop  offset="6.850000e-02" style="stop-color:#2DA771"/>
		<stop  offset="0.4762" style="stop-color:#15CF74"/>
		<stop  offset="0.8009" style="stop-color:#06E775"/>
		<stop  offset="1" style="stop-color:#00F076"/>
	</linearGradient>
	<path class="st5GP" d="M6.9,5.1l6.9,6.9l2.3-2.3L8,5C7.8,5,7.6,4.9,7.4,4.9C7.2,4.9,7,5,6.9,5.1z"/>
	<g class="st6GP">
		<g class="st6GP">
			<path class="st7GP" d="M16.1,14.3l-8,4.5c-0.4,0.3-0.9,0.2-1.1,0l-0.1,0.1L6.9,19l0,0c0.3,0.2,0.6,0.3,1.1,0L16.1,14.3L16.1,14.3z"
				/>
		</g>
	</g>
	<g class="st8GP">
		<g class="st8GP">
			<path class="st9GP" d="M6.9,18.8c-0.1-0.1-0.3-0.4-0.3-0.8v0.1C6.6,18.5,6.7,18.7,6.9,18.8L6.9,18.8L6.9,18.8z"/>
		</g>
	</g>
	<g class="st8GP">
		<g class="st8GP">
			<path class="st9GP" d="M18.8,12.7l-2.8,1.6l0.1,0.1L18.8,12.7c0.4-0.1,0.6-0.4,0.6-0.7C19.4,12.3,19.2,12.5,18.8,12.7z"/>
		</g>
	</g>
	<g class="stX">
		<g class="stX">
			<path class="stXI" d="M8,5.2l10.8,6.1c0.4,0.2,0.6,0.4,0.6,0.7c0-0.3-0.2-0.6-0.6-0.8L8,5C7.3,4.6,6.6,5,6.6,5.8v0.1
				C6.6,5.1,7.3,4.7,8,5.2z"/>
		</g>
	</g>
	<path class="st1GP" d="M24.4,7.7H25c0.4,0,0.7-0.1,0.9-0.4c0.2-0.2,0.3-0.5,0.3-0.9c0-0.4-0.1-0.7-0.4-0.9c-0.2-0.2-0.5-0.4-0.9-0.4
		h-0.6L24.4,7.7L24.4,7.7z M24,8.1V4.8h1c0.5,0,0.9,0.1,1.2,0.4c0.3,0.3,0.4,0.7,0.4,1.2s-0.1,0.9-0.4,1.2C25.9,8,25.5,8.1,25,8.1
		H24z"/>
	<path class="stXII" d="M24.4,7.7H25c0.4,0,0.7-0.1,0.9-0.4c0.2-0.2,0.3-0.5,0.3-0.9c0-0.4-0.1-0.7-0.4-0.9c-0.2-0.2-0.5-0.4-0.9-0.4
		h-0.6L24.4,7.7L24.4,7.7z M24,8.1V4.8h1c0.5,0,0.9,0.1,1.2,0.4c0.3,0.3,0.4,0.7,0.4,1.2s-0.1,0.9-0.4,1.2C25.9,8,25.5,8.1,25,8.1
		H24z"/>
	<path class="stXIII" d="M27.3,4.8h0.4v3.3h-0.4V4.8z"/>
	<path class="st1GP" d="M29.4,8.2c-0.2,0-0.5-0.1-0.7-0.2c-0.2-0.1-0.4-0.4-0.4-0.6l0.4-0.1c0.1,0.2,0.1,0.4,0.3,0.4
		c0.1,0.1,0.3,0.2,0.5,0.2c0.2,0,0.4-0.1,0.5-0.1c0.1-0.1,0.2-0.2,0.2-0.4c0-0.2-0.1-0.4-0.2-0.4c-0.1-0.1-0.4-0.2-0.6-0.3
		c-0.3-0.1-0.5-0.2-0.6-0.4c-0.2-0.2-0.3-0.4-0.3-0.6c0-0.2,0.1-0.4,0.3-0.6c0.2-0.1,0.4-0.3,0.7-0.3c0.3,0,0.5,0.1,0.7,0.2
		c0.1,0.1,0.3,0.3,0.4,0.4l-0.4,0.1c0-0.1-0.1-0.2-0.2-0.3S29.6,5,29.4,5c-0.1,0-0.3,0.1-0.4,0.1c-0.1,0.1-0.1,0.2-0.1,0.4
		c0,0.1,0.1,0.2,0.1,0.3C29.1,5.9,29.3,6,29.5,6c0.1,0.1,0.3,0.1,0.4,0.1c0.1,0.1,0.2,0.1,0.4,0.2s0.2,0.2,0.3,0.3
		c-0.1,0.3-0.1,0.4-0.1,0.6s0,0.3-0.1,0.4c-0.1,0.1-0.1,0.2-0.3,0.3C30,8,29.9,8.1,29.8,8.1C29.7,8.2,29.6,8.2,29.4,8.2z"/>
	<path class="stXII" d="M29.4,8.2c-0.2,0-0.5-0.1-0.7-0.2c-0.2-0.1-0.4-0.4-0.4-0.6l0.4-0.1c0.1,0.2,0.1,0.4,0.3,0.4
		c0.1,0.1,0.3,0.2,0.5,0.2c0.2,0,0.4-0.1,0.5-0.1c0.1-0.1,0.2-0.2,0.2-0.4c0-0.2-0.1-0.4-0.2-0.4c-0.1-0.1-0.4-0.2-0.6-0.3
		c-0.3-0.1-0.5-0.2-0.6-0.4c-0.2-0.2-0.3-0.4-0.3-0.6c0-0.2,0.1-0.4,0.3-0.6c0.2-0.1,0.4-0.3,0.7-0.3c0.3,0,0.5,0.1,0.7,0.2
		c0.1,0.1,0.3,0.3,0.4,0.4l-0.4,0.1c0-0.1-0.1-0.2-0.2-0.3S29.6,5,29.4,5c-0.1,0-0.3,0.1-0.4,0.1c-0.1,0.1-0.1,0.2-0.1,0.4
		c0,0.1,0.1,0.2,0.1,0.3C29.1,5.9,29.3,6,29.5,6c0.1,0.1,0.3,0.1,0.4,0.1c0.1,0.1,0.2,0.1,0.4,0.2s0.2,0.2,0.3,0.3
		c-0.1,0.3-0.1,0.4-0.1,0.6s0,0.3-0.1,0.4c-0.1,0.1-0.1,0.2-0.3,0.3C30,8,29.9,8.1,29.8,8.1C29.7,8.2,29.6,8.2,29.4,8.2z"/>
	<path class="st1GP" d="M31.6,6.4h0.7c0.2,0,0.4-0.1,0.4-0.2c0.1-0.1,0.1-0.3,0.1-0.4s-0.1-0.3-0.1-0.4c-0.1-0.1-0.3-0.2-0.4-0.2h-0.7
		V6.4z M31.6,8.1h-0.4V4.8h1.1c0.3,0,0.5,0.1,0.7,0.3c0.2,0.2,0.3,0.4,0.3,0.7c0,0.3-0.1,0.5-0.3,0.7c-0.2,0.2-0.4,0.3-0.7,0.3h-0.7
		V8.1z"/>
	<path class="stXII" d="M31.6,6.4h0.7c0.2,0,0.4-0.1,0.4-0.2c0.1-0.1,0.1-0.3,0.1-0.4s-0.1-0.3-0.1-0.4c-0.1-0.1-0.3-0.2-0.4-0.2
		h-0.7V6.4z M31.6,8.1h-0.4V4.8h1.1c0.3,0,0.5,0.1,0.7,0.3c0.2,0.2,0.3,0.4,0.3,0.7c0,0.3-0.1,0.5-0.3,0.7c-0.2,0.2-0.4,0.3-0.7,0.3
		h-0.7V8.1z"/>
	<path class="st1GP" d="M34.5,7.5c0.2,0.3,0.6,0.4,0.9,0.4s0.6-0.1,0.9-0.4c0.2-0.3,0.4-0.6,0.4-0.9c0-0.4-0.1-0.7-0.4-0.9
		c-0.2-0.3-0.6-0.4-0.9-0.4s-0.6,0.1-0.9,0.4C34.2,5.7,34,6.1,34,6.5C34,6.8,34.2,7.2,34.5,7.5z M36.5,7.7c-0.4,0.4-0.7,0.5-1.2,0.5
		c-0.5,0-0.9-0.1-1.2-0.5c-0.4-0.4-0.5-0.7-0.5-1.2s0.1-0.9,0.5-1.2c0.4-0.4,0.7-0.5,1.2-0.5c0.5,0,0.9,0.1,1.2,0.5
		C36.9,5.6,37,6,37,6.5S36.9,7.4,36.5,7.7z"/>
	<path class="stXII" d="M34.5,7.5c0.2,0.3,0.6,0.4,0.9,0.4s0.6-0.1,0.9-0.4c0.2-0.3,0.4-0.6,0.4-0.9c0-0.4-0.1-0.7-0.4-0.9
		c-0.2-0.3-0.6-0.4-0.9-0.4s-0.6,0.1-0.9,0.4C34.2,5.7,34,6.1,34,6.5C34,6.8,34.2,7.2,34.5,7.5z M36.5,7.7c-0.4,0.4-0.7,0.5-1.2,0.5
		c-0.5,0-0.9-0.1-1.2-0.5c-0.4-0.4-0.5-0.7-0.5-1.2s0.1-0.9,0.5-1.2c0.4-0.4,0.7-0.5,1.2-0.5c0.5,0,0.9,0.1,1.2,0.5
		C36.9,5.6,37,6,37,6.5S36.9,7.4,36.5,7.7z"/>
	<path class="st1GP" d="M37.7,8.1V4.8h0.5l1.6,2.6l0,0V6.7V4.8h0.4v3.3h-0.5L38,5.5l0,0v0.6v2.1L37.7,8.1L37.7,8.1z"/>
	<path class="stXII" d="M37.7,8.1V4.8h0.5l1.6,2.6l0,0V6.7V4.8h0.4v3.3h-0.5L38,5.5l0,0v0.6v2.1L37.7,8.1L37.7,8.1z"/>
	<path class="st1GP" d="M41.4,4.5H41L41.2,4h0.5L41.4,4.5z M40.9,4.8h0.4v3.3h-0.4V4.8z"/>
	<path class="stXII" d="M41.4,4.5H41L41.2,4h0.5L41.4,4.5z M40.9,4.8h0.4v3.3h-0.4V4.8z"/>
	<path class="st1GP" d="M43,8.1l-1.1-3.3h0.5l0.9,2.7l0,0l0.9-2.7h0.5l-1.2,3.3H43z"/>
	<path class="stXII" d="M43,8.1l-1.1-3.3h0.5l0.9,2.7l0,0l0.9-2.7h0.5l-1.2,3.3H43z"/>
	<path class="st1GP" d="M47,5.2h-1.5v1.1h1.3v0.4h-1.3v1.1H47v0.4h-1.9V4.8H47V5.2z"/>
	<path class="stXII" d="M47,5.2h-1.5v1.1h1.3v0.4h-1.3v1.1H47v0.4h-1.9V4.8H47V5.2z"/>
	<path class="st1GP" d="M47.7,8.1V4.8h0.4v2.9h1.4v0.4L47.7,8.1L47.7,8.1z"/>
	<path class="stXII" d="M47.7,8.1V4.8h0.4v2.9h1.4v0.4L47.7,8.1L47.7,8.1z"/>
	<path class="st1GP" d="M51.2,8.1V4.8h0.5l1.6,2.6l0,0V6.7V4.8h0.4v3.3h-0.4l-1.7-2.7l0,0v0.6v2.1L51.2,8.1L51.2,8.1z"/>
	<path class="stXII" d="M51.2,8.1V4.8h0.5l1.6,2.6l0,0V6.7V4.8h0.4v3.3h-0.4l-1.7-2.7l0,0v0.6v2.1L51.2,8.1L51.2,8.1z"/>
	<path class="st1GP" d="M55.1,7.5c0.2,0.3,0.6,0.4,0.9,0.4c0.4,0,0.6-0.1,0.9-0.4c0.3-0.2,0.4-0.6,0.4-0.9c0-0.4-0.1-0.7-0.4-0.9
		c-0.2-0.3-0.6-0.4-0.9-0.4c-0.4,0-0.6,0.1-0.9,0.4c-0.2,0.2-0.4,0.6-0.4,0.9C54.8,6.9,54.9,7.2,55.1,7.5z M57.3,7.7
		c-0.4,0.4-0.7,0.5-1.2,0.5c-0.5,0-0.9-0.1-1.2-0.5c-0.4-0.4-0.5-0.7-0.5-1.2s0.1-0.9,0.5-1.2c0.4-0.4,0.7-0.5,1.2-0.5
		c0.5,0,0.9,0.1,1.2,0.5c0.4,0.4,0.5,0.8,0.5,1.2C57.8,7,57.5,7.4,57.3,7.7z"/>
	<path class="stXII" d="M55.1,7.5c0.2,0.3,0.6,0.4,0.9,0.4c0.4,0,0.6-0.1,0.9-0.4c0.3-0.2,0.4-0.6,0.4-0.9c0-0.4-0.1-0.7-0.4-0.9
		c-0.2-0.3-0.6-0.4-0.9-0.4c-0.4,0-0.6,0.1-0.9,0.4c-0.2,0.2-0.4,0.6-0.4,0.9C54.8,6.9,54.9,7.2,55.1,7.5z M57.3,7.7
		c-0.4,0.4-0.7,0.5-1.2,0.5c-0.5,0-0.9-0.1-1.2-0.5c-0.4-0.4-0.5-0.7-0.5-1.2s0.1-0.9,0.5-1.2c0.4-0.4,0.7-0.5,1.2-0.5
		c0.5,0,0.9,0.1,1.2,0.5c0.4,0.4,0.5,0.8,0.5,1.2C57.8,7,57.5,7.4,57.3,7.7z"/>
</g>
</svg>
