<?xml version="1.0" encoding="utf-8"?>
<!-- Generator: Adobe Illustrator 25.0.1, SVG Export Plug-In . SVG Version: 6.00 Build 0)  -->
<svg version="1.1" id="Layer_1" xmlns="http://www.w3.org/2000/svg" xmlns:xlink="http://www.w3.org/1999/xlink" x="0px" y="0px"
	 width="24px" height="24px" viewBox="0 0 24 24" enable-background="new 0 0 24 24" xml:space="preserve">
<g>
	<path fill-rule="evenodd" clip-rule="evenodd" fill="#333333" d="M2.2,7.1C1.6,7.1,1,6.6,1,5.9s0.5-1.2,1.2-1.2h19.5
		c0.7,0,1.2,0.5,1.2,1.2s-0.5,1.2-1.2,1.2H2.2z M2.2,13.2h19.5c0.7,0,1.2-0.5,1.2-1.2s-0.5-1.2-1.2-1.2H2.2C1.6,10.8,1,11.3,1,12
		C1,12.7,1.6,13.2,2.2,13.2z M2.2,19.3h19.5c0.7,0,1.2-0.5,1.2-1.2c0-0.7-0.5-1.2-1.2-1.2H2.2c-0.7,0-1.2,0.5-1.2,1.2
		C1,18.8,1.6,19.3,2.2,19.3z"/>
</g>
</svg>
