<?xml version="1.0" encoding="utf-8"?>
<!-- Generator: Adobe Illustrator 25.0.1, SVG Export Plug-In . SVG Version: 6.00 Build 0)  -->
<svg version="1.1" id="Layer_1" xmlns="http://www.w3.org/2000/svg" xmlns:xlink="http://www.w3.org/1999/xlink" x="0px" y="0px"
	 width="24px" height="24px" viewBox="0 0 24 24" enable-background="new 0 0 24 24" xml:space="preserve">
<g>
	<path fill-rule="evenodd" clip-rule="evenodd" d="M12,1C6,1,1,6,1,12S6,23,12,23S23,18,23,12S18,1,12,1z M10.9,19.7v-2.2H13v2.2
		H10.9z M14.4,12.1l1-1c1.1-1.1,1.5-3.1,0.2-4.8c-1-1.3-2.6-2.2-4.3-1.9C9.6,4.6,8.3,5.8,7.8,7.4C7.7,8,8.1,8.6,8.7,8.6H9
		c0.4,0,0.7-0.3,0.9-0.7c0.4-1,1.5-1.7,2.7-1.4c0.7,0.2,1.4,0.9,1.5,1.6c0.1,0.7-0.1,1.5-0.6,1.9l-1.3,1.4c-0.4,0.4-0.8,1-1,1.6
		c-0.1,0.4-0.2,0.9-0.2,1.4v0.5H13c0-0.5,0.1-0.9,0.1-1.3C13.4,13.3,13.9,12.7,14.4,12.1z"/>
</g>
</svg>
