<?xml version="1.0" encoding="utf-8"?>
<!-- Generator: Adobe Illustrator 25.0.1, SVG Export Plug-In . SVG Version: 6.00 Build 0)  -->
<svg version="1.1" id="Layer_1" xmlns="http://www.w3.org/2000/svg" xmlns:xlink="http://www.w3.org/1999/xlink" x="0px" y="0px"
	 width="24px" height="24px" viewBox="0 0 24 24" enable-background="new 0 0 24 24" xml:space="preserve">
<path fill-rule="evenodd" clip-rule="evenodd" d="M12,3c3,0,3.3,0,4.5,0.1c1.1,0.1,1.7,0.2,2.1,0.4c0.5,0.2,0.9,0.4,1.2,0.8
	c0.4,0.4,0.6,0.8,0.8,1.2c0.1,0.3,0.3,1,0.3,2C21,8.7,21,9,21,12s0,3.3-0.1,4.5c-0.1,1.1-0.2,1.7-0.4,2.1c-0.2,0.5-0.4,0.9-0.8,1.2
	c-0.4,0.4-0.8,0.6-1.2,0.8c-0.4,0.1-1,0.3-2.1,0.4c-1.2,0.1-1.5,0.1-4.5,0.1s-3.3,0-4.5-0.1c-1.1-0.1-1.7-0.2-2.1-0.4
	c-0.5-0.2-0.9-0.4-1.2-0.8c-0.4-0.4-0.6-0.8-0.8-1.2c-0.1-0.4-0.3-1-0.3-2.1C3,15.3,3,15,3,12S3,8.7,3,7.5c0-1,0.2-1.7,0.3-2
	C3.6,5,3.8,4.6,4.2,4.3C4.6,3.9,5,3.7,5.4,3.4C5.9,3.2,6.5,3,7.5,3C8.7,3,9,3,12,3z M12,1C9,1,8.6,1,7.4,1s-2,0.2-2.7,0.5
	C4,1.8,3.4,2.2,2.8,2.8c-0.6,0.7-1,1.3-1.3,2S1,6.3,1,7.4C1,8.6,1,9,1,12s0,3.4,0.1,4.6s0.2,2,0.5,2.7c0.3,0.8,0.7,1.3,1.2,1.9
	c0.6,0.6,1.2,1,1.9,1.2c0.7,0.3,1.5,0.5,2.7,0.5C8.6,23,9,23,12,23s3.4,0,4.6-0.1c1.2-0.1,2-0.2,2.7-0.5c0.8-0.3,1.3-0.7,1.9-1.2
	c0.6-0.6,1-1.2,1.2-1.9c0.3-0.7,0.5-1.5,0.5-2.7C23,15.4,23,15,23,12s0-3.4-0.1-4.6c-0.1-1.2-0.2-2-0.5-2.7
	c-0.3-0.8-0.7-1.3-1.2-1.9c-0.6-0.6-1.2-1-1.9-1.2c-0.7-0.3-1.5-0.5-2.7-0.5C15.4,1,15,1,12,1z M12,6.3c-3.1,0-5.7,2.6-5.7,5.7
	s2.6,5.7,5.7,5.7s5.7-2.6,5.7-5.7S15.1,6.3,12,6.3z M12,15.7c-2,0-3.7-1.7-3.7-3.7S10,8.3,12,8.3s3.7,1.7,3.7,3.7S14,15.7,12,15.7z
	 M19.2,6.1c0,0.8-0.6,1.3-1.3,1.3c-0.7,0-1.3-0.6-1.3-1.3c0-0.8,0.6-1.3,1.3-1.3C18.6,4.8,19.2,5.4,19.2,6.1z"/>
</svg>
