<?xml version="1.0" encoding="utf-8"?>
<!-- Generator: Adobe Illustrator 25.0.1, SVG Export Plug-In . SVG Version: 6.00 Build 0)  -->
<svg version="1.1" id="Layer_1" xmlns="http://www.w3.org/2000/svg" xmlns:xlink="http://www.w3.org/1999/xlink" x="0px" y="0px"
	 width="24px" height="24px" viewBox="0 0 24 24" enable-background="new 0 0 24 24" xml:space="preserve">
<g>
	<path d="M21.4,1H2.7C1.9,1,1.2,1.8,1.1,2.6v18.8c0,0.8,0.8,1.6,1.6,1.6h18.6c0.8,0,1.6-0.8,1.6-1.6V2.6C23,1.8,22.3,1,21.4,1z
		 M7.6,19.8H4.4V9.3h3.2V19.8L7.6,19.8z M5.9,7.8C4.9,7.8,4.1,7,4.1,6s0.8-1.9,1.9-1.9S7.8,4.9,7.8,6S7,7.8,5.9,7.8z M19.8,19.8
		h-3.2v-5.1c0-1.2,0-2.8-1.6-2.8s-2,1.4-2,2.7v5.2H9.7V9.3h3.1v1.4c0.6-1,1.8-1.8,3-1.6c3.4,0,3.8,2.2,3.8,5L19.8,19.8z"/>
</g>
</svg>
