<?xml version="1.0" encoding="utf-8"?>
<!-- Generator: Adobe Illustrator 25.0.1, SVG Export Plug-In . SVG Version: 6.00 Build 0)  -->
<svg version="1.1" id="Layer_1" xmlns="http://www.w3.org/2000/svg" xmlns:xlink="http://www.w3.org/1999/xlink" x="0px" y="0px"
	 width="24px" height="24px" viewBox="0 0 24 24" enable-background="new 0 0 24 24" xml:space="preserve">
<g>
	<path fill-rule="evenodd" clip-rule="evenodd" fill="#FF7020" d="M10.8,2.2C10.8,1.5,11.3,1,12,1s1.2,0.6,1.2,1.2V12
		c0,0.7-0.6,1.2-1.2,1.2c-0.7,0-1.2-0.6-1.2-1.2C10.8,12,10.8,2.2,10.8,2.2z M18.3,6.2c-0.5-0.5-0.5-1.2,0-1.7
		c0.5-0.5,1.3-0.5,1.8,0c1.9,2,3,4.6,3,7.5c0,6.2-5.1,11.2-11.4,11C5.7,22.8,0.9,17.6,1,11.7c0.1-2.8,1.2-5.3,3-7.2
		C4.4,4,5.2,4,5.7,4.5s0.5,1.2,0,1.7C4.3,7.7,3.5,9.7,3.5,12c0,4.7,3.9,8.6,8.7,8.5c4.7-0.1,8.5-4.1,8.5-8.7
		C20.5,9.6,19.6,7.7,18.3,6.2z"/>
</g>
</svg>
