<?xml version="1.0" encoding="utf-8"?>
<!-- Generator: Adobe Illustrator 25.0.1, SVG Export Plug-In . SVG Version: 6.00 Build 0)  -->
<svg version="1.1" id="Layer_1" xmlns="http://www.w3.org/2000/svg" xmlns:xlink="http://www.w3.org/1999/xlink" x="0px" y="0px"
	 width="55.3px" height="24px" viewBox="0 0 55.3 24" style="enable-background:new 0 0 55.3 24;" xml:space="preserve">
<style type="text/css">
	.st0GOL{opacity:0.99;fill:#D1D0CF;enable-background:new    ;}
	.st1GOL{fill:#FF7020;}
</style>
<g>
	<path class="st0GOL" d="M32.4,1c-0.7,0-1.3,0-2,0.2c5.1,0.9,8.8,5,8.8,10.3c0,3.8-3.1,7.2-6.9,7.2c-0.7,0-1.3-0.1-2-0.2
		c-2.9-0.9-4.9-3.4-4.9-6.5s2-5.7,4.9-6.5c-0.7-0.2-1.3-0.2-2-0.2c-3.8,0-6.9,3.4-6.9,7.2c0,5.4,3.8,9.3,8.8,10.3
		c0.7,0.1,1.3,0.2,2,0.2c4.6,0,8.6-2.9,10.2-7V8C40.9,3.9,37,1,32.4,1z"/>
	<path class="st1GOL" d="M30.4,1.2c-0.7-0.1-1.3-0.2-2-0.2c-5.2,0-9.6,3.6-10.6,8.6c0,0.2-0.2,0.2-0.4,0.2h-5.4c-0.2,0-0.4,0.2-0.4,0.4
		v3.4c0,0.2,0.2,0.4,0.4,0.4h4.6c0.2,0,0.4,0.2,0.4,0.4v1.6c0,0.2,0,0.4-0.2,0.5c-1.3,1.4-3.1,2.4-5.2,2.4c-3.8,0-6.9-3.1-6.9-6.9
		s3.2-7,7-7c1.1,0,2,0.2,2.9,0.7c0.2,0.1,0.4,0,0.5-0.1L17,2.8c0.1-0.2,0-0.5-0.1-0.5c-1.6-0.9-3.2-1.2-5-1.2
		C5.8,1.1,0.9,5.9,0.9,12s4.9,10.9,10.8,10.9c3.2,0,6.1-1.3,8.1-3.6c0.1-0.2,0.4-0.2,0.6,0c2,2.3,4.9,3.6,8.1,3.6c0.7,0,1.3,0,2-0.2
		c-5.1-0.9-8.8-5-8.8-10.3c0-3.8,3.1-7.2,6.9-7.2c0.7,0,1.3,0.1,2,0.2c2.9,0.9,4.9,3.4,4.9,6.5s-2.1,5.7-4.9,6.5
		c0.7,0.2,1.3,0.2,2,0.2c3.8,0,6.9-3.4,6.9-7.2C39.3,6.1,35.3,2.1,30.4,1.2z M54,18.4H47c-0.2,0-0.4-0.2-0.4-0.4V1.6
		c0-0.2-0.2-0.4-0.4-0.4H43c-0.2,0-0.4,0.2-0.4,0.4v20.1c0,0.4,0.4,0.7,0.7,0.7h10.8c0.2,0,0.4-0.2,0.4-0.4v-3.4
		C54.4,18.5,54.2,18.4,54,18.4z"/>
</g>
</svg>
