<?xml version="1.0" encoding="utf-8"?>
<!-- Generator: Adobe Illustrator 25.0.1, SVG Export Plug-In . SVG Version: 6.00 Build 0)  -->
<svg version="1.1" id="Layer_1" xmlns="http://www.w3.org/2000/svg" xmlns:xlink="http://www.w3.org/1999/xlink" x="0px" y="0px"
	 width="24px" height="24px" viewBox="0 0 24 24" enable-background="new 0 0 24 24" xml:space="preserve">
<g id="Maps__x2F__local_x5F_phone_x5F_24px">
	<path id="icon_x2F_maps_x2F_local_x5F_phone_x5F_24px" d="M20.9,16l-3.1-0.4c-0.8-0.1-1.4,0.1-2,0.7l-2.2,2.2c-3.4-1.8-6.3-4.6-8-8
		l2.3-2.3c0.5-0.5,0.8-1.2,0.7-2l-0.5-3C8,1.9,6.9,1,5.7,1H3.5C2.1,1,0.9,2.2,1,3.5C1.6,14,10,22.4,20.5,23c1.4,0.1,2.5-1.1,2.5-2.5
		v-2.1C23.1,17.2,22.2,16.1,20.9,16z"/>
</g>
</svg>
