<?xml version="1.0" encoding="utf-8"?>
<!-- Generator: Adobe Illustrator 25.0.1, SVG Export Plug-In . SVG Version: 6.00 Build 0)  -->
<svg version="1.1" id="Layer_1" xmlns="http://www.w3.org/2000/svg" xmlns:xlink="http://www.w3.org/1999/xlink" x="0px" y="0px"
	 width="56.8px" height="24px" viewBox="0 0 56.8 24" style="enable-background:new 0 0 56.8 24;" xml:space="preserve">
<style type="text/css">
	.st0Smiles{fill:#FF7020;}
</style>
<g>
	<path class="st0Smiles" d="M29.6,3.7c0.7,0,1.3-0.6,1.3-1.3S30.4,1,29.6,1c-0.7,0-1.3,0.6-1.3,1.3C28.3,3.2,28.9,3.7,29.6,3.7z
		 M34.8,15.4L34.8,15.4c0.5,0,1-0.1,1.3-0.3c0.4-0.1,0.6-0.4,0.7-0.6c0.1-0.1,0.1-0.3,0.1-0.4s0-0.2-0.1-0.4
		c-0.1-0.3-0.4-0.4-0.6-0.4c-0.1,0-0.1,0-0.1,0c-0.1,0-0.2,0.1-0.3,0.1c-0.1,0-0.2,0.1-0.4,0.1c-0.3,0-0.4-0.1-0.6-0.2
		c0,0-0.2-0.2-0.3-0.5c-0.1-0.4-0.1-1.1-0.1-1.5c0-0.1,0-9,0-9.3c0-0.4-0.1-0.6-0.4-0.8c-0.2-0.1-0.5-0.2-0.8-0.2
		c-0.3,0-0.6,0.1-0.8,0.2c-0.2,0.1-0.4,0.4-0.4,0.7v10.5c0,0.6,0.1,1.3,0.6,1.8C33.1,14.9,33.8,15.4,34.8,15.4z M39.8,6.7
		c0.6-0.9,1.3-1,1.6-1l0,0c0.5,0,1,0.4,1.1,1.1c0,0.1,0,0.3,0,0.4c0,0.6-0.2,1-0.5,1.3c-0.7,0.8-1.8,1.1-2.8,1.2c0-0.1,0-0.2,0-0.3
		C39.2,8.4,39.3,7.4,39.8,6.7z M38.2,14.1c0.8,0.8,1.9,1.3,3.3,1.3l0,0c0.8,0,1.4-0.1,2-0.4c0.3-0.1,0.5-0.2,0.6-0.4
		c0.1-0.1,0.3-0.4,0.3-0.6v-0.1c-0.1-0.4-0.4-0.6-0.7-0.6c-0.1,0-0.1,0-0.2,0.1c-0.4,0.1-0.8,0.2-1.3,0.2c-0.1,0-0.3,0-0.4,0
		c-1-0.1-1.6-0.7-2-1.3c-0.2-0.3-0.3-0.6-0.4-0.8c0-0.1-0.1-0.2-0.1-0.3c1.4-0.1,2.6-0.2,3.7-0.8c0.6-0.4,1.3-0.8,1.7-1.6
		c0.2-0.5,0.4-1.1,0.4-1.6c0-0.1,0-0.3-0.1-0.4c-0.2-1.3-1.5-2.4-3.4-2.4c-1.3,0-3.1,0.6-4.1,2.2c-0.4,0.6-0.9,1.9-0.9,3.5
		c0,0.4,0,0.8,0.1,1.2C36.9,12.3,37.4,13.3,38.2,14.1z M14.3,14.9c0.2,0.1,0.5,0.2,0.8,0.2c0.3,0,0.6-0.1,0.8-0.2
		c0.2-0.1,0.4-0.4,0.4-0.7V8.4c0-0.4,0.1-1.1,0.4-1.5c0.3-0.5,0.6-0.8,1.3-0.8c0.3,0,0.5,0.1,0.6,0.2C19,6.6,19.1,7,19.2,7.3
		c0.1,0.4,0.1,0.7,0.1,0.9c0,0.1,0,5.9,0,6c0,0.4,0.2,0.6,0.4,0.8c0.3,0.1,0.6,0.2,0.8,0.2c0.3,0,0.6-0.1,0.8-0.2
		c0.3-0.1,0.4-0.4,0.4-0.7V8.4c0-0.4,0.1-1.1,0.4-1.5c0.3-0.5,0.6-0.8,1.3-0.8c0.3,0,0.5,0.1,0.6,0.2c0.2,0.2,0.4,0.6,0.4,0.9
		c0.1,0.4,0.1,0.7,0.1,0.9c0,0.1,0,5.6,0,6c0,0.4,0.2,0.6,0.4,0.8c0.2,0.2,0.6,0.2,0.8,0.2s0.6-0.1,0.8-0.2c0.3-0.1,0.4-0.4,0.4-0.7
		V8.7c0-1.4-0.3-2.5-0.8-3.2c-0.6-0.8-1.3-1.2-2.3-1.2c-0.8,0-1.6,0.4-2,0.9c-0.4,0.4-0.6,0.7-0.7,1c-0.2-0.6-0.5-1.1-0.9-1.3
		c-0.4-0.4-1.1-0.6-1.7-0.6c-1.1,0-1.9,0.7-2.4,1.3V5.5c0-0.4-0.1-0.6-0.4-0.8c-0.2-0.1-0.5-0.2-0.8-0.2c-0.3,0-0.6,0.1-0.8,0.2
		c-0.2,0.1-0.4,0.4-0.4,0.7c0,0,0,8.5,0,8.7C14,14.5,14.1,14.8,14.3,14.9z M30.5,4.8c-0.2-0.1-0.5-0.2-0.8-0.2
		c-0.3,0-0.6,0.1-0.8,0.2c-0.2,0.1-0.4,0.4-0.4,0.7v8.7c0,0.4,0.1,0.6,0.4,0.8c0.2,0.1,0.5,0.2,0.8,0.2c0.3,0,0.6-0.1,0.8-0.2
		c0.2-0.1,0.4-0.4,0.4-0.7c0,0,0-8.5,0-8.7C30.8,5.2,30.7,4.9,30.5,4.8z M55.9,9.2c0-0.1-0.1-0.1-0.1-0.1s-0.1,0-0.1,0.1
		c0,0,0,0.1-0.1,0.1c-0.1,0.1-0.2,0.2-0.4,0.4c-0.3,0.3-0.7,0.7-1.3,1.2c-0.4,0.4-0.9,0.7-1.5,1.1c0-0.1,0-0.4-0.1-0.5
		c-0.1-0.6-0.5-1.1-0.9-1.4c-0.6-0.6-1.5-0.9-2.1-1.3c-0.4-0.2-0.6-0.4-0.8-0.6c-0.1-0.2-0.3-0.5-0.3-0.8c0-0.1,0-0.1,0-0.1
		c0-0.4,0.1-0.6,0.4-0.9c0.1-0.1,0.6-0.4,1.1-0.4c0.7,0,1.3,0.4,1.7,0.4c0.4,0,0.7-0.2,0.8-0.6c0-0.1,0-0.1,0-0.2
		c0-0.4-0.4-0.8-0.8-0.9c0,0-0.4-0.1-1.3-0.1c-1.3,0-2.3,0.4-3,0.8c-0.7,0.6-1.1,1.3-1.1,2.3c0,0.3,0,0.5,0.1,0.8
		c0.3,1.1,1.4,1.8,2.4,2.3c0.5,0.3,1,0.6,1.4,0.8c0.4,0.3,0.6,0.6,0.7,0.9c0,0.1,0,0.1,0,0.1c0,0.3-0.1,0.6-0.4,0.8
		c-0.3,0.2-0.7,0.4-1.3,0.4h-0.1c-0.6,0-1.2-0.2-1.6-0.4c-0.1-0.1-0.4-0.1-0.5-0.1c-0.4,0-0.7,0.3-0.8,0.6c0,0.1,0,0.1,0,0.1
		c0,0.3,0.1,0.5,0.4,0.7c0.3,0.3,0.7,0.4,1.1,0.6c-4.5,2.3-10.8,4.4-18.7,4.4c-8,0-14.3-2.1-18.8-4.4c0.9-0.2,1.7-0.6,2.3-1.1
		c0.8-0.7,1.2-1.7,1.2-2.8c0-0.2,0-0.5-0.1-0.7C13,10,12.5,9.4,12,8.9C11.1,8.1,10.1,7.5,9.2,7C8.7,6.8,8.3,6.5,8,6.2
		C7.6,5.7,7.5,5.4,7.4,5.1c0-0.1,0-0.2,0-0.3C7.3,4.3,7.5,3.9,7.9,3.5s0.9-0.6,1.8-0.6c0.4,0,1,0.1,1.6,0.3c0.2,0.1,0.4,0.1,0.5,0.1
		c0.4,0,0.7-0.2,0.8-0.6c0.1-0.1,0.1-0.2,0.1-0.4c0-0.3-0.1-0.6-0.4-0.7c-0.2-0.2-0.5-0.3-0.8-0.4C11,1.1,10.4,1,9.7,1l0,0
		C8,1,6.7,1.5,5.8,2.3C5,3,4.6,4,4.6,4.9c0,0.2,0,0.4,0.1,0.6c0.3,1.3,1.4,2.3,2.5,3s2.3,1.3,2.8,1.9c0.2,0.4,0.4,0.8,0.4,1.1
		c0,0.4-0.1,0.8-0.4,1.1c-0.4,0.5-1.3,0.8-2.1,0.8c-0.6,0-1.1-0.1-1.6-0.4L6.1,13c-1.3-0.8-2.3-1.6-3-2.3c-0.6-0.5-1-0.9-1.3-1.2
		C1.6,9.4,1.5,9.2,1.4,9.2c-0.1,0.1-0.1,0-0.1,0c-0.1,0-0.1,0-0.1,0c-0.1,0-0.1,0.1-0.1,0.1C1.1,9.5,1,9.8,1,10.1v0.1l0,0
		c0,0.8,0.3,1.5,1.1,2.2C2.3,12.6,12.3,23,28.5,23s26.3-10.4,26.4-10.6c0.8-0.7,1.1-1.3,1.1-2.2l0,0v-0.1C56,9.7,56,9.4,55.9,9.2z"
		/>
</g>
</svg>
