<?xml version="1.0" encoding="utf-8"?>
<!-- Generator: Adobe Illustrator 25.0.1, SVG Export Plug-In . SVG Version: 6.00 Build 0)  -->
<svg version="1.1" id="Layer_1" xmlns="http://www.w3.org/2000/svg" xmlns:xlink="http://www.w3.org/1999/xlink" x="0px" y="0px"
	 width="24px" height="24px" viewBox="0 0 24 24" enable-background="new 0 0 24 24" xml:space="preserve">
<g>
	<path d="M12,1C6,1,1,6,1,12S6,23,12,23S23,18,23,12S18,1,12,1z M17,16.9c-0.2,0.3-0.6,0.4-1,0.2c-2.6-1.6-5.8-1.9-9.7-1
		c-0.3,0.1-0.8-0.1-0.8-0.5s0.1-0.8,0.5-0.8c4.2-1,7.8-0.5,10.7,1.2C17.2,16.1,17.2,16.5,17,16.9z M18.4,13.9
		c-0.3,0.4-0.8,0.5-1.2,0.3c-3-1.8-7.5-2.3-10.9-1.3c-0.5,0.1-1-0.1-1.1-0.5c-0.1-0.5,0.1-1,0.5-1.1c4-1.2,8.9-0.6,12.4,1.4
		C18.5,13,18.7,13.4,18.4,13.9z M18.5,10.8C15,8.6,9.1,8.5,5.7,9.5C5.2,9.7,4.6,9.4,4.4,8.8C4.3,8.3,4.6,7.7,5.1,7.5
		C9,6.4,15.4,6.6,19.6,9c0.5,0.3,0.6,0.9,0.3,1.4C19.6,10.9,19,11,18.5,10.8z"/>
</g>
</svg>
