<?xml version="1.0" encoding="utf-8"?>
<!-- Generator: Adobe Illustrator 25.0.1, SVG Export Plug-In . SVG Version: 6.00 Build 0)  -->
<svg version="1.1" id="Layer_1" xmlns="http://www.w3.org/2000/svg" xmlns:xlink="http://www.w3.org/1999/xlink" x="0px" y="0px"
	 width="24px" height="24px" viewBox="0 0 24 24" enable-background="new 0 0 24 24" xml:space="preserve">
<path fill-rule="evenodd" clip-rule="evenodd" d="M22.9,12c0,6.1-4.9,10.9-10.9,10.9S1.1,18.1,1.1,12S5.9,1.1,12,1.1
	S22.9,5.9,22.9,12z M17.5,10.2c0,3.5-2.6,7.5-7.5,7.5c-1.4,0-2.9-0.4-4.1-1.2c0.2,0,0.4,0.1,0.7,0.1c1.2,0,2.4-0.4,3.3-1.2
	c-1.2,0-2.1-0.8-2.5-1.8c0.1,0,0.3,0.1,0.5,0.1s0.5,0,0.8-0.1c-1.2-0.2-2.1-1.3-2.1-2.6l0,0l0,0c0.3,0.2,0.8,0.3,1.2,0.3
	C6.9,11,6.5,10.1,6.5,9.2c0-0.5,0.1-1,0.3-1.3c1.3,1.6,3.3,2.6,5.5,2.8c-0.1-0.2-0.1-0.3-0.1-0.6c0-1.4,1.2-2.6,2.6-2.6
	c0.8,0,1.4,0.3,1.9,0.8C17.4,8.2,18,8,18.5,7.6c-0.2,0.6-0.6,1.2-1.2,1.4c0.5-0.1,1-0.2,1.5-0.4c-0.3,0.5-0.8,1-1.3,1.4
	C17.5,10,17.5,10.2,17.5,10.2z"/>
</svg>
