<?xml version="1.0" encoding="utf-8"?>
<!-- Generator: Adobe Illustrator 25.0.1, SVG Export Plug-In . SVG Version: 6.00 Build 0)  -->
<svg version="1.1" id="Layer_1" xmlns="http://www.w3.org/2000/svg" xmlns:xlink="http://www.w3.org/1999/xlink" x="0px" y="0px"
	 width="24px" height="24px" viewBox="0 0 24 24" enable-background="new 0 0 24 24" xml:space="preserve">
<path fill-rule="evenodd" clip-rule="evenodd" fill="#FF7020" d="M12,1C5.9,1,1,5.9,1,12s4.9,11,11,11s11-4.9,11-11S18.1,1,12,1z
	 M10.9,20.7c-4.3-0.5-7.7-4.2-7.7-8.7c0-0.7,0.1-1.3,0.2-2l5.3,5.3v1.1c0,1.2,1,2.2,2.2,2.2C10.9,18.6,10.9,20.7,10.9,20.7z
	 M16.4,16.4c1,0,1.8,0.6,2.1,1.5c1.4-1.6,2.3-3.6,2.3-5.9c0-3.7-2.3-6.8-5.5-8.1v0.5c0,1.2-1,2.2-2.2,2.2h-2.2v2.2
	c0,0.6-0.5,1.1-1.1,1.1H7.6V12h6.6c0.6,0,1.1,0.5,1.1,1.1v3.3L16.4,16.4L16.4,16.4z"/>
</svg>
