<?xml version="1.0" encoding="utf-8"?>
<!-- Generator: Adobe Illustrator 25.0.1, SVG Export Plug-In . SVG Version: 6.00 Build 0)  -->
<svg version="1.1" id="Layer_1" xmlns="http://www.w3.org/2000/svg" xmlns:xlink="http://www.w3.org/1999/xlink" x="0px" y="0px"
	 width="24px" height="24px" viewBox="0 0 24 24" enable-background="new 0 0 24 24" xml:space="preserve">
<path fill-rule="evenodd" clip-rule="evenodd" d="M20.6,4.7c0.9,0.3,1.7,1,1.9,2C23,8.4,23,12,23,12s0,3.6-0.5,5.3
	c-0.3,0.9-1,1.7-1.9,2c-1.7,0.5-8.6,0.5-8.6,0.5s-6.9,0-8.6-0.5c-0.9-0.3-1.7-1-1.9-2C1,15.6,1,12,1,12s0-3.6,0.5-5.3
	c0.3-0.9,1-1.7,1.9-2C5.1,4.3,12,4.3,12,4.3S18.9,4.3,20.6,4.7z M15.5,12l-5.7,3.3V8.7L15.5,12z"/>
</svg>
