<svg width="80" height="80" viewBox="0 0 80 80" fill="none" xmlns="http://www.w3.org/2000/svg">
<path d="M0 1.77778C0 0.795938 0.795938 0 1.77778 0H78.2222C79.2041 0 80 0.795938 80 1.77778V78.2222C80 79.2041 79.2041 80 78.2222 80H1.77778C0.795938 80 0 79.2041 0 78.2222V1.77778Z" fill="white"/>
<path d="M71.998 40C71.998 57.6731 57.6712 72 39.998 72C22.3249 72 7.99805 57.6731 7.99805 40C7.99805 22.3269 22.3249 8 39.998 8C57.6712 8 71.998 22.3269 71.998 40Z" fill="#FFEADE"/>
<path d="M71.998 40C71.998 57.6731 57.6712 72 39.998 72C22.3249 72 7.99805 57.6731 7.99805 40C7.99805 22.3269 22.3249 8 39.998 8C57.6712 8 71.998 22.3269 71.998 40Z" fill="#FFEADE"/>
<path d="M22.0786 29.4069C21.6668 26.2956 23.8552 23.4396 26.9665 23.0279L48.2588 20.21C51.3701 19.7983 54.226 21.9867 54.6378 25.098L60.5875 70.0544C60.9992 73.1657 58.8108 76.0217 55.6995 76.4335L34.4073 79.2513C31.296 79.6631 28.44 77.4747 28.0282 74.3634L22.0786 29.4069Z" fill="white"/>
<path fill-rule="evenodd" clip-rule="evenodd" d="M48.2879 20.4303L26.9957 23.2482C24.006 23.6438 21.9032 26.3882 22.2989 29.3778L28.2485 74.3342C28.6442 77.3239 31.3885 79.4267 34.3781 79.031L55.6704 76.2132C58.66 75.8175 60.7628 73.0732 60.3672 70.0836L54.4175 25.1271C54.0219 22.1375 51.2775 20.0347 48.2879 20.4303ZM26.9665 23.0279C23.8552 23.4396 21.6668 26.2956 22.0786 29.4069L28.0282 74.3634C28.44 77.4747 31.296 79.6631 34.4073 79.2513L55.6995 76.4335C58.8108 76.0217 60.9992 73.1657 60.5875 70.0544L54.6378 25.098C54.226 21.9867 51.3701 19.7983 48.2588 20.21L26.9665 23.0279Z" fill="#333333"/>
<path d="M23.3751 29.5818C23.0531 27.1484 24.7646 24.9147 27.198 24.5927L48.3723 21.7904C50.8057 21.4684 53.0394 23.18 53.3614 25.6133L58.177 62.0006C58.4991 64.434 56.7875 66.6677 54.3541 66.9898L33.1798 69.792C30.7464 70.1141 28.5127 68.4025 28.1907 65.9691L23.3751 29.5818Z" fill="#FF7020"/>
<path d="M47.0577 72.6722C47.0577 73.7941 46.1481 74.7037 45.0262 74.7037C43.9042 74.7037 42.9946 73.7941 42.9946 72.6722C42.9946 71.5502 43.9042 70.6406 45.0262 70.6406C46.1481 70.6406 47.0577 71.5502 47.0577 72.6722Z" fill="#FF7020"/>
<path d="M52.7213 43.9835C52.715 43.9609 52.697 43.9444 52.6747 43.941C52.6516 43.9363 52.6293 43.9464 52.6158 43.9649C52.6158 43.9649 52.6044 43.9813 52.5802 44.013C52.5559 44.0455 52.5193 44.093 52.4698 44.1545C52.3715 44.2771 52.2232 44.4529 52.0233 44.6672C51.8814 44.8194 51.7141 44.9905 51.5202 45.1765C51.5194 45.1725 51.5181 45.169 51.5174 45.165C49.1657 47.4559 46.2174 48.725 43.239 49.1865C43.2138 49.1906 43.1879 49.1939 43.1626 49.1978C43.0792 49.2105 42.9954 49.2229 42.9118 49.2341C42.8297 49.2457 42.7493 49.2591 42.666 49.2698L42.666 49.27L42.666 49.2698C39.7507 49.6443 37.326 49.2211 35.5033 48.6132C34.196 48.1925 33.0141 47.6128 32.0314 46.902C31.9781 46.8642 31.9285 46.8286 31.8879 46.7984C31.8249 46.7514 31.7775 46.7146 31.7457 46.6893C31.7145 46.6646 31.6993 46.6518 31.6989 46.6518C31.6814 46.6374 31.6567 46.6335 31.6363 46.6436C31.6156 46.6525 31.6022 46.673 31.6019 46.6964C31.6014 46.782 31.6062 46.8901 31.6221 47.0139L31.6258 47.0424L31.6269 47.0512C31.6744 47.3704 31.8134 47.6033 32.1368 47.8357C32.2158 47.8985 36.6074 51.377 42.8343 50.5784L42.8341 50.5773L42.8343 50.5784C49.0609 49.7774 52.431 45.3015 52.4916 45.2208C52.7459 44.9141 52.8215 44.6534 52.7864 44.3329L52.7852 44.3241L52.7816 44.2956C52.7655 44.1718 52.7439 44.0659 52.7213 43.9835Z" fill="black"/>
</svg>
