<svg width="80" height="80" viewBox="0 0 80 80" fill="none" xmlns="http://www.w3.org/2000/svg">
<rect width="80" height="80" rx="8" fill="white"/>
<circle cx="40" cy="40" r="32" fill="#FFEADE"/>
<mask id="mask0" mask-type="alpha" maskUnits="userSpaceOnUse" x="8" y="8" width="64" height="64">
<circle cx="40" cy="40" r="32" fill="#FFEADE"/>
</mask>
<g mask="url(#mask0)">
<path d="M43.3532 78.1478L2.78205 37.5766C-8.01307 48.8116 -7.87677 66.6712 3.19093 77.7389C14.2586 88.8066 32.1183 88.9429 43.3532 78.1478Z" stroke="#FF7020" stroke-width="1.16817"/>
</g>
<ellipse cx="62.7777" cy="44.6752" rx="2.18888" ry="2.1889" fill="black"/>
<rect x="0.367668" y="-0.63682" width="10.626" height="10.6324" rx="5.31301" transform="matrix(0.965926 -0.258819 -0.258819 -0.965926 63.2461 30.0014)" stroke="#FF7020" stroke-width="1.03992"/>
<ellipse cx="21.0554" cy="21.0558" rx="13.1638" ry="13.1638" transform="rotate(-43.632 21.0554 21.0558)" fill="#FF7020"/>
<path d="M17.8259 25.8049L26.4286 17.6035C28.356 19.9932 28.1592 23.5022 25.8972 25.6586C23.6352 27.8151 20.1209 27.8442 17.8259 25.8049Z" stroke="black"/>
<rect x="-0.571406" y="0.416528" width="13.2613" height="18.8754" rx="6.63067" transform="matrix(-0.987934 -0.154878 -0.154878 0.987934 50.4623 37.8921)" stroke="black"/>
<rect x="-0.571406" y="0.416528" width="8.0754" height="13.5855" rx="4.0377" transform="matrix(-0.987934 -0.154878 -0.154878 0.987934 47.4755 40.2017)" stroke="black"/>
<rect x="-0.571406" y="0.416528" width="2.88945" height="8.72364" rx="1.44473" transform="matrix(-0.987934 -0.154878 -0.154878 0.987934 44.537 42.2017)" stroke="black"/>
</svg>
