<svg width="80" height="80" viewBox="0 0 80 80" fill="none" xmlns="http://www.w3.org/2000/svg">
<rect width="80" height="80" rx="8" fill="white"/>
<circle cx="40" cy="40" r="32" fill="#FFEADE"/>
<circle cx="40" cy="40" r="32" fill="#FFEADE"/>
<g clip-path="url(#clip0)">
<path d="M12.6406 55.5404C12.8622 55.6733 13.0394 55.8948 13.0837 56.1607H14.1913L13.3495 53.0371L12.6406 55.5404Z" fill="#FEE6D4"/>
<path d="M40.6641 55.5183C40.7084 55.5404 40.7527 55.5847 40.797 55.6069H40.8191H44.0978H45.7371H49.0157H50.6551H51.2975L51.3197 55.5847L48.1296 49.3154H42.3698L40.6641 55.5183Z" fill="#FEE6D4"/>
<path d="M50.5664 16.507C50.5664 23.3966 56.149 29.0013 63.0607 29.0013C66.9375 29.0013 70.4155 27.229 72.7194 24.4378C74.4917 22.2889 75.555 19.5198 75.555 16.507C75.555 9.59525 69.9724 4.0127 63.0607 4.0127C60.0479 4.0127 57.2788 5.07604 55.1299 6.84828C52.3386 9.15219 50.5664 12.6302 50.5664 16.507Z" fill="#FF7020"/>
<path d="M60.4914 75.5443C60.6465 75.4114 60.7794 75.2784 60.8902 75.1012C61.2003 74.5917 61.2225 73.9936 60.9566 73.4619L58.0989 67.8572L52.6271 57.1351H52.605C52.76 57.0022 52.8708 56.8028 52.9151 56.6035H53.4911H53.8898H54.6209C54.7538 56.6035 54.8424 56.5149 54.8424 56.3819C54.8424 56.249 54.7538 56.1604 54.6209 56.1604H53.8898H53.4911H52.8929C52.8486 55.9389 52.7157 55.7617 52.5385 55.6287C52.3613 55.4958 52.1619 55.4072 51.9182 55.4072C51.8518 55.4072 51.7853 55.4072 51.7188 55.4294L48.6174 49.3373H48.1301L51.3201 55.6066L51.2979 55.6287C51.1207 55.7617 51.0099 55.9389 50.9435 56.1604H50.3232H48.6396H45.2945H43.6108H41.1076C41.0632 55.9389 40.9303 55.7617 40.7753 55.6287C40.7309 55.5844 40.6866 55.5623 40.6423 55.5401L42.3703 49.3373H41.9051L40.1993 55.4072C40.1771 55.4072 40.155 55.4072 40.1328 55.4072C40.0442 55.4072 39.9556 55.4294 39.8891 55.4515L32.3793 27.14C32.1799 26.3646 31.5818 25.7887 30.8286 25.5893C30.6513 25.545 30.452 25.5228 30.2526 25.5228H29.3665C29.3665 25.545 29.3665 25.5671 29.3443 25.5671V25.5893C29.3443 25.6336 29.3222 25.6779 29.3222 25.7222C29.3222 25.7665 29.3222 25.8108 29.3443 25.8773C29.3443 25.8773 29.3443 25.8773 29.3443 25.8994C29.3443 25.9216 29.3443 25.9437 29.3665 25.9659H30.2526C30.4298 25.9659 30.607 25.988 30.7843 26.0545C31.3381 26.2317 31.8033 26.6748 31.9584 27.2729L39.4904 55.6509V55.673C39.3353 55.806 39.2245 55.9832 39.1802 56.1826H38.5821H37.8289L37.9397 56.6256H38.5821H39.1581C39.2024 56.8471 39.3132 57.0244 39.4682 57.1573C39.5347 57.2237 39.6011 57.2681 39.6676 57.2902L35.6358 71.6897L35.5471 71.9776C35.2592 73.0188 34.6389 73.8828 33.8192 74.5031C33.3762 74.1486 33.0217 73.6834 32.7559 73.1739L31.4932 70.6928L24.6036 57.113H23.2522H23.2301C23.4073 57.2681 23.651 57.3788 23.9168 57.3788C24.0276 57.3788 24.1162 57.3567 24.227 57.3345L30.9393 70.4934L32.4014 73.3511C32.6673 73.8828 33.0439 74.348 33.4869 74.7468C32.7559 75.1898 31.8919 75.4557 31.0058 75.4557H10.049C9.34015 75.4557 8.69772 75.1234 8.25466 74.5695C7.83375 74.0157 7.70083 73.2847 7.87806 72.5979L12.1314 57.401C12.5302 57.401 12.8625 57.1794 13.0176 56.8471C13.0619 56.7807 13.084 56.6921 13.1062 56.6035H14.3024L14.1917 56.1604H13.1062C13.0397 55.8946 12.8846 55.673 12.6631 55.5401L13.372 53.0147L13.1505 52.1729L12.3751 54.942L7.45715 36.4664L4.93171 26.9406C4.86525 26.6969 4.90955 26.4532 5.06462 26.2317C5.17539 26.0766 5.35261 25.9659 5.55199 25.9437C5.5963 25.9437 5.66276 25.9216 5.70706 25.9216C5.83998 25.9216 5.92859 25.833 5.92859 25.7C5.92859 25.5671 5.83998 25.4785 5.70706 25.4785C5.6406 25.4785 5.5963 25.4785 5.52984 25.5007C5.19754 25.545 4.90955 25.7222 4.71018 25.9659C4.46649 26.276 4.40003 26.6748 4.48865 27.0514L7.41284 38.0393L11.9321 55.0306L12.0207 55.385C11.5333 55.4515 11.1345 55.8503 11.1345 56.3819C11.1345 56.7807 11.3561 57.113 11.6884 57.2681L7.435 72.465C7.21347 73.2847 7.36854 74.1486 7.87806 74.8132C8.09959 75.1012 8.38757 75.3449 8.69772 75.5221H4.71018V75.9652H75.5555V75.5221H60.4914V75.5443ZM36.0345 72.0884L36.1231 71.7561L40.1328 57.401C40.155 57.401 40.155 57.401 40.1771 57.401C40.443 57.401 40.6645 57.2902 40.8417 57.1351C40.9968 57.0022 41.1076 56.8028 41.1519 56.6035H43.6551H45.3388H48.6839H50.3675H50.9656C51.0099 56.825 51.1207 57.0022 51.2758 57.1351C51.453 57.2902 51.6967 57.401 51.9404 57.401C52.0511 57.401 52.1397 57.3788 52.2284 57.3567L57.7001 68.0787L60.5579 73.6834C60.7573 74.06 60.7351 74.5252 60.5136 74.8797C60.292 75.2563 59.8933 75.4778 59.4502 75.4778H36.544C35.7022 75.4778 34.9047 75.2341 34.218 74.7911C35.0819 74.1043 35.7244 73.1739 36.0345 72.0884ZM33.8414 75.0348C34.1294 75.2341 34.4395 75.4114 34.7718 75.5443H32.8666C33.1989 75.4114 33.5312 75.2563 33.8414 75.0348Z" fill="#010101"/>
<path d="M53.4906 56.6035H52.9146C52.8703 56.825 52.7596 57.0023 52.6045 57.1352H52.6266H53.7786C53.6235 56.9801 53.5349 56.8029 53.4906 56.6035Z" fill="#FF7020"/>
<path d="M49.0384 55.6074H45.7598C45.5604 55.7182 45.4053 55.8954 45.3389 56.1391H48.684C48.7283 55.9397 48.8612 55.7403 49.0384 55.6074Z" fill="#FF7020"/>
<path d="M52.5381 55.6074C52.7153 55.7403 52.8261 55.9397 52.8925 56.1391H53.4906C53.535 55.9397 53.6236 55.7403 53.7565 55.6074H52.5381Z" fill="#FF7020"/>
<path d="M50.9433 56.6035H50.3451C50.3894 56.825 50.5224 57.0023 50.6774 57.1352H49.0381C48.8609 57.0244 48.728 56.825 48.6837 56.6035H45.3386C45.405 56.8472 45.5601 57.0466 45.7595 57.1352H44.098C43.8765 57.0466 43.6992 56.8472 43.6328 56.6035H41.1295C41.0852 56.825 40.9744 57.0023 40.8193 57.1352H51.2313C51.0983 56.9801 50.9876 56.8029 50.9433 56.6035Z" fill="#FF7020"/>
<path d="M50.3457 56.1606H50.966C51.0103 55.939 51.1432 55.7618 51.3204 55.6289H50.678C50.5229 55.7397 50.39 55.939 50.3457 56.1606Z" fill="#FF7020"/>
<path d="M39.1585 55.6066H37.6964L29.9872 26.7412H26.5978L34.6171 56.7807C34.6614 56.9801 34.8387 57.113 35.0602 57.113H35.8356H35.8577H34.2184C34.1962 57.113 34.1962 57.113 34.1962 57.113H33.3766C33.1772 57.113 33 56.9801 32.9335 56.7807L24.9363 26.7412H21.5469L29.5663 56.7807C29.6106 56.9801 29.7878 57.113 30.0093 57.113H30.9397H39.4908H39.1585C38.8927 57.0465 38.6933 56.8471 38.6047 56.5813H37.9622L37.8515 56.1382H38.6047C38.6933 55.8946 38.8927 55.673 39.1585 55.6066Z" fill="#FF7020"/>
<path d="M44.0986 55.6074H40.82C40.82 55.6074 40.82 55.6074 40.7979 55.6074C40.9529 55.7403 41.0858 55.9176 41.1301 56.1391H43.6334C43.6999 55.9176 43.8771 55.696 44.0986 55.6074Z" fill="#FF7020"/>
<path d="M50.6774 55.6074H49.038C48.8608 55.7182 48.7279 55.9176 48.6836 56.1391H50.3672C50.3894 55.9397 50.5223 55.7403 50.6774 55.6074Z" fill="white"/>
<path d="M49.0387 57.1352H50.678C50.523 57.0023 50.39 56.825 50.3457 56.6035H48.6621C48.7286 56.825 48.8615 57.0023 49.0387 57.1352Z" fill="white"/>
<path d="M45.7373 55.6074H44.098C43.8765 55.696 43.6993 55.8954 43.6328 56.1391H45.3164C45.3829 55.9176 45.538 55.7182 45.7373 55.6074Z" fill="white"/>
<path d="M44.098 57.1352H45.7373C45.538 57.0466 45.3829 56.8472 45.3164 56.6035H43.6328C43.6993 56.8472 43.8765 57.0466 44.098 57.1352Z" fill="white"/>
<path d="M39.1583 55.6074C38.8925 55.6739 38.671 55.8733 38.6045 56.1391H39.2026C39.2469 55.9397 39.3577 55.7625 39.5128 55.6296V55.6074H39.1583Z" fill="white"/>
<path d="M40.8194 55.6074C40.7972 55.6296 40.7972 55.6296 40.8194 55.6074C40.7972 55.6296 40.7972 55.6296 40.8194 55.6074Z" fill="white"/>
<path d="M39.1583 57.1352H39.4906C39.3355 57.0023 39.2248 56.8029 39.1805 56.6035H38.6045C38.6931 56.8694 38.9146 57.0687 39.1583 57.1352Z" fill="white"/>
<path d="M54.5982 57.1353C55.0191 57.1353 55.3514 56.803 55.3514 56.3821C55.3514 55.9612 55.0191 55.6289 54.5982 55.6289C54.2659 55.6289 53.978 55.8504 53.8672 56.1606H54.5982C54.7311 56.1606 54.8198 56.2492 54.8198 56.3821C54.8198 56.515 54.7311 56.6036 54.5982 56.6036H53.8672C53.978 56.9138 54.2659 57.1353 54.5982 57.1353Z" fill="#FF7020"/>
<path d="M5.90657 25.7002C5.90657 25.8331 5.81795 25.9217 5.68504 25.9217C5.64073 25.9217 5.57427 25.9217 5.52997 25.9438C5.61858 26.2318 5.90657 26.4534 6.23886 26.4534H9.42889H9.53966C9.16306 26.4312 8.85291 26.0989 8.85291 25.7002V25.678C8.85291 25.2793 9.16306 24.9691 9.53966 24.9248H11.179C10.8245 24.9691 10.5365 25.2793 10.5365 25.678V25.7002C10.5365 26.0768 10.8245 26.4091 11.179 26.4534H14.4576C14.1253 26.3869 13.8816 26.0768 13.8816 25.7002V25.678C13.8816 25.3014 14.1475 25.0134 14.4576 24.9248H16.0969C15.7868 25.0134 15.5431 25.3236 15.5431 25.678V25.7002C15.5431 26.0546 15.7868 26.3647 16.0969 26.4534H19.3756C19.0876 26.3426 18.8882 26.0546 18.8882 25.7002V25.678C18.8882 25.3457 19.0876 25.0356 19.3756 24.9248H10.0049H6.21671C5.86226 24.9248 5.59642 25.1463 5.50781 25.4786C5.57427 25.4786 5.61858 25.4565 5.68504 25.4565C5.81795 25.4786 5.90657 25.5894 5.90657 25.7002Z" fill="#FF7020"/>
<path d="M20.5942 25.7005C20.5942 26.0549 20.7935 26.3429 21.0594 26.4758H24.338C24.1165 26.3208 23.9393 26.0328 23.9393 25.7226C23.9393 25.7226 23.9393 25.7226 23.9393 25.7005C23.9393 25.3903 24.0943 25.1023 24.338 24.9473H20.0625H21.0594C20.7714 25.0802 20.5942 25.3682 20.5942 25.7005Z" fill="#FF7020"/>
<path d="M25.623 25.7008C25.623 26.0331 25.756 26.2989 25.9775 26.4761H29.2561C29.0789 26.2768 28.9682 26.0109 28.9682 25.7229C28.9682 25.4349 29.0789 25.1691 29.2561 24.9697H25.9775C25.756 25.1248 25.623 25.3906 25.623 25.7008Z" fill="#FF7020"/>
<path d="M23.9385 25.7005C23.9385 26.0328 24.0935 26.3208 24.3372 26.4758H25.9766C25.755 26.2986 25.6221 26.0328 25.6221 25.7226C25.6221 25.7226 25.6221 25.7226 25.6221 25.7005C25.6221 25.3903 25.7772 25.1245 25.9766 24.9473H24.3372C24.0935 25.1023 23.9385 25.3903 23.9385 25.7005Z" fill="white"/>
<path d="M20.5938 25.7005C20.5938 25.346 20.7932 25.058 21.059 24.9473H20.0621H19.3975C19.1095 25.058 18.9102 25.346 18.9102 25.7005V25.7226C18.9102 26.0771 19.1095 26.3651 19.3975 26.4758H21.0368C20.771 26.3429 20.5938 26.0549 20.5938 25.7005Z" fill="white"/>
<path d="M15.5433 25.7229C15.5433 25.7008 15.5433 25.7008 15.5433 25.7229C15.5433 25.3463 15.787 25.0362 16.0971 24.9697H14.4578C14.1255 25.0362 13.8818 25.3463 13.8818 25.7229V25.7451C13.8818 26.1217 14.1255 26.4318 14.4578 26.4983H16.0971C15.787 26.3875 15.5433 26.0774 15.5433 25.7229Z" fill="white"/>
<path d="M10.5147 25.7229C10.5147 25.7229 10.5147 25.7008 10.5147 25.7229C10.5147 25.3242 10.8027 24.9919 11.1571 24.9697H9.5178C9.1412 24.9919 8.83105 25.3242 8.83105 25.7229V25.7451C8.83105 26.1438 9.1412 26.4761 9.5178 26.4983H11.1571C10.8027 26.4318 10.5147 26.0995 10.5147 25.7229Z" fill="white"/>
<path d="M30.0973 24.9473C29.765 24.9473 29.477 25.1688 29.3662 25.4789H30.2523C30.4517 25.4789 30.6511 25.5011 30.8283 25.5454C30.784 25.2131 30.4739 24.9473 30.0973 24.9473Z" fill="#FF7020"/>
<path d="M30.0973 26.476C30.4074 26.476 30.6732 26.2988 30.784 26.0329C30.6289 25.9886 30.4517 25.9443 30.2523 25.9443H29.3662C29.477 26.2323 29.765 26.476 30.0973 26.476Z" fill="#FF7020"/>
<path d="M14.8564 57.113H18.1793C17.9799 57.113 17.8027 56.9801 17.7362 56.7807L9.71686 26.7412H9.34026H6.34961L7.87817 32.4567L13.1284 52.1729L13.35 53.0147L14.1918 56.1382L14.3025 56.5813L14.3468 56.7142C14.4133 56.9579 14.6127 57.113 14.8564 57.113Z" fill="#FF7020"/>
<path d="M22.8095 56.7807L14.7901 26.7412H11.4229L19.4422 56.7807C19.4865 56.9801 19.6638 57.113 19.8853 57.113H23.2526H23.2747C23.0532 57.113 22.8759 56.9801 22.8095 56.7807Z" fill="#FF7020"/>
<path d="M24.5145 56.7807C24.5588 56.9801 24.736 57.113 24.9576 57.113H28.347C28.1476 57.113 27.9704 56.9801 27.9039 56.7807L19.8624 26.7412H16.4951L24.5145 56.7807Z" fill="#FF7020"/>
<path d="M32.9549 56.7807C32.9992 56.9801 33.1765 57.113 33.398 57.113H34.2177C34.2398 57.113 34.2398 57.113 34.2398 57.113H35.8791H35.857H35.0816C34.8822 57.113 34.705 56.9801 34.6386 56.7807L26.6192 26.7412H24.9355L32.9549 56.7807Z" fill="white"/>
<path d="M27.8827 56.7807C27.927 56.9801 28.1042 57.113 28.3257 57.113H30.0094C29.81 57.113 29.6328 56.9801 29.5663 56.7807L21.5469 26.7412H19.8633L27.8827 56.7807Z" fill="white"/>
<path d="M24.5145 56.7807L16.4952 26.7412H14.8115L22.8309 56.7807C22.8752 56.9801 23.0524 57.113 23.274 57.113H24.6031H24.9354C24.7361 57.113 24.5588 56.9801 24.5145 56.7807Z" fill="white"/>
<path d="M17.7365 56.7807C17.7808 56.9801 17.958 57.113 18.1795 57.113H19.8632C19.6638 57.113 19.4866 56.9801 19.4201 56.7807L11.4229 26.7412H9.73926L17.7365 56.7807Z" fill="white"/>
<path d="M42.0375 46.8789H40.2653C39.6007 46.8789 39.0469 47.4327 39.0469 48.0973V49.3157H40.8191V48.0973C40.797 47.4327 41.3508 46.8789 42.0375 46.8789Z" fill="#010101"/>
<path d="M53.8238 49.3382V48.1198C53.8238 47.4552 53.27 46.9014 52.6054 46.9014H50.8332H42.0163C41.3517 46.9014 40.7979 47.4552 40.7979 48.1198V49.3382H41.9055H42.3707H48.1305H48.6179H50.811H53.8238Z" fill="#FF7020"/>
</g>
<defs>
<clipPath id="clip0">
<rect width="71.1111" height="71.9751" fill="white" transform="translate(4.44434 4.0127)"/>
</clipPath>
</defs>
</svg>
