<svg width="80" height="80" viewBox="0 0 80 80" fill="none" xmlns="http://www.w3.org/2000/svg">
<rect width="80" height="80" rx="8" fill="white"/>
<circle cx="39.998" cy="40" r="32" fill="#FFEADE"/>
<circle cx="40" cy="40" r="32" fill="#FFEADE"/>
<g clip-path="url(#clip0)">
<path d="M28.4018 80.0629L27.5664 80.0784C27.2025 80.0863 26.9092 79.8006 26.9221 79.4325L26.9085 76.9843L28.389 76.9696L28.4018 80.0629Z" fill="#010101"/>
<path d="M29.046 80.0642L29.8813 80.0486C30.2452 80.0408 30.5309 79.7475 30.5272 79.4043L30.5137 76.9561L29.0332 76.9708L29.046 80.0642Z" fill="#010101"/>
<path d="M30.4149 77.7673L27.0238 77.7963C26.8294 77.7919 26.7014 77.6883 26.6933 77.5395L26.6763 74.533L30.7331 74.5007L30.7501 77.5072C30.7582 77.656 30.6092 77.7716 30.4149 77.7673Z" fill="white" stroke="#010101" stroke-width="0.948909" stroke-miterlimit="10"/>
<path d="M48.9633 80.0629L48.1279 80.0784C47.764 80.0863 47.4708 79.8006 47.4836 79.4325L47.4701 76.9843L48.9505 76.9696L48.9633 80.0629Z" fill="#010101"/>
<path d="M49.6075 80.0642L50.4429 80.0486C50.8068 80.0408 51.0925 79.7475 51.0887 79.4043L51.0752 76.9561L49.5947 76.9708L49.6075 80.0642Z" fill="#010101"/>
<path d="M50.9764 77.7673L47.5853 77.7963C47.391 77.7919 47.2629 77.6883 47.2548 77.5395L47.2378 74.533L51.2946 74.5007L51.3117 77.5072C51.3198 77.656 51.1707 77.7717 50.9764 77.7673Z" fill="white" stroke="#010101" stroke-width="0.948909" stroke-miterlimit="10"/>
<path d="M31.0127 38.0262L30.8509 15.2478L47.0828 15.1398L47.2239 37.9224" stroke="#010101" stroke-miterlimit="10" stroke-linecap="round" stroke-linejoin="round"/>
<path d="M31.8721 38.0262L31.7309 15.2437L46.2218 15.1377L46.367 37.9409" stroke="#010101" stroke-miterlimit="10" stroke-linecap="round" stroke-linejoin="round"/>
<path d="M58.8542 34.0785L59.0916 69.1394C59.1244 72.6587 56.2757 75.5252 52.7563 75.558L27.2485 75.7247C23.7292 75.7575 20.8627 72.9087 20.8299 69.3894L20.6131 34.3244C20.5803 30.8051 23.4291 27.9386 26.9484 27.9058L52.4355 27.7433C55.9549 27.7104 58.8213 30.5592 58.8542 34.0785Z" fill="#FF7020"/>
<path d="M47.5863 16.1793L30.366 16.2902L30.3523 14.057C30.3454 12.9404 31.2398 12.0317 32.3564 12.0249L45.5404 11.9421C46.657 11.9352 47.5657 12.8296 47.5726 13.9462L47.5863 16.1793Z" fill="#010101"/>
<path d="M26.4487 67.6785C26.1716 67.6905 25.9321 67.4586 25.9407 67.1774L25.7386 36.6243C25.7265 36.3472 25.9584 36.1076 26.2396 36.1163C26.5167 36.1042 26.7562 36.3361 26.7476 36.6173L26.9497 67.1704C26.9618 67.4475 26.7299 67.6871 26.4487 67.6785Z" stroke="white" stroke-miterlimit="10"/>
<path d="M47.9165 67.4138C47.6394 67.4259 47.3998 67.194 47.4085 66.9128L47.2064 36.3597C47.1943 36.0826 47.4262 35.843 47.7074 35.8516C47.9845 35.8396 48.224 36.0714 48.2154 36.3526L48.4175 66.9058C48.4296 67.1829 48.1977 67.4224 47.9165 67.4138Z" stroke="white" stroke-miterlimit="10"/>
<path d="M53.2998 67.3543C53.0227 67.3663 52.7831 67.1345 52.7918 66.8533L52.5897 36.3001C52.5776 36.023 52.8095 35.7834 53.0907 35.792C53.3678 35.78 53.6073 36.0119 53.5987 36.2931L53.8008 66.8462C53.7922 67.1274 53.5769 67.3422 53.2998 67.3543Z" stroke="white" stroke-miterlimit="10"/>
<path d="M42.5566 67.4881C42.2795 67.5001 42.04 67.2682 42.0486 66.987L41.8465 36.4339C41.8344 36.1568 42.0663 35.9172 42.3475 35.9258C42.6246 35.9138 42.8642 36.1457 42.8555 36.4269L43.0576 66.98C43.0697 67.2571 42.8337 67.476 42.5566 67.4881Z" stroke="white" stroke-miterlimit="10"/>
<path d="M31.8125 67.6228C31.5354 67.6349 31.2958 67.403 31.3045 67.1218L31.1024 36.5686C31.0903 36.2916 31.3222 36.052 31.6034 36.0606C31.8805 36.0485 32.12 36.2804 32.1114 36.5616L32.3135 67.1148C32.3256 67.3919 32.0896 67.6107 31.8125 67.6228Z" stroke="white" stroke-miterlimit="10"/>
<path d="M37.1929 67.5418C36.9158 67.5538 36.6762 67.3219 36.6848 67.0407L36.4621 36.4917C36.45 36.2146 36.6819 35.975 36.9631 35.9837C37.2401 35.9716 37.4797 36.2035 37.4711 36.4847L37.6939 67.0337C37.6852 67.3149 37.474 67.5504 37.1929 67.5418Z" stroke="white" stroke-miterlimit="10"/>
<path d="M16.6211 79.8945H68.6424" stroke="#010101" stroke-miterlimit="10"/>
</g>
<defs>
<clipPath id="clip0">
<rect width="52.7172" height="66.4658" fill="white" transform="translate(10.9258 13.5352)"/>
</clipPath>
</defs>
</svg>
