<svg xmlns="http://www.w3.org/2000/svg" xmlns:xlink="http://www.w3.org/1999/xlink" width="80.5" height="616" viewBox="0 0 80.5 616"><svg id="apple-store-pt" width="72.9" height="28" viewBox="-2 -2 72.9 28" y="0"><style>.st0AP{fill:#a6a6a6}.st1AP{fill:#fff}</style><path class="st0AP" d="M62.7.8H5.1c-.4 0-.8 0-1.1.1-.4 0-.8.2-1.1.3-.3.2-.6.4-.9.7-.3.3-.5.6-.7.9-.1.3-.3.7-.3 1.1-.1.3-.1.7-.1 1.1v14c0 .4 0 .8.1 1.1.1.4.2.7.4 1.1.2.3.4.6.7.9.3.3.6.5.9.7.3.2.7.3 1.1.4.4.1.7.1 1.1.1h58.7c.4 0 .8 0 1.1-.1.4-.1.7-.2 1.1-.4.3-.2.6-.4.9-.7.3-.3.5-.6.7-.9.2-.3.3-.7.3-1.1.1-.4.1-.7.1-1.1v-.5V6.1v-.6V5c0-.4 0-.8-.1-1.1-.1-.4-.2-.7-.3-1.1-.3-.7-.9-1.2-1.6-1.6-.3-.2-.7-.3-1.1-.4-.4-.1-.7-.1-1.1-.1h-.5c-.3.1-.5.1-.7.1z"></path><path d="M5.6 22.7h-.5c-.4 0-.7 0-1-.1l-.9-.3c-.3-.1-.6-.3-.8-.6-.2-.2-.4-.5-.6-.8-.1-.3-.3-.6-.3-.9-.1-.3-.1-.7-.1-1.1V5.4v-.5c0-.4 0-.7.1-1.1 0-.2.1-.5.3-.8.1-.3.3-.6.6-.8.2-.2.4-.4.7-.5.3-.1.6-.3.9-.3.3-.1.7-.1 1.1-.1h58.7c.3 0 .7 0 1 .1l.9.3c.7.3 1.2.7 1.5 1.3l.3.9c.1.4.1.7.1 1.1v14c0 .3 0 .7-.1 1l-.3.9c-.1.3-.3.6-.6.8-.2.2-.5.4-.8.6-.3.1-.6.3-.9.3-.3.1-.7.1-1 .1H5.6z"></path><path class="st1AP" d="M14.8 12.2c0-.5.1-.9.4-1.3.2-.4.6-.8 1-1-.3-.4-.6-.7-1-.9-.4-.2-.8-.3-1.3-.3-.9-.1-1.9.6-2.3.6-.5 0-1.2-.6-2-.5-.6-.1-1.1 0-1.6.3-.4.3-.8.6-1 1.1-1.1 1.9-.3 4.6.8 6.2.5.7 1.1 1.6 1.9 1.5.8 0 1.1-.5 2-.5.9 0 1.2.5 2 .5s1.4-.7 1.9-1.5c.4-.5.7-1.1.9-1.7-.5-.2-.9-.5-1.2-1-.4-.5-.5-1-.5-1.5zM13.2 7.6c.5-.5.7-1.3.6-2-.7.1-1.3.4-1.8.9-.2.3-.4.6-.5.9-.1.3-.2.7-.1 1 .3 0 .7-.1 1-.2.3-.1.6-.3.8-.6zM24.6 16H22l-.6 1.9h-1.1l2.5-7H24l2.5 7h-1.1l-.8-1.9zm-2.4-.9h2.1l-1-3.1-1.1 3.1zM31.8 15.4c0 1.6-.8 2.6-2.1 2.6-.3 0-.6-.1-.9-.2-.3-.2-.5-.4-.7-.7v2.5h-1v-6.8h1v.8c.2-.3.4-.5.7-.7.3-.2.6-.2.9-.2 1.3.1 2.1 1.1 2.1 2.7zm-1 0c0-1-.5-1.7-1.3-1.7s-1.3.7-1.3 1.7.5 1.7 1.3 1.7c.7 0 1.3-.7 1.3-1.7zM37.4 15.4c0 1.6-.8 2.6-2.1 2.6-.3 0-.6-.1-.9-.2-.3-.2-.5-.4-.7-.7v2.5h-1v-6.8h1v.8c.2-.3.4-.5.7-.7.3-.2.6-.2.9-.2 1.3.1 2.1 1.1 2.1 2.7zm-1 0c0-1-.5-1.7-1.3-1.7s-1.3.7-1.3 1.7.5 1.7 1.3 1.7c.7 0 1.3-.7 1.3-1.7zM41.1 16c.1.7.7 1.1 1.7 1.1.9 0 1.5-.5 1.5-1.1 0-.5-.4-.9-1.3-1.1l-.9-.2c-1.3-.3-1.9-.9-1.9-1.9 0-1.2 1-2 2.5-2s2.5.8 2.5 2h-1.1c-.1-.7-.6-1.1-1.5-1.1-.8 0-1.4.4-1.4 1 0 .5.4.8 1.3 1l.8.2c1.4.3 2 .9 2 1.9 0 1.3-1 2.1-2.7 2.1-1.5 0-2.6-.8-2.7-2.1l1.2.2zM47.7 11.6v1.2h1v.8h-1v2.8c0 .4.2.6.6.6h.3v.8c-.2 0-.4.1-.6 0-1 0-1.4-.4-1.4-1.4v-2.9h-.7v-.8h.7v-1.2h1.1zM49.2 15.4c0-1.6.9-2.6 2.4-2.6s2.4 1 2.4 2.6-.9 2.6-2.4 2.6-2.4-1-2.4-2.6zm3.8 0c0-1.1-.5-1.7-1.3-1.7s-1.3.7-1.3 1.7c0 1.1.5 1.7 1.3 1.7s1.3-.6 1.3-1.7zM54.9 12.8h1v.9c.1-.3.2-.5.4-.7.2-.2.5-.3.8-.2h.4v1c-.2 0-.3-.1-.5-.1s-.3 0-.4.1c-.1.1-.3.1-.4.3-.1.1-.2.2-.2.4 0 .1-.1.3 0 .4v3h-1l-.1-5.1zM62.3 16.4c-.1.9-1 1.6-2.2 1.6-1.5 0-2.4-1-2.4-2.6s.9-2.6 2.4-2.6c1.4 0 2.3 1 2.3 2.5v.4h-3.6v.1c0 .2 0 .4.1.6.1.2.2.3.3.5.1.1.3.2.5.3.2.1.4.1.5.1.2 0 .5 0 .7-.2.2-.1.4-.3.5-.6l.9-.1zm-3.5-1.5h2.5c0-.2 0-.3-.1-.5s-.1-.3-.3-.4c-.1-.1-.3-.2-.4-.3-.2-.1-.3-.1-.5-.1s-.3 0-.5.1-.3.2-.4.3c-.1.1-.2.3-.3.4v.5zM20.9 9V5.7h1.3c.6 0 1 .3 1 .8 0 .2-.1.3-.2.5-.1.1-.3.2-.4.3.2 0 .4.1.5.2.1.2.2.3.2.6.1.6-.3.9-1 .9h-1.4zm.5-1.9h.6c.5 0 .7-.2.7-.5s-.2-.5-.6-.5h-.7v1zm.8 1.5c.5 0 .7-.2.7-.5 0-.4-.3-.5-.7-.5h-.7v1.1h.7zM24 8.3c0-.5.3-.7.9-.8h.7v-.2c0-.3-.2-.4-.5-.4s-.5.1-.5.3h-.5c.1-.4.5-.7 1-.7.6 0 1 .3 1 .8V9h-.5v-.3l-.3.3c-.2 0-.3.1-.5.1h-.3c-.1 0-.2-.1-.3-.2-.1-.1-.1-.2-.2-.3s0-.2 0-.3zm1.6-.2v-.2H25c-.3 0-.5.1-.5.4 0 .2.2.4.5.4h.2c.1 0 .1-.1.2-.1.1-.1.1-.1.1-.2.1-.2.1-.2.1-.3zM26.8 5.7v-.2c0-.1.1-.1.1-.1h.2c.1 0 .1 0 .2.1 0 0 .1.1.1.2v.2c0 .1-.1.1-.1.1h-.2-.1s-.1 0-.1-.1l-.1-.1v-.1zm.1.8h.5V9h-.5V6.5zM29.1 8.1l-.6.9H28l.8-1.3-.8-1.2h.6l.5.9.5-.9h.6l-.8 1.2.8 1.3h-.6l-.5-.9zM30.7 8.3c0-.5.3-.7.9-.8h.7v-.2c0-.3-.2-.4-.5-.4s-.5.1-.5.3h-.5c.1-.4.5-.7 1-.7.6 0 1 .3 1 .8V9h-.5v-.3L32 9c-.1.1-.3.1-.4.1h-.3c-.1 0-.2-.1-.3-.2-.1-.1-.1-.2-.2-.3-.1-.1-.1-.2-.1-.3zm1.6-.2v-.2h-.6c-.3 0-.5.1-.5.4 0 .2.2.4.5.4h.2c.1 0 .1-.1.2-.1.1-.1.1-.1.1-.2.1-.2.1-.2.1-.3zM33.6 6.5h.5v.4c.1-.1.1-.2.3-.3s.3-.1.4-.1h.2V7h-.5c-.1 0-.1.1-.2.1-.1.1-.1.1-.1.2V9h-.5l-.1-2.5zM36.9 6.5h.5v.4c.1-.1.2-.3.3-.3s.3-.1.4-.1c.1 0 .2 0 .4.1s.2.1.3.2c.2 0 .2.1.3.2v2h-.5V7.5c0-.4-.2-.6-.5-.6h-.2c-.1 0-.1.1-.2.1-.1.1-.1.1-.1.2V9h-.5l-.2-2.5zM39.7 8.3c0-.5.3-.7.9-.8h.7v-.2c0-.3-.2-.4-.5-.4s-.5.1-.5.3h-.5c.1-.4.5-.7 1-.7.6 0 1 .3 1 .8V9h-.5v-.3L41 9c-.1.1-.3.1-.4.1h-.3c-.1 0-.3-.2-.3-.2-.1-.1-.1-.2-.2-.3-.1-.1-.1-.2-.1-.3zm1.6-.2v-.2h-.6c-.3 0-.5.1-.5.4 0 .2.2.4.5.4h.2c.1 0 .1-.1.2-.1.1-.1.1-.1.1-.2.1-.2.1-.2.1-.3z"></path></svg><svg width="28" height="28" viewBox="-2 -2 28 28" id="arrow-black" y="28"><path fill-rule="evenodd" clip-rule="evenodd" fill="#333" d="M1.7 17.8c-.9-.9-.9-2.2 0-2.9l8.8-8.8c.9-.9 2.2-.9 2.9 0l8.9 8.9c.9.9.9 2.2 0 2.9-.9.9-2.2.9-2.9 0l-7.3-7.5-7.3 7.3c-1 1-2.3 1-3.1.1z"></path></svg><svg width="28" height="28" viewBox="-2 -2 28 28" id="arrow-orange" y="56"><path fill-rule="evenodd" clip-rule="evenodd" fill="#FF7020" d="M22.3 18.2c-.7.7-1.8.7-2.6 0L12 10.4l-7.8 7.8c-.7.7-1.8.7-2.6 0-.7-.7-.7-1.8 0-2.6L12 5.3l10.4 10.4c.7.7.7 1.8-.1 2.5z"></path></svg><svg width="28" height="28" viewBox="-2 -2 28 28" id="chat-black" y="84"><path fill-rule="evenodd" clip-rule="evenodd" fill="#1E1E1E" d="M17.6 3.2v7.7c0 1.2-1 2.2-2.2 2.2h-10L1 17.4V3.2C1 2 2 1 3.2 1h12.1c1.2 0 2.3 1 2.3 2.2zm2.1 2.2h1.1c1.2 0 2.2 1 2.2 2.2V23l-4.4-4.4h-11c-1.2 0-2.2-1-2.2-2.2v-1.1h13.3c.6 0 1.1-.5 1.1-1.1l-.1-8.8z"></path></svg><svg width="28" height="28" viewBox="-2 -2 28 28" id="close-black" y="112"><path d="M22.5 1.5c-.3-.3-.7-.4-1.2-.4s-.8.1-1.1.4L12 9.7 3.8 1.5c-.2-.3-.7-.4-1.1-.4s-.9.1-1.2.4c-.7.7-.7 1.7 0 2.3L9.7 12l-8.2 8.2c-.7.7-.7 1.7 0 2.3.7.7 1.7.7 2.3 0l8.2-8.2 8.2 8.2c.7.7 1.7.7 2.3 0 .7-.7.7-1.7 0-2.3L14.3 12l8.2-8.2c.5-.6.5-1.8 0-2.3z"></path></svg><svg width="28" height="28" viewBox="-2 -2 28 28" id="facebook-black" y="140"><path d="M23 12.1c0-6.1-4.9-11-11-11S1 6 1 12.1c0 5.5 4 10 9.3 10.8v-7.6H7.5v-3.2h2.8V9.6c0-2.7 1.6-4.3 4.2-4.3 1.2 0 2.5.2 2.5.2v2.7h-1.4c-1.4 0-1.8.8-1.8 1.7v2h3.1l-.5 3.2h-2.5v7.7c5.1-.7 9.1-5.2 9.1-10.7z"></path></svg><svg width="28" height="28" viewBox="-2 -2 28 28" id="flag-argentina" y="168"><path fill-rule="evenodd" clip-rule="evenodd" fill="#D8D8D8" d="M12 22.6c5.9 0 10.6-4.7 10.6-10.6S17.9 1.4 12 1.4 1.4 6.1 1.4 12 6.1 22.6 12 22.6z"></path><defs><filter id="a" filterUnits="userSpaceOnUse" x="-2.9" y="1.4" width="29.7" height="21.3"><feColorMatrix values="1 0 0 0 0 0 1 0 0 0 0 0 1 0 0 0 0 0 1 0"></feColorMatrix></filter></defs><mask maskUnits="userSpaceOnUse" x="-2.9" y="1.4" width="29.7" height="21.3" id="b"><path fill-rule="evenodd" clip-rule="evenodd" fill="#FFF" filter="url(#a)" d="M12 22.6c5.9 0 10.6-4.7 10.6-10.6S17.9 1.4 12 1.4 1.4 6.1 1.4 12 6.1 22.6 12 22.6z"></path></mask><g mask="url(#b)"><path fill="#FFF" stroke="#F5F5F5" stroke-width=".353" d="M-1.4 1.6h26.8c.7 0 1.3.6 1.3 1.3v18.4c0 .7-.6 1.3-1.3 1.3H-1.4c-.7 0-1.3-.6-1.3-1.3V2.8c0-.7.6-1.2 1.3-1.2z"></path><defs><filter id="c" filterUnits="userSpaceOnUse" x="-2.8" y="1.4" width="29.7" height="21.2"><feColorMatrix values="1 0 0 0 0 0 1 0 0 0 0 0 1 0 0 0 0 0 1 0"></feColorMatrix></filter></defs><mask maskUnits="userSpaceOnUse" x="-2.8" y="1.4" width="29.7" height="21.2" id="d"><path fill="#FFF" filter="url(#c)" stroke="#FFF" stroke-width=".353" d="M-1.4 1.6h26.8c.7 0 1.3.6 1.3 1.3v18.4c0 .7-.6 1.3-1.3 1.3H-1.4c-.7 0-1.3-.6-1.3-1.3V2.8c0-.7.6-1.2 1.3-1.2z"></path></mask><g mask="url(#d)"><path fill-rule="evenodd" clip-rule="evenodd" fill="#88BBE8" d="M-2.8 8.5h29.7V1.4H-2.8v7.1zM-2.8 22.6h29.7v-7.1H-2.8v7.1z"></path><path fill="#F4B32E" stroke="#DB7A2C" stroke-width=".471" d="M12 14.3c1.3 0 2.3-1.1 2.3-2.3s-1-2.3-2.3-2.3-2.3 1-2.3 2.3 1 2.3 2.3 2.3z"></path></g></g><path fill="none" stroke="#CCC" stroke-width=".706" d="M12 22.6c5.9 0 10.6-4.7 10.6-10.6S17.9 1.4 12 1.4 1.4 6.1 1.4 12 6.1 22.6 12 22.6z"></path></svg><svg width="28" height="28" viewBox="-2 -2 28 28" id="flag-brasil" y="196"><path fill-rule="evenodd" clip-rule="evenodd" fill="#D8D8D8" d="M12 22.7c5.9 0 10.7-4.8 10.7-10.7S17.9 1.3 12 1.3 1.3 6.1 1.3 12 6.1 22.7 12 22.7z"></path><defs><filter id="a" filterUnits="userSpaceOnUse" x="-2.9" y="1.3" width="29.8" height="21.3"><feColorMatrix values="1 0 0 0 0 0 1 0 0 0 0 0 1 0 0 0 0 0 1 0"></feColorMatrix></filter></defs><mask maskUnits="userSpaceOnUse" x="-2.9" y="1.3" width="29.8" height="21.3" id="b"><path fill-rule="evenodd" clip-rule="evenodd" fill="#FFF" filter="url(#a)" d="M12 22.7c5.9 0 10.7-4.8 10.7-10.7S17.9 1.3 12 1.3 1.3 6.1 1.3 12 6.1 22.7 12 22.7z"></path></mask><g mask="url(#b)"><path fill="#FFF" d="M-1.5 1.3h27c.8 0 1.4.6 1.4 1.4v18.5c0 .8-.6 1.4-1.4 1.4h-27c-.8 0-1.4-.6-1.4-1.4V2.8c0-.8.6-1.5 1.4-1.5z"></path><defs><filter id="c" filterUnits="userSpaceOnUse" x="-2.9" y="1.3" width="29.8" height="21.3"><feColorMatrix values="1 0 0 0 0 0 1 0 0 0 0 0 1 0 0 0 0 0 1 0"></feColorMatrix></filter></defs><mask maskUnits="userSpaceOnUse" x="-2.9" y="1.3" width="29.8" height="21.3" id="d"><path fill="#FFF" filter="url(#c)" d="M-1.5 1.3h27c.8 0 1.4.6 1.4 1.4v18.5c0 .8-.6 1.4-1.4 1.4h-27c-.8 0-1.4-.6-1.4-1.4V2.8c0-.8.6-1.5 1.4-1.5z"></path></mask><g mask="url(#d)"><path fill="#05AB41" d="M-2.9 1.3h29.8v21.3H-2.9z"></path><path fill-rule="evenodd" clip-rule="evenodd" fill="#FDD216" d="M.6 12.4c-.3-.2-.3-.6 0-.8l11.2-7.3c.1-.1.4-.1.5 0l11.2 7.2c.3.2.3.6 0 .8l-11.2 7.3c-.1.1-.4.1-.5 0L.6 12.4z"></path><path fill-rule="evenodd" clip-rule="evenodd" fill="#053087" d="M12 17c2.8 0 5-2.2 5-5s-2.2-5-5-5-5 2.2-5 5 2.2 5 5 5z"></path><defs><filter id="e" filterUnits="userSpaceOnUse" x="5.8" y="10" width="12.4" height="4.7"><feColorMatrix values="1 0 0 0 0 0 1 0 0 0 0 0 1 0 0 0 0 0 1 0"></feColorMatrix></filter></defs><mask maskUnits="userSpaceOnUse" x="5.8" y="10" width="12.4" height="4.7" id="f"><path fill-rule="evenodd" clip-rule="evenodd" fill="#FFF" filter="url(#e)" d="M12 17c2.8 0 5-2.2 5-5s-2.2-5-5-5-5 2.2-5 5 2.2 5 5 5z"></path></mask><path fill="none" stroke="#FFF" stroke-width=".947" stroke-linecap="square" d="M6.5 10.7c.8-.6 3.3 0 5.7.6s4.8 1.9 5.4 2.7" mask="url(#f)"></path></g></g><path fill="none" stroke="#CCC" stroke-width=".711" d="M12 22.7c5.9 0 10.7-4.8 10.7-10.7S17.9 1.3 12 1.3 1.3 6.1 1.3 12 6.1 22.7 12 22.7z"></path></svg><svg id="google-play-pt" width="80.5" height="28" viewBox="-2 -2 80.5 28" y="224"><style>.st0GP{fill:#a6a6a6}.st1GP{fill:#fff}.st2GP{fill:url(#SVGID_1_)}.st3GP{fill:url(#SVGID_2_)}.st4GP{fill:url(#SVGID_3_)}.st5GP{fill:url(#SVGID_4_)}.st6GP,.st7GP{opacity:.2}.st7GP{enable-background:new}.st8GP,.st9GP{opacity:.12}.st9GP{enable-background:new}.stX,.stXI{opacity:.25}.stXI{fill:#fff;enable-background:new}.stXII,.stXIII{fill:none;stroke:#fff;stroke-width:.1476;stroke-miterlimit:10}.stXIII{fill:#fff}</style><path d="M73 23.1H3.8c-1.5 0-2.8-1.3-2.8-2.8V3.7C1 2.2 2.3.9 3.8.9H73c1.5 0 2.8 1.3 2.8 2.8v16.6c0 1.5-1.2 2.8-2.8 2.8z"></path><path class="st0GP" d="M73 .9H3.8C2.3.9 1 2.2 1 3.7v16.6c0 1.5 1.3 2.8 2.8 2.8H73c1.5 0 2.8-1.3 2.8-2.8V3.7c0-1.5-1.2-2.8-2.8-2.8zm0 .4c1.3 0 2.3 1.1 2.3 2.3v16.6c0 1.3-1.1 2.3-2.3 2.3H3.8c-1.3 0-2.3-1.1-2.3-2.3V3.7c.1-1.3 1.1-2.3 2.3-2.3H73z"></path><path class="st1GP" d="M60.3 17.5h1.1v-6.9h-1.1v6.9zm9.3-4.4l-1.2 3-1.2-3H66l1.8 4.2-1.1 2.3h1.1l2.8-6.5h-1zm-5.9 3.7c-.4 0-.8-.1-.8-.6 0-.6.6-.7 1.1-.7.4 0 .6.1.9.2 0 .6-.6 1.1-1.2 1.1zm.2-3.9c-.8 0-1.5.4-1.8 1.1l.9.4c.2-.4.6-.5.9-.5.6 0 1.1.4 1.1.9v.1c-.2-.1-.6-.3-1.1-.3-1 0-2 .6-2 1.6 0 .9.8 1.5 1.7 1.5.7 0 1.1-.3 1.3-.7v.6h1V15c0-1.4-.9-2.1-2-2.1zm-6.4 1H56v-2.3h1.5c.8 0 1.2.6 1.2 1.2 0 .5-.4 1.1-1.2 1.1zm0-3.2H55v6.9h1.1V15h1.4c1.1 0 2.3-.9 2.3-2.1-.1-1.5-1.2-2.2-2.3-2.2zM44 16.8c-.7 0-1.3-.6-1.3-1.4S43.3 14 44 14s1.3.6 1.3 1.4c-.1.7-.6 1.4-1.3 1.4zm1.1-3.3c-.3-.3-.7-.5-1.3-.5-1.2 0-2.3 1.1-2.3 2.3 0 1.3 1.1 2.3 2.3 2.3.6 0 1-.3 1.2-.6h.1v.4c0 .9-.5 1.3-1.3 1.3-.6 0-1-.4-1.2-.9l-.9.4c.3.6.9 1.4 2.1 1.4 1.2 0 2.3-.7 2.3-2.5v-4.2h-1v.6zm1.7 4h1.1v-6.9h-1.1v6.9zm2.6-2.2c0-.9.7-1.3 1.2-1.3.4 0 .8.2.9.5l-2.1.8zm3.2-.8c-.2-.5-.8-1.5-2-1.5s-2.2.9-2.2 2.3c0 1.3 1 2.3 2.3 2.3 1.1 0 1.7-.6 2-1.1l-.8-.5c-.3.4-.6.6-1.1.6-.5 0-.9-.2-1.1-.7l3.1-1.3-.2-.1zm-25.1-.8v1h2.4c-.1.6-.3 1-.6 1.3-.4.4-.9.7-1.8.7-1.5 0-2.6-1.2-2.6-2.6 0-1.5 1.1-2.6 2.6-2.6.8 0 1.3.3 1.8.7l.7-.7c-.6-.6-1.4-1-2.5-1-2 0-3.7 1.6-3.7 3.6s1.7 3.6 3.7 3.6c1.1 0 1.9-.4 2.6-1 .6-.6.9-1.6.9-2.3 0-.2 0-.4-.1-.6 0-.1-3.4-.1-3.4-.1zm6.2 3.1c-.7 0-1.3-.6-1.3-1.4S33 14 33.7 14s1.3.6 1.3 1.4c0 .8-.6 1.4-1.3 1.4zm0-3.8c-1.3 0-2.3 1-2.3 2.3s1.1 2.3 2.3 2.3 2.3-1 2.3-2.3-1-2.3-2.3-2.3zm5.1 3.8c-.7 0-1.3-.6-1.3-1.4s.6-1.4 1.3-1.4c.7 0 1.3.6 1.3 1.4 0 .8-.6 1.4-1.3 1.4zm0-3.8c-1.3 0-2.3 1-2.3 2.3s1.1 2.3 2.3 2.3 2.3-1 2.3-2.3c.1-1.3-1-2.3-2.3-2.3z"></path><linearGradient id="SVGID_1_" gradientUnits="userSpaceOnUse" x1="13.2" y1="-185.775" x2="3.914" y2="-195.061" gradientTransform="matrix(1 0 0 -1 0 -180)"><stop offset="0" stop-color="#00a0ff"></stop><stop offset=".007" stop-color="#00a1ff"></stop><stop offset=".26" stop-color="#00beff"></stop><stop offset=".512" stop-color="#00d2ff"></stop><stop offset=".76" stop-color="#00dfff"></stop><stop offset="1" stop-color="#00e3ff"></stop></linearGradient><path class="st2GP" d="M6.9 5.1c-.1.2-.3.4-.3.8v12.2c0 .4.1.6.3.8l.1.1 6.9-6.9v-.2l-7-6.8z"></path><linearGradient id="SVGID_2_" gradientUnits="userSpaceOnUse" x1="19.836" y1="-192" x2="6.448" y2="-192" gradientTransform="matrix(1 0 0 -1 0 -180)"><stop offset="0" stop-color="#ffe000"></stop><stop offset=".409" stop-color="#ffbd00"></stop><stop offset=".775" stop-color="orange"></stop><stop offset="1" stop-color="#ff9c00"></stop></linearGradient><path class="st3GP" d="M13.8 11.9v.1l2.3 2.3h.1l2.7-1.6c.8-.4.8-1.1 0-1.6l-2.7-1.6h-.1l-2.3 2.4z"></path><linearGradient id="SVGID_3_" gradientUnits="userSpaceOnUse" x1="14.842" y1="-193.26" x2="2.25" y2="-205.852" gradientTransform="matrix(1 0 0 -1 0 -180)"><stop offset="0" stop-color="#ff3a44"></stop><stop offset="1" stop-color="#c31162"></stop></linearGradient><path class="st4GP" d="M6.9 18.9c.3.3.7.3 1.1 0l8.1-4.6-2.3-2.3-6.9 6.9z"></path><linearGradient id="SVGID_4_" gradientUnits="userSpaceOnUse" x1="5.162" y1="-181.024" x2="10.784" y2="-186.647" gradientTransform="matrix(1 0 0 -1 0 -180)"><stop offset="0" stop-color="#32a071"></stop><stop offset=".069" stop-color="#2da771"></stop><stop offset=".476" stop-color="#15cf74"></stop><stop offset=".801" stop-color="#06e775"></stop><stop offset="1" stop-color="#00f076"></stop></linearGradient><path class="st5GP" d="M6.9 5.1l6.9 6.9 2.3-2.3L8 5c-.2 0-.4-.1-.6-.1-.2 0-.4.1-.5.2z"></path><path class="st6GP st6GP st7GP" d="M16.1 14.3l-8 4.5c-.4.3-.9.2-1.1 0l-.1.1v.1c.3.2.6.3 1.1 0l8.1-4.7z"></path><path class="st8GP st8GP st9GP" d="M6.9 18.8c-.1-.1-.3-.4-.3-.8v.1c0 .4.1.6.3.7zM18.8 12.7L16 14.3l.1.1 2.7-1.7c.4-.1.6-.4.6-.7 0 .3-.2.5-.6.7z"></path><path class="stX stX stXI" d="M8 5.2l10.8 6.1c.4.2.6.4.6.7 0-.3-.2-.6-.6-.8L8 5c-.7-.4-1.4 0-1.4.8v.1c0-.8.7-1.2 1.4-.7z"></path><path class="st1GP" d="M24.4 7.7h.6c.4 0 .7-.1.9-.4.2-.2.3-.5.3-.9s-.1-.7-.4-.9c-.2-.2-.5-.4-.9-.4h-.6l.1 2.6zm-.4.4V4.8h1c.5 0 .9.1 1.2.4.3.3.4.7.4 1.2s-.1.9-.4 1.2c-.3.4-.7.5-1.2.5h-1z"></path><path class="stXII" d="M24.4 7.7h.6c.4 0 .7-.1.9-.4.2-.2.3-.5.3-.9s-.1-.7-.4-.9c-.2-.2-.5-.4-.9-.4h-.6l.1 2.6zm-.4.4V4.8h1c.5 0 .9.1 1.2.4.3.3.4.7.4 1.2s-.1.9-.4 1.2c-.3.4-.7.5-1.2.5h-1z"></path><path class="stXIII" d="M27.3 4.8h.4v3.3h-.4V4.8z"></path><path class="st1GP" d="M29.4 8.2c-.2 0-.5-.1-.7-.2-.2-.1-.4-.4-.4-.6l.4-.1c.1.2.1.4.3.4.1.1.3.2.5.2s.4-.1.5-.1c.1-.1.2-.2.2-.4S30.1 7 30 7c-.1-.1-.4-.2-.6-.3-.3-.1-.5-.2-.6-.4-.2-.2-.3-.4-.3-.6 0-.2.1-.4.3-.6.2-.1.4-.3.7-.3.3 0 .5.1.7.2l.4.4-.4.1c0-.1-.1-.2-.2-.3s-.4-.2-.6-.2c-.1 0-.3.1-.4.1-.1.1-.1.2-.1.4 0 .1.1.2.1.3.1.1.3.2.5.2.1.1.3.1.4.1.1.1.2.1.4.2s.2.2.3.3c-.1.3-.1.4-.1.6s0 .3-.1.4c-.1.1-.1.2-.3.3-.1.1-.2.2-.3.2-.1.1-.2.1-.4.1z"></path><path class="stXII" d="M29.4 8.2c-.2 0-.5-.1-.7-.2-.2-.1-.4-.4-.4-.6l.4-.1c.1.2.1.4.3.4.1.1.3.2.5.2s.4-.1.5-.1c.1-.1.2-.2.2-.4S30.1 7 30 7c-.1-.1-.4-.2-.6-.3-.3-.1-.5-.2-.6-.4-.2-.2-.3-.4-.3-.6 0-.2.1-.4.3-.6.2-.1.4-.3.7-.3.3 0 .5.1.7.2l.4.4-.4.1c0-.1-.1-.2-.2-.3s-.4-.2-.6-.2c-.1 0-.3.1-.4.1-.1.1-.1.2-.1.4 0 .1.1.2.1.3.1.1.3.2.5.2.1.1.3.1.4.1.1.1.2.1.4.2s.2.2.3.3c-.1.3-.1.4-.1.6s0 .3-.1.4c-.1.1-.1.2-.3.3-.1.1-.2.2-.3.2-.1.1-.2.1-.4.1z"></path><path class="st1GP" d="M31.6 6.4h.7c.2 0 .4-.1.4-.2.1-.1.1-.3.1-.4s-.1-.3-.1-.4c-.1-.1-.3-.2-.4-.2h-.7v1.2zm0 1.7h-.4V4.8h1.1c.3 0 .5.1.7.3.2.2.3.4.3.7 0 .3-.1.5-.3.7-.2.2-.4.3-.7.3h-.7v1.3z"></path><path class="stXII" d="M31.6 6.4h.7c.2 0 .4-.1.4-.2.1-.1.1-.3.1-.4s-.1-.3-.1-.4c-.1-.1-.3-.2-.4-.2h-.7v1.2zm0 1.7h-.4V4.8h1.1c.3 0 .5.1.7.3.2.2.3.4.3.7 0 .3-.1.5-.3.7-.2.2-.4.3-.7.3h-.7v1.3z"></path><path class="st1GP" d="M34.5 7.5c.2.3.6.4.9.4s.6-.1.9-.4c.2-.3.4-.6.4-.9 0-.4-.1-.7-.4-.9-.2-.3-.6-.4-.9-.4s-.6.1-.9.4c-.3 0-.5.4-.5.8 0 .3.2.7.5 1zm2 .2c-.4.4-.7.5-1.2.5s-.9-.1-1.2-.5c-.4-.4-.5-.7-.5-1.2s.1-.9.5-1.2c.4-.4.7-.5 1.2-.5s.9.1 1.2.5c.4.3.5.7.5 1.2s-.1.9-.5 1.2z"></path><path class="stXII" d="M34.5 7.5c.2.3.6.4.9.4s.6-.1.9-.4c.2-.3.4-.6.4-.9 0-.4-.1-.7-.4-.9-.2-.3-.6-.4-.9-.4s-.6.1-.9.4c-.3 0-.5.4-.5.8 0 .3.2.7.5 1zm2 .2c-.4.4-.7.5-1.2.5s-.9-.1-1.2-.5c-.4-.4-.5-.7-.5-1.2s.1-.9.5-1.2c.4-.4.7-.5 1.2-.5s.9.1 1.2.5c.4.3.5.7.5 1.2s-.1.9-.5 1.2z"></path><path class="st1GP" d="M37.7 8.1V4.8h.5l1.6 2.6V4.8h.4v3.3h-.5L38 5.5v2.7l-.3-.1z"></path><path class="stXII" d="M37.7 8.1V4.8h.5l1.6 2.6V4.8h.4v3.3h-.5L38 5.5v2.7l-.3-.1z"></path><path class="st1GP" d="M41.4 4.5H41l.2-.5h.5l-.3.5zm-.5.3h.4v3.3h-.4V4.8z"></path><path class="stXII" d="M41.4 4.5H41l.2-.5h.5l-.3.5zm-.5.3h.4v3.3h-.4V4.8z"></path><path class="st1GP" d="M43 8.1l-1.1-3.3h.5l.9 2.7.9-2.7h.5l-1.2 3.3H43z"></path><path class="stXII" d="M43 8.1l-1.1-3.3h.5l.9 2.7.9-2.7h.5l-1.2 3.3H43z"></path><path class="st1GP" d="M47 5.2h-1.5v1.1h1.3v.4h-1.3v1.1H47v.4h-1.9V4.8H47v.4z"></path><path class="stXII" d="M47 5.2h-1.5v1.1h1.3v.4h-1.3v1.1H47v.4h-1.9V4.8H47v.4z"></path><path class="st1GP" d="M47.7 8.1V4.8h.4v2.9h1.4v.4h-1.8z"></path><path class="stXII" d="M47.7 8.1V4.8h.4v2.9h1.4v.4h-1.8z"></path><path class="st1GP" d="M51.2 8.1V4.8h.5l1.6 2.6V4.8h.4v3.3h-.4l-1.7-2.7v2.7h-.4z"></path><path class="stXII" d="M51.2 8.1V4.8h.5l1.6 2.6V4.8h.4v3.3h-.4l-1.7-2.7v2.7h-.4z"></path><path class="st1GP" d="M55.1 7.5c.2.3.6.4.9.4.4 0 .6-.1.9-.4.3-.2.4-.6.4-.9 0-.4-.1-.7-.4-.9-.2-.3-.6-.4-.9-.4-.4 0-.6.1-.9.4-.2.2-.4.6-.4.9.1.3.2.6.4.9zm2.2.2c-.4.4-.7.5-1.2.5s-.9-.1-1.2-.5c-.4-.4-.5-.7-.5-1.2s.1-.9.5-1.2c.4-.4.7-.5 1.2-.5s.9.1 1.2.5c.4.4.5.8.5 1.2 0 .5-.3.9-.5 1.2z"></path><path class="stXII" d="M55.1 7.5c.2.3.6.4.9.4.4 0 .6-.1.9-.4.3-.2.4-.6.4-.9 0-.4-.1-.7-.4-.9-.2-.3-.6-.4-.9-.4-.4 0-.6.1-.9.4-.2.2-.4.6-.4.9.1.3.2.6.4.9zm2.2.2c-.4.4-.7.5-1.2.5s-.9-.1-1.2-.5c-.4-.4-.5-.7-.5-1.2s.1-.9.5-1.2c.4-.4.7-.5 1.2-.5s.9.1 1.2.5c.4.4.5.8.5 1.2 0 .5-.3.9-.5 1.2z"></path></svg><svg width="28" height="28" viewBox="-2 -2 28 28" id="hamburger-black" y="252"><path fill-rule="evenodd" clip-rule="evenodd" fill="#333" d="M2.2 7.1C1.6 7.1 1 6.6 1 5.9s.5-1.2 1.2-1.2h19.5c.7 0 1.2.5 1.2 1.2s-.5 1.2-1.2 1.2H2.2zm0 6.1h19.5c.7 0 1.2-.5 1.2-1.2s-.5-1.2-1.2-1.2H2.2c-.6 0-1.2.5-1.2 1.2s.6 1.2 1.2 1.2zm0 6.1h19.5c.7 0 1.2-.5 1.2-1.2s-.5-1.2-1.2-1.2H2.2c-.7 0-1.2.5-1.2 1.2s.6 1.2 1.2 1.2z"></path></svg><svg width="28" height="28" viewBox="-2 -2 28 28" id="help-black" y="280"><path fill-rule="evenodd" clip-rule="evenodd" d="M12 1C6 1 1 6 1 12s5 11 11 11 11-5 11-11S18 1 12 1zm-1.1 18.7v-2.2H13v2.2h-2.1zm3.5-7.6l1-1c1.1-1.1 1.5-3.1.2-4.8-1-1.3-2.6-2.2-4.3-1.9-1.7.2-3 1.4-3.5 3-.1.6.3 1.2.9 1.2H9c.4 0 .7-.3.9-.7.4-1 1.5-1.7 2.7-1.4.7.2 1.4.9 1.5 1.6.1.7-.1 1.5-.6 1.9l-1.3 1.4c-.4.4-.8 1-1 1.6-.1.4-.2.9-.2 1.4v.5h2c0-.5.1-.9.1-1.3.3-.3.8-.9 1.3-1.5z"></path></svg><svg width="28" height="28" viewBox="-2 -2 28 28" id="instagram-black" y="308"><path fill-rule="evenodd" clip-rule="evenodd" d="M12 3c3 0 3.3 0 4.5.1 1.1.1 1.7.2 2.1.4.5.2.9.4 1.2.8.4.4.6.8.8 1.2.1.3.3 1 .3 2C21 8.7 21 9 21 12s0 3.3-.1 4.5c-.1 1.1-.2 1.7-.4 2.1-.2.5-.4.9-.8 1.2-.4.4-.8.6-1.2.8-.4.1-1 .3-2.1.4-1.2.1-1.5.1-4.5.1s-3.3 0-4.5-.1c-1.1-.1-1.7-.2-2.1-.4-.5-.2-.9-.4-1.2-.8-.4-.4-.6-.8-.8-1.2-.1-.4-.3-1-.3-2.1V12 7.5c0-1 .2-1.7.3-2 .3-.5.5-.9.9-1.2.4-.4.8-.6 1.2-.9.5-.2 1.1-.4 2.1-.4H12zm0-2H7.4c-1.2 0-2 .2-2.7.5-.7.3-1.3.7-1.9 1.3-.6.7-1 1.3-1.3 2S1 6.3 1 7.4V12c0 3 0 3.4.1 4.6s.2 2 .5 2.7c.3.8.7 1.3 1.2 1.9.6.6 1.2 1 1.9 1.2.7.3 1.5.5 2.7.5 1.2.1 1.6.1 4.6.1s3.4 0 4.6-.1c1.2-.1 2-.2 2.7-.5.8-.3 1.3-.7 1.9-1.2.6-.6 1-1.2 1.2-1.9.3-.7.5-1.5.5-2.7.1-1.2.1-1.6.1-4.6s0-3.4-.1-4.6c-.1-1.2-.2-2-.5-2.7-.3-.8-.7-1.3-1.2-1.9-.6-.6-1.2-1-1.9-1.2-.7-.3-1.5-.5-2.7-.5C15.4 1 15 1 12 1zm0 5.3c-3.1 0-5.7 2.6-5.7 5.7s2.6 5.7 5.7 5.7 5.7-2.6 5.7-5.7-2.6-5.7-5.7-5.7zm0 9.4c-2 0-3.7-1.7-3.7-3.7S10 8.3 12 8.3s3.7 1.7 3.7 3.7-1.7 3.7-3.7 3.7zm7.2-9.6c0 .8-.6 1.3-1.3 1.3-.7 0-1.3-.6-1.3-1.3 0-.8.6-1.3 1.3-1.3.7 0 1.3.6 1.3 1.3z"></path></svg><svg width="28" height="28" viewBox="-2 -2 28 28" id="linkedin-black" y="336"><path d="M21.4 1H2.7c-.8 0-1.5.8-1.6 1.6v18.8c0 .8.8 1.6 1.6 1.6h18.6c.8 0 1.6-.8 1.6-1.6V2.6c.1-.8-.6-1.6-1.5-1.6zM7.6 19.8H4.4V9.3h3.2v10.5zm-1.7-12c-1 0-1.8-.8-1.8-1.8S4.9 4.1 6 4.1s1.8.8 1.8 1.9S7 7.8 5.9 7.8zm13.9 12h-3.2v-5.1c0-1.2 0-2.8-1.6-2.8s-2 1.4-2 2.7v5.2H9.7V9.3h3.1v1.4c.6-1 1.8-1.8 3-1.6 3.4 0 3.8 2.2 3.8 5l.2 5.7z"></path></svg><svg id="logo-gol" width="59.3" height="28" viewBox="-2 -2 59.3 28" y="364"><style>.st0GOL{opacity:.99;fill:#d1d0cf;enable-background:new}.st1GOL{fill:#ff7020}</style><path class="st0GOL" d="M32.4 1c-.7 0-1.3 0-2 .2 5.1.9 8.8 5 8.8 10.3 0 3.8-3.1 7.2-6.9 7.2-.7 0-1.3-.1-2-.2-2.9-.9-4.9-3.4-4.9-6.5s2-5.7 4.9-6.5c-.7-.2-1.3-.2-2-.2-3.8 0-6.9 3.4-6.9 7.2 0 5.4 3.8 9.3 8.8 10.3.7.1 1.3.2 2 .2 4.6 0 8.6-2.9 10.2-7V8c-1.5-4.1-5.4-7-10-7z"></path><path class="st1GOL" d="M30.4 1.2c-.7-.1-1.3-.2-2-.2-5.2 0-9.6 3.6-10.6 8.6 0 .2-.2.2-.4.2H12c-.2 0-.4.2-.4.4v3.4c0 .2.2.4.4.4h4.6c.2 0 .4.2.4.4V16c0 .2 0 .4-.2.5-1.3 1.4-3.1 2.4-5.2 2.4-3.8 0-6.9-3.1-6.9-6.9s3.2-7 7-7c1.1 0 2 .2 2.9.7.2.1.4 0 .5-.1L17 2.8c.1-.2 0-.5-.1-.5-1.6-.9-3.2-1.2-5-1.2C5.8 1.1.9 5.9.9 12s4.9 10.9 10.8 10.9c3.2 0 6.1-1.3 8.1-3.6.1-.2.4-.2.6 0 2 2.3 4.9 3.6 8.1 3.6.7 0 1.3 0 2-.2-5.1-.9-8.8-5-8.8-10.3 0-3.8 3.1-7.2 6.9-7.2.7 0 1.3.1 2 .2 2.9.9 4.9 3.4 4.9 6.5s-2.1 5.7-4.9 6.5c.7.2 1.3.2 2 .2 3.8 0 6.9-3.4 6.9-7.2-.2-5.3-4.2-9.3-9.1-10.2zM54 18.4h-7c-.2 0-.4-.2-.4-.4V1.6c0-.2-.2-.4-.4-.4H43c-.2 0-.4.2-.4.4v20.1c0 .4.4.7.7.7h10.8c.2 0 .4-.2.4-.4v-3.4c-.1-.1-.3-.2-.5-.2z"></path></svg><svg width="28" height="28" viewBox="-2 -2 28 28" id="logout-orange" y="392"><path fill-rule="evenodd" clip-rule="evenodd" fill="#FF7020" d="M10.8 2.2c0-.7.5-1.2 1.2-1.2s1.2.6 1.2 1.2V12c0 .7-.6 1.2-1.2 1.2-.7 0-1.2-.6-1.2-1.2V2.2zm7.5 4c-.5-.5-.5-1.2 0-1.7s1.3-.5 1.8 0c1.9 2 3 4.6 3 7.5 0 6.2-5.1 11.2-11.4 11C5.7 22.8.9 17.6 1 11.7c.1-2.8 1.2-5.3 3-7.2.4-.5 1.2-.5 1.7 0s.5 1.2 0 1.7C4.3 7.7 3.5 9.7 3.5 12c0 4.7 3.9 8.6 8.7 8.5 4.7-.1 8.5-4.1 8.5-8.7-.2-2.2-1.1-4.1-2.4-5.6z"></path></svg><svg width="28" height="28" viewBox="-2 -2 28 28" id="phone-black" y="420"><path d="M20.9 16l-3.1-.4c-.8-.1-1.4.1-2 .7l-2.2 2.2c-3.4-1.8-6.3-4.6-8-8l2.3-2.3c.5-.5.8-1.2.7-2l-.5-3C8 1.9 6.9 1 5.7 1H3.5C2.1 1 .9 2.2 1 3.5 1.6 14 10 22.4 20.5 23c1.4.1 2.5-1.1 2.5-2.5v-2.1c.1-1.2-.8-2.3-2.1-2.4z"></path></svg><svg width="28" height="28" viewBox="-2 -2 28 28" id="profile-black" y="448"><path fill-rule="evenodd" clip-rule="evenodd" fill="#333" d="M7.1 6.5c0 2.7 2.3 5 4.9 5 2.7 0 4.9-2.2 4.9-4.9s-2.2-5-4.9-5c-2.6 0-4.9 2.3-4.9 4.9zm2.5 0C9.6 5.2 10.7 4 12 4s2.4 1.1 2.4 2.4S13.4 9 12 9c-1.3 0-2.4-1.1-2.4-2.5zm11.1 15c.1.4.6.7 1.1.7.1 0 .4 0 .4-.1.7-.3 1-1 .7-1.6-.3-.7-3.1-6.7-10.8-6.7-7.3 0-10.1 5.3-10.8 6.5-.1.1-.1.1-.1.3-.3.6.1 1.2.7 1.6.6.4 1.2 0 1.6-.6.3-.7 2.4-5.4 8.5-5.4s8.4 4.8 8.7 5.3z"></path></svg><svg id="smiles-orange" width="60.8" height="28" viewBox="-2 -2 60.8 28" y="476"><style>.st0Smiles{fill:#ff7020}</style><path class="st0Smiles" d="M29.6 3.7c.7 0 1.3-.6 1.3-1.3S30.4 1 29.6 1c-.7 0-1.3.6-1.3 1.3 0 .9.6 1.4 1.3 1.4zm5.2 11.7c.5 0 1-.1 1.3-.3.4-.1.6-.4.7-.6.1-.1.1-.3.1-.4s0-.2-.1-.4c-.1-.3-.4-.4-.6-.4h-.1c-.1 0-.2.1-.3.1-.1 0-.2.1-.4.1-.3 0-.4-.1-.6-.2 0 0-.2-.2-.3-.5-.1-.4-.1-1.1-.1-1.5V2c0-.4-.1-.6-.4-.8-.2-.1-.5-.2-.8-.2-.3 0-.6.1-.8.2-.2.1-.4.4-.4.7v10.5c0 .6.1 1.3.6 1.8.5.7 1.2 1.2 2.2 1.2zm5-8.7c.6-.9 1.3-1 1.6-1 .5 0 1 .4 1.1 1.1v.4c0 .6-.2 1-.5 1.3-.7.8-1.8 1.1-2.8 1.2v-.3c0-1 .1-2 .6-2.7zm-1.6 7.4c.8.8 1.9 1.3 3.3 1.3.8 0 1.4-.1 2-.4.3-.1.5-.2.6-.4.1-.1.3-.4.3-.6v-.1c-.1-.4-.4-.6-.7-.6-.1 0-.1 0-.2.1-.4.1-.8.2-1.3.2h-.4c-1-.1-1.6-.7-2-1.3-.2-.3-.3-.6-.4-.8 0-.1-.1-.2-.1-.3 1.4-.1 2.6-.2 3.7-.8.6-.4 1.3-.8 1.7-1.6.2-.5.4-1.1.4-1.6 0-.1 0-.3-.1-.4-.2-1.3-1.5-2.4-3.4-2.4-1.3 0-3.1.6-4.1 2.2-.4.6-.9 1.9-.9 3.5 0 .4 0 .8.1 1.2.2 1 .7 2 1.5 2.8zm-23.9.8c.2.1.5.2.8.2.3 0 .6-.1.8-.2.2-.1.4-.4.4-.7V8.4c0-.4.1-1.1.4-1.5.3-.5.6-.8 1.3-.8.3 0 .5.1.6.2.4.3.5.7.6 1 .1.4.1.7.1.9v6c0 .4.2.6.4.8.3.1.6.2.8.2.3 0 .6-.1.8-.2.3-.1.4-.4.4-.7V8.4c0-.4.1-1.1.4-1.5.3-.5.6-.8 1.3-.8.3 0 .5.1.6.2.2.2.4.6.4.9.1.4.1.7.1.9v6c0 .4.2.6.4.8.2.2.6.2.8.2s.6-.1.8-.2c.3-.1.4-.4.4-.7V8.7c0-1.4-.3-2.5-.8-3.2-.6-.8-1.3-1.2-2.3-1.2-.8 0-1.6.4-2 .9-.4.4-.6.7-.7 1-.2-.6-.5-1.1-.9-1.3-.4-.4-1.1-.6-1.7-.6-1.1 0-1.9.7-2.4 1.3v-.1c0-.4-.1-.6-.4-.8-.2-.1-.5-.2-.8-.2-.3 0-.6.1-.8.2-.2.1-.4.4-.4.7v8.7c.3.4.4.7.6.8zM30.5 4.8c-.2-.1-.5-.2-.8-.2-.3 0-.6.1-.8.2-.2.1-.4.4-.4.7v8.7c0 .4.1.6.4.8.2.1.5.2.8.2.3 0 .6-.1.8-.2.2-.1.4-.4.4-.7V5.6c-.1-.4-.2-.7-.4-.8zm25.4 4.4c0-.1-.1-.1-.1-.1s-.1 0-.1.1c0 0 0 .1-.1.1l-.4.4c-.3.3-.7.7-1.3 1.2-.4.4-.9.7-1.5 1.1 0-.1 0-.4-.1-.5-.1-.6-.5-1.1-.9-1.4-.6-.6-1.5-.9-2.1-1.3-.4-.2-.6-.4-.8-.6-.1-.2-.3-.5-.3-.8v-.1c0-.4.1-.6.4-.9.1-.1.6-.4 1.1-.4.7 0 1.3.4 1.7.4.4 0 .7-.2.8-.6v-.2c0-.4-.4-.8-.8-.9 0 0-.4-.1-1.3-.1-1.3 0-2.3.4-3 .8-.7.6-1.1 1.3-1.1 2.3 0 .3 0 .5.1.8.3 1.1 1.4 1.8 2.4 2.3.5.3 1 .6 1.4.8.4.3.6.6.7.9v.1c0 .3-.1.6-.4.8-.3.2-.7.4-1.3.4h-.1c-.6 0-1.2-.2-1.6-.4-.1-.1-.4-.1-.5-.1-.4 0-.7.3-.8.6v.1c0 .3.1.5.4.7.3.3.7.4 1.1.6-4.5 2.3-10.8 4.4-18.7 4.4-8 0-14.3-2.1-18.8-4.4.9-.2 1.7-.6 2.3-1.1.8-.7 1.2-1.7 1.2-2.8 0-.2 0-.5-.1-.7-.3-.7-.8-1.3-1.3-1.8-.9-.8-1.9-1.4-2.8-1.9-.5-.2-.9-.5-1.2-.8-.4-.5-.5-.8-.6-1.1v-.3c-.1-.5.1-.9.5-1.3s.9-.6 1.8-.6c.4 0 1 .1 1.6.3.2.1.4.1.5.1.4 0 .7-.2.8-.6.1-.1.1-.2.1-.4 0-.3-.1-.6-.4-.7-.2-.2-.5-.3-.8-.4-.5-.1-1.1-.2-1.8-.2-1.7 0-3 .5-3.9 1.3C5 3 4.6 4 4.6 4.9c0 .2 0 .4.1.6.3 1.3 1.4 2.3 2.5 3s2.3 1.3 2.8 1.9c.2.4.4.8.4 1.1 0 .4-.1.8-.4 1.1-.4.5-1.3.8-2.1.8-.6 0-1.1-.1-1.6-.4h-.2c-1.3-.8-2.3-1.6-3-2.3-.6-.5-1-.9-1.3-1.2-.2-.1-.3-.3-.4-.3-.1.1-.1 0-.1 0h-.1c-.1 0-.1.1-.1.1 0 .2-.1.5-.1.8v.1c0 .8.3 1.5 1.1 2.2.2.2 10.2 10.6 26.4 10.6s26.3-10.4 26.4-10.6c.8-.7 1.1-1.3 1.1-2.2v-.1c0-.4 0-.7-.1-.9z"></path></svg><svg width="28" height="28" viewBox="-2 -2 28 28" id="spotify-black" y="504"><path d="M12 1C6 1 1 6 1 12s5 11 11 11 11-5 11-11S18 1 12 1zm5 15.9c-.2.3-.6.4-1 .2-2.6-1.6-5.8-1.9-9.7-1-.3.1-.8-.1-.8-.5s.1-.8.5-.8c4.2-1 7.8-.5 10.7 1.2.5.1.5.5.3.9zm1.4-3c-.3.4-.8.5-1.2.3-3-1.8-7.5-2.3-10.9-1.3-.5.1-1-.1-1.1-.5-.1-.5.1-1 .5-1.1 4-1.2 8.9-.6 12.4 1.4.4.3.6.7.3 1.2zm.1-3.1C15 8.6 9.1 8.5 5.7 9.5c-.5.2-1.1-.1-1.3-.7-.1-.5.2-1.1.7-1.3C9 6.4 15.4 6.6 19.6 9c.5.3.6.9.3 1.4-.3.5-.9.6-1.4.4z"></path></svg><svg width="28" height="28" viewBox="-2 -2 28 28" id="twitter-black" y="532"><path fill-rule="evenodd" clip-rule="evenodd" d="M22.9 12c0 6.1-4.9 10.9-10.9 10.9S1.1 18.1 1.1 12 5.9 1.1 12 1.1 22.9 5.9 22.9 12zm-5.4-1.8c0 3.5-2.6 7.5-7.5 7.5-1.4 0-2.9-.4-4.1-1.2.2 0 .4.1.7.1 1.2 0 2.4-.4 3.3-1.2-1.2 0-2.1-.8-2.5-1.8.1 0 .3.1.5.1s.5 0 .8-.1c-1.2-.2-2.1-1.3-2.1-2.6.3.2.8.3 1.2.3-.9-.3-1.3-1.2-1.3-2.1 0-.5.1-1 .3-1.3 1.3 1.6 3.3 2.6 5.5 2.8-.1-.2-.1-.3-.1-.6 0-1.4 1.2-2.6 2.6-2.6.8 0 1.4.3 1.9.8.7-.1 1.3-.3 1.8-.7-.2.6-.6 1.2-1.2 1.4.5-.1 1-.2 1.5-.4-.3.5-.8 1-1.3 1.4v.2z"></path></svg><svg width="28" height="28" viewBox="-2 -2 28 28" id="world-orange" y="560"><path fill-rule="evenodd" clip-rule="evenodd" fill="#FF7020" d="M12 1C5.9 1 1 5.9 1 12s4.9 11 11 11 11-4.9 11-11S18.1 1 12 1zm-1.1 19.7c-4.3-.5-7.7-4.2-7.7-8.7 0-.7.1-1.3.2-2l5.3 5.3v1.1c0 1.2 1 2.2 2.2 2.2v2.1zm5.5-4.3c1 0 1.8.6 2.1 1.5 1.4-1.6 2.3-3.6 2.3-5.9 0-3.7-2.3-6.8-5.5-8.1v.5c0 1.2-1 2.2-2.2 2.2h-2.2v2.2c0 .6-.5 1.1-1.1 1.1H7.6V12h6.6c.6 0 1.1.5 1.1 1.1v3.3h1.1z"></path></svg><svg width="28" height="28" viewBox="-2 -2 28 28" id="youtube-black" y="588"><path fill-rule="evenodd" clip-rule="evenodd" d="M20.6 4.7c.9.3 1.7 1 1.9 2 .5 1.7.5 5.3.5 5.3s0 3.6-.5 5.3c-.3.9-1 1.7-1.9 2-1.7.5-8.6.5-8.6.5s-6.9 0-8.6-.5c-.9-.3-1.7-1-1.9-2C1 15.6 1 12 1 12s0-3.6.5-5.3c.3-.9 1-1.7 1.9-2 1.7-.4 8.6-.4 8.6-.4s6.9 0 8.6.4zM15.5 12l-5.7 3.3V8.7l5.7 3.3z"></path></svg></svg>