<?xml version="1.0" encoding="utf-8"?>
<!-- Generator: Adobe Illustrator 22.1.0, SVG Export Plug-In . SVG Version: 6.00 Build 0)  -->
<svg version="1.1" id="Layer_1" xmlns="http://www.w3.org/2000/svg" xmlns:xlink="http://www.w3.org/1999/xlink" x="0px" y="0px"
	 width="360px" height="361px" viewBox="0 0 360 361" style="enable-background:new 0 0 360 361;" xml:space="preserve">
<style type="text/css">
	.st0{fill:#FFFFFF;}
	.st1{fill:#FFEADE;}
	.st2{clip-path:url(#SVGID_2_);}
	.st3{fill:#FEE6D4;}
	.st4{fill:#FF7020;}
	.st5{fill:#010101;}
</style>
<path class="st0" d="M8,0.9h344c4.4,0,8,3.6,8,8v344c0,4.4-3.6,8-8,8H8c-4.4,0-8-3.6-8-8V8.9C0,4.5,3.6,0.9,8,0.9z"/>
<circle class="st1" cx="180" cy="180.9" r="144"/>
<circle class="st1" cx="180" cy="180.9" r="144"/>
<g>
	<defs>
		<rect id="SVGID_1_" x="20" y="19" width="320" height="323.9"/>
	</defs>
	<clipPath id="SVGID_2_">
		<use xlink:href="#SVGID_1_"  style="overflow:visible;"/>
	</clipPath>
	<g class="st2">
		<path class="st3" d="M56.9,250.9c1,0.6,1.8,1.6,2,2.8h5l-3.8-14.1L56.9,250.9z"/>
		<path class="st3" d="M183,250.8c0.2,0.1,0.4,0.3,0.6,0.4h0.1h14.8h7.4h14.8h7.4h2.9l0.1-0.1l-14.4-28.2h-25.9L183,250.8z"/>
		<path class="st4" d="M227.6,75.2c0,31,25.1,56.2,56.2,56.2c17.4,0,33.1-8,43.5-20.5c8-9.7,12.8-22.1,12.8-35.7
			c0-31.1-25.1-56.2-56.2-56.2c-13.6,0-26,4.8-35.7,12.8C235.5,42.1,227.6,57.8,227.6,75.2z"/>
		<path class="st5" d="M272.2,340.9c0.7-0.6,1.3-1.2,1.8-2c1.4-2.3,1.5-5,0.3-7.4l-12.9-25.2L236.8,258h-0.1
			c0.7-0.6,1.2-1.5,1.4-2.4h2.6h1.8h3.3c0.6,0,1-0.4,1-1c0-0.6-0.4-1-1-1h-3.3h-1.8H238c-0.2-1-0.8-1.8-1.6-2.4
			c-0.8-0.6-1.7-1-2.8-1c-0.3,0-0.6,0-0.9,0.1l-14-27.4h-2.2l14.4,28.2l-0.1,0.1c-0.8,0.6-1.3,1.4-1.6,2.4h-2.8h-7.6h-15.1h-7.6H185
			c-0.2-1-0.8-1.8-1.5-2.4c-0.2-0.2-0.4-0.3-0.6-0.4l7.8-27.9h-2.1l-7.7,27.3c-0.1,0-0.2,0-0.3,0c-0.4,0-0.8,0.1-1.1,0.2
			l-33.8-127.4c-0.9-3.5-3.6-6.1-7-7c-0.8-0.2-1.7-0.3-2.6-0.3h-4c0,0.1,0,0.2-0.1,0.2v0.1c0,0.2-0.1,0.4-0.1,0.6
			c0,0.2,0,0.4,0.1,0.7c0,0,0,0,0,0.1s0,0.2,0.1,0.3h4c0.8,0,1.6,0.1,2.4,0.4c2.5,0.8,4.6,2.8,5.3,5.5l33.9,127.7v0.1
			c-0.7,0.6-1.2,1.4-1.4,2.3h-2.7h-3.4l0.5,2h2.9h2.6c0.2,1,0.7,1.8,1.4,2.4c0.3,0.3,0.6,0.5,0.9,0.6l-18.1,64.8l-0.4,1.3
			c-1.3,4.7-4.1,8.6-7.8,11.4c-2-1.6-3.6-3.7-4.8-6l-5.7-11.2l-31-61.1h-6.1h-0.1c0.8,0.7,1.9,1.2,3.1,1.2c0.5,0,0.9-0.1,1.4-0.2
			l30.2,59.2l6.6,12.9c1.2,2.4,2.9,4.5,4.9,6.3c-3.3,2-7.2,3.2-11.2,3.2H45.2c-3.2,0-6.1-1.5-8.1-4c-1.9-2.5-2.5-5.8-1.7-8.9
			l19.1-68.4c1.8,0,3.3-1,4-2.5c0.2-0.3,0.3-0.7,0.4-1.1h5.4l-0.5-2H59c-0.3-1.2-1-2.2-2-2.8l3.2-11.4l-1-3.8l-3.5,12.5L33.6,165
			l-11.4-42.9c-0.3-1.1-0.1-2.2,0.6-3.2c0.5-0.7,1.3-1.2,2.2-1.3c0.2,0,0.5-0.1,0.7-0.1c0.6,0,1-0.4,1-1c0-0.6-0.4-1-1-1
			c-0.3,0-0.5,0-0.8,0.1c-1.5,0.2-2.8,1-3.7,2.1c-1.1,1.4-1.4,3.2-1,4.9l13.2,49.4l20.3,76.5l0.4,1.6c-2.2,0.3-4,2.1-4,4.5
			c0,1.8,1,3.3,2.5,4L33.5,327c-1,3.7-0.3,7.6,2,10.6c1,1.3,2.3,2.4,3.7,3.2H21.2v2H340v-2h-67.8V340.9z M162.2,325.3l0.4-1.5
			l18-64.6c0.1,0,0.1,0,0.2,0c1.2,0,2.2-0.5,3-1.2c0.7-0.6,1.2-1.5,1.4-2.4h11.3h7.6h15.1h7.6h2.7c0.2,1,0.7,1.8,1.4,2.4
			c0.8,0.7,1.9,1.2,3,1.2c0.5,0,0.9-0.1,1.3-0.2l24.6,48.2l12.9,25.2c0.9,1.7,0.8,3.8-0.2,5.4c-1,1.7-2.8,2.7-4.8,2.7H164.4
			c-3.8,0-7.4-1.1-10.5-3.1C157.9,334.4,160.8,330.2,162.2,325.3z M152.3,338.6c1.3,0.9,2.7,1.7,4.2,2.3h-8.6
			C149.4,340.3,150.9,339.6,152.3,338.6z"/>
		<path class="st4" d="M240.7,255.6h-2.6c-0.2,1-0.7,1.8-1.4,2.4h0.1h5.2C241.3,257.3,240.9,256.5,240.7,255.6z"/>
		<path class="st4" d="M220.7,251.2h-14.8c-0.9,0.5-1.6,1.3-1.9,2.4h15.1C219.3,252.7,219.9,251.8,220.7,251.2z"/>
		<path class="st4" d="M236.4,251.2c0.8,0.6,1.3,1.5,1.6,2.4h2.7c0.2-0.9,0.6-1.8,1.2-2.4H236.4z"/>
		<path class="st4" d="M229.2,255.6h-2.7c0.2,1,0.8,1.8,1.5,2.4h-7.4c-0.8-0.5-1.4-1.4-1.6-2.4H204c0.3,1.1,1,2,1.9,2.4h-7.5
			c-1-0.4-1.8-1.3-2.1-2.4h-11.3c-0.2,1-0.7,1.8-1.4,2.4h46.9C229.9,257.3,229.4,256.5,229.2,255.6z"/>
		<path class="st4" d="M226.6,253.6h2.8c0.2-1,0.8-1.8,1.6-2.4h-2.9C227.4,251.8,226.8,252.7,226.6,253.6z"/>
		<path class="st4" d="M176.2,251.2h-6.6l-34.7-129.9h-15.3l36.1,135.2c0.2,0.9,1,1.5,2,1.5h3.5h0.1H154c-0.1,0-0.1,0-0.1,0h-3.7
			c-0.9,0-1.7-0.6-2-1.5l-36-135.2H97L133,256.4c0.2,0.9,1,1.5,2,1.5h4.2h38.5h-1.5c-1.2-0.3-2.1-1.2-2.5-2.4h-2.9l-0.5-2h3.4
			C174.1,252.5,175,251.5,176.2,251.2z"/>
		<path class="st4" d="M198.4,251.2h-14.8c0,0,0,0-0.1,0c0.7,0.6,1.3,1.4,1.5,2.4h11.3C196.6,252.6,197.4,251.6,198.4,251.2z"/>
		<path class="st0" d="M228.1,251.2h-7.4c-0.8,0.5-1.4,1.4-1.6,2.4h7.6C226.8,252.7,227.4,251.8,228.1,251.2z"/>
		<path class="st0" d="M220.7,258h7.4c-0.7-0.6-1.3-1.4-1.5-2.4H219C219.3,256.6,219.9,257.4,220.7,258z"/>
		<path class="st0" d="M205.8,251.2h-7.4c-1,0.4-1.8,1.3-2.1,2.4h7.6C204.2,252.6,204.9,251.7,205.8,251.2z"/>
		<path class="st0" d="M198.4,258h7.4c-0.9-0.4-1.6-1.3-1.9-2.4h-7.6C196.6,256.7,197.4,257.6,198.4,258z"/>
		<path class="st0" d="M176.2,251.2c-1.2,0.3-2.2,1.2-2.5,2.4h2.7c0.2-0.9,0.7-1.7,1.4-2.3v-0.1H176.2z"/>
		<path class="st0" d="M183.7,251.2C183.6,251.3,183.6,251.3,183.7,251.2C183.6,251.3,183.6,251.3,183.7,251.2z"/>
		<path class="st0" d="M176.2,258h1.5c-0.7-0.6-1.2-1.5-1.4-2.4h-2.6C174.1,256.8,175.1,257.7,176.2,258z"/>
		<path class="st4" d="M245.7,258c1.9,0,3.4-1.5,3.4-3.4c0-1.9-1.5-3.4-3.4-3.4c-1.5,0-2.8,1-3.3,2.4h3.3c0.6,0,1,0.4,1,1
			c0,0.6-0.4,1-1,1h-3.3C242.9,257,244.2,258,245.7,258z"/>
		<path class="st4" d="M26.6,116.6c0,0.6-0.4,1-1,1c-0.2,0-0.5,0-0.7,0.1c0.4,1.3,1.7,2.3,3.2,2.3h14.4h0.5
			c-1.7-0.1-3.1-1.6-3.1-3.4v-0.1c0-1.8,1.4-3.2,3.1-3.4h7.4c-1.6,0.2-2.9,1.6-2.9,3.4v0.1c0,1.7,1.3,3.2,2.9,3.4h14.8
			c-1.5-0.3-2.6-1.7-2.6-3.4v-0.1c0-1.7,1.2-3,2.6-3.4h7.4c-1.4,0.4-2.5,1.8-2.5,3.4v0.1c0,1.6,1.1,3,2.5,3.4h14.8
			c-1.3-0.5-2.2-1.8-2.2-3.4v-0.1c0-1.5,0.9-2.9,2.2-3.4H45H28c-1.6,0-2.8,1-3.2,2.5c0.3,0,0.5-0.1,0.8-0.1
			C26.2,115.6,26.6,116.1,26.6,116.6z"/>
		<path class="st4" d="M92.7,116.6c0,1.6,0.9,2.9,2.1,3.5h14.8c-1-0.7-1.8-2-1.8-3.4c0,0,0,0,0-0.1c0-1.4,0.7-2.7,1.8-3.4H90.3h4.5
			C93.5,113.8,92.7,115.1,92.7,116.6z"/>
		<path class="st4" d="M115.3,116.6c0,1.5,0.6,2.7,1.6,3.5h14.8c-0.8-0.9-1.3-2.1-1.3-3.4c0-1.3,0.5-2.5,1.3-3.4h-14.8
			C115.9,114,115.3,115.2,115.3,116.6z"/>
		<path class="st0" d="M107.7,116.6c0,1.5,0.7,2.8,1.8,3.5h7.4c-1-0.8-1.6-2-1.6-3.4c0,0,0,0,0-0.1c0-1.4,0.7-2.6,1.6-3.4h-7.4
			C108.4,113.9,107.7,115.2,107.7,116.6z"/>
		<path class="st0" d="M92.7,116.6c0-1.6,0.9-2.9,2.1-3.4h-4.5h-3c-1.3,0.5-2.2,1.8-2.2,3.4v0.1c0,1.6,0.9,2.9,2.2,3.4h7.4
			C93.5,119.5,92.7,118.2,92.7,116.6z"/>
		<path class="st0" d="M69.9,116.7C69.9,116.6,69.9,116.6,69.9,116.7c0-1.7,1.1-3.1,2.5-3.4h-7.4c-1.5,0.3-2.6,1.7-2.6,3.4v0.1
			c0,1.7,1.1,3.1,2.6,3.4h7.4C71,119.7,69.9,118.3,69.9,116.7z"/>
		<path class="st0" d="M47.3,116.7C47.3,116.7,47.3,116.6,47.3,116.7c0-1.8,1.3-3.3,2.9-3.4h-7.4c-1.7,0.1-3.1,1.6-3.1,3.4v0.1
			c0,1.8,1.4,3.3,3.1,3.4h7.4C48.6,119.9,47.3,118.4,47.3,116.7z"/>
		<path class="st4" d="M135.4,113.2c-1.5,0-2.8,1-3.3,2.4h4c0.9,0,1.8,0.1,2.6,0.3C138.5,114.4,137.1,113.2,135.4,113.2z"/>
		<path class="st4" d="M135.4,120.1c1.4,0,2.6-0.8,3.1-2c-0.7-0.2-1.5-0.4-2.4-0.4h-4C132.6,119,133.9,120.1,135.4,120.1z"/>
		<path class="st4" d="M66.9,257.9h15c-0.9,0-1.7-0.6-2-1.5L43.7,121.3H42H28.6l6.9,25.7l23.6,88.7l1,3.8l3.8,14.1l0.5,2l0.2,0.6
			C64.9,257.2,65.8,257.9,66.9,257.9z"/>
		<path class="st4" d="M102.6,256.4L66.6,121.3H51.4l36.1,135.2c0.2,0.9,1,1.5,2,1.5h15.2h0.1C103.7,257.9,102.9,257.3,102.6,256.4z
			"/>
		<path class="st4" d="M110.3,256.4c0.2,0.9,1,1.5,2,1.5h15.3c-0.9,0-1.7-0.6-2-1.5L89.4,121.3H74.2L110.3,256.4z"/>
		<path class="st0" d="M148.3,256.4c0.2,0.9,1,1.5,2,1.5h3.7c0.1,0,0.1,0,0.1,0h7.4h-0.1h-3.5c-0.9,0-1.7-0.6-2-1.5l-36.1-135.2
			h-7.6L148.3,256.4z"/>
		<path class="st0" d="M125.5,256.4c0.2,0.9,1,1.5,2,1.5h7.6c-0.9,0-1.7-0.6-2-1.5L97,121.3h-7.6L125.5,256.4z"/>
		<path class="st0" d="M110.3,256.4L74.2,121.3h-7.6l36.1,135.2c0.2,0.9,1,1.5,2,1.5h6h1.5C111.3,257.9,110.5,257.3,110.3,256.4z"/>
		<path class="st0" d="M79.8,256.4c0.2,0.9,1,1.5,2,1.5h7.6c-0.9,0-1.7-0.6-2-1.5l-36-135.2h-7.6L79.8,256.4z"/>
		<path class="st5" d="M189.2,211.9h-8c-3,0-5.5,2.5-5.5,5.5v5.5h8v-5.5C183.6,214.4,186.1,211.9,189.2,211.9z"/>
		<path class="st4" d="M242.2,222.9v-5.5c0-3-2.5-5.5-5.5-5.5h-8h-39.7c-3,0-5.5,2.5-5.5,5.5v5.5h5h2.1h25.9h2.2h9.9H242.2z"/>
	</g>
</g>
</svg>
