<?xml version="1.0" encoding="utf-8"?>
<!-- Generator: Adobe Illustrator 22.1.0, SVG Export Plug-In . SVG Version: 6.00 Build 0)  -->
<svg version="1.1" id="Layer_1" xmlns="http://www.w3.org/2000/svg" xmlns:xlink="http://www.w3.org/1999/xlink" x="0px" y="0px"
	 width="360px" height="360px" viewBox="0 0 360 360" style="enable-background:new 0 0 360 360;" xml:space="preserve">
<style type="text/css">
	.st0{fill:#FFFFFF;}
	.st1{fill:#FFEADE;}
	.st2{clip-path:url(#SVGID_2_);}
	.st3{fill:#010101;}
	.st4{fill:#FFFFFF;stroke:#010101;stroke-width:0.9489;stroke-miterlimit:10;}
	.st5{fill:none;stroke:#010101;stroke-linecap:round;stroke-linejoin:round;stroke-miterlimit:10;}
	.st6{fill:#FF7020;}
	.st7{fill:none;stroke:#FFFFFF;stroke-miterlimit:10;}
	.st8{fill:none;stroke:#010101;stroke-miterlimit:10;}
</style>
<path class="st0" d="M8,0h344c4.4,0,8,3.6,8,8v344c0,4.4-3.6,8-8,8H8c-4.4,0-8-3.6-8-8V8C0,3.6,3.6,0,8,0z"/>
<circle class="st1" cx="180" cy="180" r="144"/>
<circle class="st1" cx="180" cy="180" r="144"/>
<g>
	<defs>
		<rect id="SVGID_1_" x="67.4" y="60.9" width="237.2" height="299.1"/>
	</defs>
	<clipPath id="SVGID_2_">
		<use xlink:href="#SVGID_1_"  style="overflow:visible;"/>
	</clipPath>
	<g class="st2">
		<path class="st3" d="M94.7,357.9l-3.7-0.7c-1.6-0.3-2.7-1.8-2.3-3.4l2.1-10.8l6.5,1.2L94.7,357.9z"/>
		<path class="st3" d="M97.6,358.5l3.7,0.7c1.6,0.3,3.1-0.8,3.4-2.3l2.1-10.8l-6.5-1.2L97.6,358.5z"/>
		<path class="st4" d="M105.6,349.6l-15-2.8c-0.9-0.2-1.3-0.8-1.2-1.4L92,332l17.9,3.4l-2.6,13.3
			C107.2,349.4,106.5,349.8,105.6,349.6z"/>
		<path class="st5" d="M143.1,174.7L162.4,74l71.7,13.8l-19.4,100.7"/>
		<path class="st5" d="M146.9,175.4l19.4-100.7L230.3,87L211,187.8"/>
		<path class="st6" d="M266.7,181.1l-29.7,155c-2.9,15.6-18,25.7-33.6,22.8L90.6,337.2c-15.6-2.9-25.7-18-22.8-33.6l29.8-155
			c2.9-15.6,18-25.7,33.6-22.8l112.6,21.6C259.4,150.5,269.6,165.6,266.7,181.1z"/>
		<path class="st3" d="M235.4,92.8l-76.1-14.6l1.9-9.9c0.9-4.9,5.7-8.2,10.6-7.2l58.3,11.2c4.9,0.9,8.2,5.7,7.2,10.6L235.4,92.8z"/>
		<path class="st7" d="M94.5,301.1c-1.2-0.2-2.1-1.4-1.8-2.7l25.9-135c0.2-1.2,1.4-2.1,2.7-1.8c1.2,0.2,2.1,1.4,1.8,2.7l-25.9,135
			C97,300.5,95.8,301.4,94.5,301.1z"/>
		<path class="st7" d="M189.5,318.7c-1.2-0.2-2.1-1.4-1.8-2.7l25.9-135c0.2-1.2,1.4-2.1,2.7-1.8c1.2,0.2,2.1,1.4,1.8,2.7l-25.9,135
			C192,318.2,190.7,319,189.5,318.7z"/>
		<path class="st7" d="M213.3,323.2c-1.2-0.2-2.1-1.4-1.8-2.7l25.9-135c0.2-1.2,1.4-2.1,2.7-1.8c1.2,0.2,2.1,1.4,1.8,2.7l-25.9,135
			C215.7,322.6,214.6,323.4,213.3,323.2z"/>
		<path class="st7" d="M165.8,314.4c-1.2-0.2-2.1-1.4-1.8-2.7l25.9-135c0.2-1.2,1.4-2.1,2.7-1.8c1.2,0.2,2.1,1.4,1.8,2.7l-25.9,135
			C168.3,313.8,167,314.5,165.8,314.4z"/>
		<path class="st7" d="M118.2,305.5c-1.2-0.2-2.1-1.4-1.8-2.7l25.9-135c0.2-1.2,1.4-2.1,2.7-1.8c1.2,0.2,2.1,1.4,1.8,2.7l-25.9,135
			C120.7,305,119.5,305.7,118.2,305.5z"/>
		<path class="st7" d="M142.1,309.9c-1.2-0.2-2.1-1.4-1.8-2.7l25.8-135c0.2-1.2,1.4-2.1,2.7-1.8c1.2,0.2,2.1,1.4,1.8,2.7l-25.8,135
			C144.4,309.3,143.3,310.2,142.1,309.9z"/>
		<path class="st3" d="M291.3,351.9v3.7c0,1.6-1.3,2.9-2.9,2.9h-11v-6.6H291.3z"/>
		<path class="st3" d="M291.3,349v-3.7c0-1.6-1.3-2.9-2.9-2.9h-11v6.6H291.3z"/>
		<path class="st4" d="M281.1,342.7V358c0,0.9-0.6,1.5-1.1,1.5h-13.3c-2.8,0-4.9-2.2-4.9-4.9v-8.3c0-2.8,2.2-4.9,4.9-4.9h13.3
			C280.5,341.2,281.1,342,281.1,342.7z"/>
		<path class="st3" d="M253.5,348.1h-1.2l1,4.5h1.1L253.5,348.1z"/>
		<path class="st3" d="M255.7,348.1h-1.2l1,4.5h1.1L255.7,348.1z"/>
		<path class="st3" d="M251.3,348.1h-1.1l0.9,4.5h1.1L251.3,348.1z"/>
		<path class="st3" d="M249.1,348.1H248l0.9,4.5h1.2L249.1,348.1z"/>
		<path class="st3" d="M258.8,348.1l0.9,4.5h2.1v-4.5H258.8z"/>
		<path class="st3" d="M246.9,348.1h-0.8v4.5h1.8L246.9,348.1z"/>
		<path class="st3" d="M257.8,348.1h-1.2l0.9,4.5h1.2L257.8,348.1z"/>
		<path class="st8" d="M70.5,359.5h234.1"/>
	</g>
</g>
</svg>
