<?xml version="1.0" encoding="utf-8"?>
<!-- Generator: Adobe Illustrator 22.1.0, SVG Export Plug-In . SVG Version: 6.00 Build 0)  -->
<svg version="1.1" id="Layer_1" xmlns="http://www.w3.org/2000/svg" xmlns:xlink="http://www.w3.org/1999/xlink" x="0px" y="0px"
	 width="360px" height="360px" viewBox="0 0 360 360" style="enable-background:new 0 0 360 360;" xml:space="preserve">
<style type="text/css">
	.st0{fill:#FFFFFF;}
	.st1{fill:#FFEADE;}
	.st2{fill:#FFFFFF;stroke:#333333;}
	.st3{fill:#FF7020;}
</style>
<path class="st0" d="M8,0h344c4.4,0,8,3.6,8,8v344c0,4.4-3.6,8-8,8H8c-4.4,0-8-3.6-8-8V8C0,3.6,3.6,0,8,0z"/>
<circle class="st1" cx="180" cy="180" r="144"/>
<circle class="st1" cx="180" cy="180" r="144"/>
<path class="st2" d="M121.4,104.1l95.8-12.7c13.7-1.8,26.3,7.8,28.1,21.6l26.8,202.3c1.8,13.7-7.8,26.3-21.6,28.1l-95.8,12.7
	c-13.7,1.8-26.3-7.8-28.1-21.6L99.9,132.3C98,118.6,107.7,106,121.4,104.1z"/>
<path class="st3" d="M122.4,110.7l95.3-12.6c11-1.4,21,6.3,22.5,17.2L261.8,279c1.4,11-6.3,21-17.2,22.5l-95.3,12.6
	c-11,1.4-21-6.3-22.5-17.2l-21.7-163.7C103.7,122.2,111.4,112.1,122.4,110.7z"/>
<circle class="st3" cx="202.6" cy="327" r="9.1"/>
<path d="M227.1,199.2c0-0.1-0.1-0.2-0.2-0.2c-0.1,0-0.2,0-0.2,0.1c0,0,0,0.1-0.1,0.2c-0.1,0.1-0.2,0.3-0.4,0.6
	c-0.4,0.5-1,1.2-1.8,2.1c-0.6,0.6-1.2,1.3-2,2c0,0,0,0,0,0c-9.5,9.2-21.3,14.3-33.3,16.2c-0.1,0-0.2,0-0.3,0c-0.3,0.1-0.7,0.1-1,0.1
	c-0.3,0-0.7,0.1-1,0.1v0v0c-11.7,1.5-21.5-0.2-28.8-2.6c-5.3-1.7-10-4-14-6.9c-0.2-0.2-0.4-0.3-0.6-0.4c-0.3-0.2-0.4-0.3-0.6-0.4
	c-0.1-0.1-0.2-0.2-0.2-0.2c-0.1-0.1-0.2-0.1-0.3,0c-0.1,0-0.1,0.1-0.1,0.2c0,0.3,0,0.8,0.1,1.3l0,0.1l0,0c0.2,1.3,0.8,2.2,2.1,3.2
	c0.3,0.3,18,14.2,43,11l0,0l0,0c25-3.2,38.6-21.2,38.8-21.5c1-1.2,1.3-2.3,1.2-3.6l0,0l0-0.1C227.3,200,227.2,199.5,227.1,199.2z"/>
</svg>
