<?xml version="1.0" encoding="utf-8"?>
<!-- Generator: Adobe Illustrator 22.1.0, SVG Export Plug-In . SVG Version: 6.00 Build 0)  -->
<svg version="1.1" id="Layer_1" xmlns="http://www.w3.org/2000/svg" xmlns:xlink="http://www.w3.org/1999/xlink" x="0px" y="0px"
	 width="360px" height="360px" viewBox="0 0 360 360" style="enable-background:new 0 0 360 360;" xml:space="preserve">
<style type="text/css">
	.st0{fill:#FFFFFF;}
	.st1{fill:#FFEADE;}
	.st2{clip-path:url(#SVGID_2_);}
	.st3{fill:#FF7020;}
	.st4{fill:none;stroke:#000000;stroke-miterlimit:10;}
	.st5{fill:#FF7020;stroke:#FFFFFF;stroke-miterlimit:10;}
	.st6{fill:none;stroke:#FFFFFF;stroke-miterlimit:10;}
</style>
<path class="st0" d="M8,0h344c4.4,0,8,3.6,8,8v344c0,4.4-3.6,8-8,8H8c-4.4,0-8-3.6-8-8V8C0,3.6,3.6,0,8,0z"/>
<circle class="st1" cx="180" cy="180" r="144"/>
<circle class="st1" cx="180" cy="180" r="144"/>
<g>
	<defs>
		
			<rect id="SVGID_1_" x="70" y="88.4" transform="matrix(0.9963 -8.583583e-02 8.583583e-02 0.9963 -16.0231 16.1679)" width="220" height="212"/>
	</defs>
	<clipPath id="SVGID_2_">
		<use xlink:href="#SVGID_1_"  style="overflow:visible;"/>
	</clipPath>
	<g class="st2">
		<path class="st3" d="M68.3,173.3l93.5-80.2c5.3-4.5,12.9-5.2,18.9-1.6l105.8,63l10.8,125.2L79.8,298.4L68.3,173.3z"/>
		<path class="st0" d="M95.9,272.6l1.7-170.2l168.3,1.6l-1.7,167.3"/>
		<path class="st4" d="M95.9,272.6l1.7-170.2l168.3,1.6l-1.7,167.3"/>
		<path d="M210.2,170.5c0-0.1,0-0.1-0.1-0.1c-0.1,0-0.1,0-0.2,0c0,0,0,0-0.1,0.1c-0.1,0.1-0.2,0.2-0.4,0.4c-0.3,0.3-0.8,0.7-1.4,1.2
			c-0.5,0.4-1,0.8-1.5,1.2l0,0c-7.2,5.3-15.7,7.6-23.9,7.8c-0.1,0-0.1,0-0.2,0c-0.2,0-0.5,0-0.7,0c-0.2,0-0.4,0-0.7,0
			c-8-0.1-14.5-2.1-19.2-4.5c-3.4-1.6-6.4-3.6-8.8-5.9c-0.1-0.1-0.2-0.2-0.3-0.3c-0.1-0.1-0.3-0.3-0.4-0.4c-0.1-0.1-0.1-0.1-0.1-0.1
			c0-0.1-0.1-0.1-0.2,0c-0.1,0-0.1,0.1-0.1,0.1c0,0.2-0.1,0.5-0.1,0.9l0,0.1l0,0c0,0.9,0.3,1.5,1.1,2.3c0.2,0.2,10.8,11.2,28,11.4
			c17.2,0.2,28-10.7,28.2-10.9c0.8-0.7,1.1-1.4,1.1-2.3l0,0l0-0.1C210.3,171,210.3,170.7,210.2,170.5z"/>
		<path class="st5" d="M298.2,290.1L79.9,308.9L68.3,173.7l115.2,60.8l103.1-79.6L298.2,290.1z"/>
		<path class="st3" d="M79.9,308.9l92-84.8c5.8-5.4,14.5-6.1,21.1-1.8l105.1,67.8"/>
		<path class="st6" d="M79.9,308.9l92-84.8c5.8-5.4,14.5-6.1,21.1-1.8l105.1,67.8"/>
	</g>
</g>
</svg>
