<svg width="144" height="145" viewBox="0 0 144 145" fill="none" xmlns="http://www.w3.org/2000/svg">
<rect width="144" height="144" rx="8" fill="white"/>
<ellipse cx="71.9965" cy="71.9984" rx="57.6" ry="57.6" fill="#FFEADE"/>
<circle cx="72.0004" cy="71.9984" r="57.6" fill="#FFEADE"/>
<g clip-path="url(#clip0)">
<path d="M51.2058 143.972L49.8049 144.09C49.1947 144.144 48.6716 143.672 48.6538 143.022L48.3684 138.709L50.8526 138.522L51.2058 143.972Z" fill="#010101"/>
<path d="M52.5445 144.121L53.9499 144C54.5621 143.945 55.0108 143.398 54.9664 142.796L54.6717 138.498L52.1795 138.69L52.5445 144.121Z" fill="#010101"/>
<path d="M54.8372 139.607L48.9829 140.078C48.6466 140.094 48.412 139.934 48.3789 139.682L47.9626 134.566L54.9666 134.006L55.3829 139.122C55.4161 139.374 55.1735 139.59 54.8372 139.607Z" fill="white" stroke="#010101" stroke-width="0.948909" stroke-miterlimit="10"/>
<path d="M88.2175 143.972L86.8166 144.09C86.2064 144.144 85.6834 143.672 85.6655 143.022L85.3801 138.709L87.8643 138.522L88.2175 143.972Z" fill="#010101"/>
<path d="M89.5562 144.121L90.9616 144C91.5738 143.945 92.0225 143.398 91.9781 142.796L91.6834 138.498L89.1912 138.69L89.5562 144.121Z" fill="#010101"/>
<path d="M91.8489 139.607L85.9947 140.078C85.6583 140.094 85.4238 139.934 85.3906 139.682L84.9743 134.566L91.9784 134.006L92.3947 139.122C92.4278 139.374 92.1853 139.59 91.8489 139.607Z" fill="white" stroke="#010101" stroke-width="0.948909" stroke-miterlimit="10"/>
<path d="M55.8232 68.4458L55.532 27.4446L84.7494 27.2503L85.0034 68.2589" stroke="#010101" stroke-miterlimit="10" stroke-linecap="round" stroke-linejoin="round"/>
<path d="M57.3701 68.4458L57.1161 27.4372L83.1996 27.2465L83.461 68.2922" stroke="#010101" stroke-miterlimit="10" stroke-linecap="round" stroke-linejoin="round"/>
<path d="M105.938 61.3396L106.365 124.449C106.424 130.784 101.297 135.944 94.9618 136.003L49.0477 136.303C42.7129 136.362 37.5532 131.234 37.4942 124.899L37.104 61.7822C37.0449 55.4474 42.1727 50.2878 48.5075 50.2287L94.3844 49.9361C100.719 49.877 105.879 55.0048 105.938 61.3396Z" fill="#FF7020"/>
<path d="M85.6554 29.1213L54.6589 29.3208L54.6341 25.3011C54.6218 23.2912 56.2317 21.6556 58.2415 21.6432L81.9727 21.4942C83.9826 21.4818 85.6182 23.0917 85.6306 25.1015L85.6554 29.1213Z" fill="#010101"/>
<path d="M48.3151 121.802C47.8459 121.834 47.4291 121.426 47.4309 120.919L45.6975 65.9527C45.6644 65.4546 46.0467 65.0149 46.5238 65.0199C46.9931 64.9879 47.4099 65.3962 47.408 65.9025L49.1415 120.869C49.1746 121.367 48.7923 121.807 48.3151 121.802Z" stroke="white" stroke-miterlimit="10"/>
<path d="M86.9558 121.322C86.4865 121.354 86.0697 120.945 86.0716 120.439L84.3381 65.4722C84.305 64.9741 84.6873 64.5344 85.1645 64.5394C85.6337 64.5074 86.0505 64.9157 86.0487 65.422L87.7821 120.389C87.8152 120.887 87.4329 121.327 86.9558 121.322Z" stroke="white" stroke-miterlimit="10"/>
<path d="M96.6473 121.216C96.178 121.248 95.7613 120.84 95.7631 120.333L94.0295 65.3667C93.9964 64.8686 94.3787 64.4289 94.8559 64.4339C95.3252 64.4019 95.7419 64.8102 95.7401 65.3165L97.4737 120.283C97.4719 120.79 97.1166 121.184 96.6473 121.216Z" stroke="white" stroke-miterlimit="10"/>
<path d="M77.3094 121.458C76.8401 121.49 76.4234 121.082 76.4252 120.576L74.6916 65.6089C74.6585 65.1108 75.0408 64.6711 75.518 64.6761C75.9872 64.6441 76.404 65.0524 76.4022 65.5587L78.1358 120.525C78.1689 121.024 77.7787 121.426 77.3094 121.458Z" stroke="white" stroke-miterlimit="10"/>
<path d="M57.9696 121.7C57.5003 121.732 57.0835 121.324 57.0854 120.818L55.3518 65.8511C55.3187 65.353 55.701 64.9133 56.1782 64.9183C56.6474 64.8863 57.0642 65.2946 57.0624 65.8009L58.7959 120.768C58.829 121.266 58.4388 121.668 57.9696 121.7Z" stroke="white" stroke-miterlimit="10"/>
<path d="M67.6528 121.553C67.1835 121.585 66.7668 121.177 66.7686 120.671L65.0023 65.7112C64.9692 65.2131 65.3515 64.7734 65.8286 64.7784C66.2979 64.7464 66.7146 65.1548 66.7128 65.661L68.4792 120.62C68.4773 121.127 68.1299 121.558 67.6528 121.553Z" stroke="white" stroke-miterlimit="10"/>
<path d="M29.918 143.809H123.556" stroke="#010101" stroke-miterlimit="10"/>
</g>
<defs>
<clipPath id="clip0">
<rect width="94.8909" height="119.638" fill="white" transform="translate(19.666 24.3633)"/>
</clipPath>
</defs>
</svg>
