<svg width="24" height="24" viewBox="0 0 24 24" fill="none" xmlns="http://www.w3.org/2000/svg">
<path d="M0 12C0 5.37258 5.37258 0 12 0C18.6274 0 24 5.37258 24 12C24 18.6274 18.6274 24 12 24C5.37258 24 0 18.6274 0 12Z" fill="#FF7021"/>
<path d="M13.0298 6.41992C12.6781 6.41992 12.3341 6.45265 12.0006 6.51463C14.5854 6.99789 16.5422 9.06884 16.5422 11.7943C16.5422 13.7344 14.9698 15.5031 13.0298 15.5031C12.6719 15.5031 12.3265 15.4495 12.0006 15.3499C10.5626 14.9098 9.51739 13.5728 9.51739 11.9907C9.51739 10.4086 10.5633 9.07162 12.0006 8.63153C11.6754 8.53195 11.3293 8.47833 10.9714 8.47833C9.03134 8.47833 7.45898 10.2478 7.45898 12.1871C7.45898 14.9119 9.41573 16.9835 12.0006 17.4661C12.3341 17.5281 12.6781 17.5608 13.0298 17.5608C16.1063 17.5608 18.6006 15.0665 18.6006 11.99C18.6006 8.91355 16.1063 6.41992 13.0298 6.41992Z" fill="#F3A677"/>
<path d="M10.9712 6.42871C11.3228 6.42871 11.6668 6.46144 12.0004 6.52341C14.5852 7.00668 16.542 9.07762 16.542 11.8031C16.542 13.7432 14.9696 15.5119 13.0296 15.5119C12.6717 15.5119 12.3256 15.4583 12.0004 15.3587C13.4384 14.9186 14.4836 13.5809 14.4836 11.9995C14.4836 10.4174 13.4377 9.08041 12.0004 8.64032C11.6745 8.54074 11.3291 8.48712 10.9712 8.48712C9.03116 8.48712 7.4588 10.2565 7.4588 12.1959C7.4588 14.9207 9.41554 16.9923 12.0004 17.4749C11.6668 17.5376 11.3228 17.5703 10.9712 17.5703C7.89471 17.5703 5.40039 15.076 5.40039 11.9995C5.40039 8.92303 7.89471 6.42871 10.9712 6.42871Z" fill="white"/>
</svg>
