<svg xmlns="http://www.w3.org/2000/svg" width="96" height="54" fill="none" xmlns:v="https://vecta.io/nano"><g clip-path="url(#A)" fill="#fff"><path d="M49.98 5.347c1.255 0 2.28-1.025 2.28-2.287S51.234.774 49.98.774A2.28 2.28 0 0 0 47.7 3.06a2.29 2.29 0 0 0 2.279 2.287zM59.075 25.5h.013c.882 0 1.654-.218 2.26-.512.605-.288 1.036-.628 1.25-.922.135-.192.225-.43.225-.685a1.37 1.37 0 0 0-.135-.576c-.225-.442-.69-.653-1.107-.66-.077 0-.154.006-.232.026-.225.058-.386.14-.54.192a1.84 1.84 0 0 1-.624.096c-.483 0-.773-.192-.966-.384-.04-.038-.328-.4-.438-.87-.18-.762-.193-1.85-.2-2.613.013-.282.013-15.686.013-16.096.006-.57-.3-1.03-.695-1.3-.405-.282-.914-.397-1.43-.404-.52.006-1.036.135-1.455.404-.412.27-.715.717-.715 1.275v18.228c0 1.018.283 2.2 1.037 3.164.74.948 1.963 1.64 3.74 1.64zm8.78-15.007c1.075-1.544 2.208-1.73 2.736-1.736h.007c.863.006 1.745.576 2.002 1.934a3.98 3.98 0 0 1 .058.66c0 .935-.354 1.742-.895 2.363-1.287 1.435-3.083 1.845-4.976 2.043l-.007-.506c0-1.678.232-3.568 1.075-4.76zm-2.84 12.83c1.4 1.345 3.335 2.165 5.742 2.165h.007c1.307 0 2.523-.23 3.43-.608.457-.192.837-.416 1.12-.692.277-.27.463-.596.463-.967 0-.058-.006-.115-.013-.18a1.19 1.19 0 0 0-1.191-1.044 1.27 1.27 0 0 0-.431.07c-.708.224-1.397.352-2.247.352a10.45 10.45 0 0 1-.747-.032c-1.783-.14-2.826-1.217-3.463-2.306-.315-.544-.515-1.095-.637-1.518-.052-.186-.1-.34-.116-.468 2.433-.102 4.538-.39 6.528-1.447 1.017-.57 2.272-1.492 2.93-2.767a6.33 6.33 0 0 0 .624-2.658c0-.275-.026-.538-.064-.788-.412-2.35-2.588-4.138-5.96-4.125-2.343 0-5.362.93-7.197 3.772-.708 1.114-1.66 3.247-1.66 5.937 0 .64.058 1.32.18 2.018.4 2.082 1.294 3.933 2.704 5.284zm-41.695 1.492c.406.275.92.397 1.423.404.52 0 1.043-.128 1.455-.404.412-.27.715-.717.715-1.275l.006-10.017c.032-.77.232-1.806.69-2.613.463-.813 1.133-1.383 2.17-1.4.483 0 .81.147 1.075.39.406.365.637.974.766 1.588.122.615.135 1.23.135 1.576v10.434a1.53 1.53 0 0 0 .74 1.307c.43.27.972.39 1.506.397.547 0 1.1-.128 1.54-.397.438-.263.766-.71.766-1.28V13.507c.032-.77.232-1.8.69-2.607.464-.813 1.127-1.383 2.17-1.4.476 0 .81.147 1.08.39.4.365.637.974.76 1.588s.135 1.23.135 1.576l.007 10.434c-.007.583.31 1.038.74 1.307s.966.39 1.506.397c.554 0 1.1-.128 1.538-.397.438-.263.766-.71.766-1.28V13.7c0-2.492-.483-4.35-1.403-5.604-.908-1.255-2.26-1.87-3.856-1.864-1.532 0-2.704.743-3.528 1.588a8.01 8.01 0 0 0-1.242 1.71c-.373-1-.92-1.774-1.61-2.325-.824-.66-1.854-.974-3.013-.974-1.97 0-3.315 1.204-4.14 2.312V8.44a1.52 1.52 0 0 0-.695-1.3c-.405-.275-.914-.403-1.43-.403s-1.036.128-1.455.403c-.412.263-.714.71-.714 1.275v15.1c.013.57.302 1.03.708 1.3zM51.428 7.14c-.406-.275-.92-.403-1.43-.403-.515 0-1.036.128-1.448.403-.412.263-.72.71-.714 1.275v15.1a1.54 1.54 0 0 0 .695 1.3c.406.275.92.397 1.43.404.52 0 1.043-.128 1.455-.404.412-.27.72-.717.715-1.275V8.434c0-.564-.296-1.025-.702-1.294zm44.553 7.782c-.013-.103-.084-.186-.187-.218s-.206 0-.277.07c0 0-.058.064-.187.192s-.315.32-.573.564c-.508.487-1.268 1.185-2.285 2.018-.72.596-1.564 1.262-2.536 1.973a4.44 4.44 0 0 0-.122-.801c-.258-1.044-.863-1.838-1.616-2.472-1.126-.954-2.562-1.576-3.747-2.26-.586-.34-1.12-.692-1.506-1.09-.386-.39-.637-.826-.715-1.358-.013-.096-.02-.2-.02-.3 0-.55.212-1.127.657-1.556.238-.23.96-.698 1.963-.698 1.255 0 2.31.55 2.9.55.67.006 1.25-.384 1.43-1.038.032-.128.052-.256.052-.39 0-.743-.612-1.428-1.455-1.64 0 0-.76-.256-2.356-.256-2.227 0-4.05.55-5.337 1.518-1.28.96-2.008 2.35-2.002 3.945a5.87 5.87 0 0 0 .161 1.358c.476 1.973 2.414 3.036 4.197 3.997.895.474 1.77.922 2.427 1.41.663.487 1.088 1 1.172 1.588.02.096.026.205.026.295 0 .544-.22 1.044-.682 1.44-.47.384-1.197.66-2.24.68h-.097c-1.133 0-2.105-.327-2.742-.61-.277-.134-.567-.198-.83-.198-.682-.013-1.25.455-1.34 1.127-.006.064-.013.128-.013.2 0 .48.258.884.612 1.185.528.468 1.28.775 1.996.986-7.873 3.952-18.816 7.52-32.65 7.52-13.97 0-24.983-3.638-32.875-7.635 1.63-.308 2.942-.974 3.92-1.857a6.36 6.36 0 0 0 2.092-4.74c0-.4-.04-.82-.11-1.23-.245-1.364-.985-2.447-1.938-3.33-1.43-1.326-3.347-2.26-4.937-3.196-.798-.46-1.513-.93-2.047-1.428-.534-.493-.875-1.018-.978-1.608-.026-.16-.045-.327-.045-.493a3.06 3.06 0 0 1 .933-2.184c.637-.615 1.635-1.063 3.103-1.063.792 0 1.725.135 2.8.448a3.45 3.45 0 0 0 .862.141c.74.013 1.288-.397 1.513-.986a1.69 1.69 0 0 0 .122-.621c0-.506-.264-.935-.637-1.23-.373-.3-.856-.5-1.358-.608C17.483.83 16.39.7 15.25.7h-.032c-3.058 0-5.28.858-6.74 2.146-1.455 1.287-2.13 2.985-2.13 4.605 0 .36.032.717.097 1.063.45 2.37 2.4 3.88 4.397 5.11 2.002 1.217 4.08 2.2 4.88 3.33.43.596.637 1.32.637 2.01 0 .705-.22 1.383-.61 1.864-.753.91-2.176 1.524-3.7 1.524a5.58 5.58 0 0 1-2.878-.781c-.05-.032-.193-.11-.206-.115a59.55 59.55 0 0 1-5.291-3.875 41.78 41.78 0 0 1-2.285-2.017l-.573-.564-.187-.192c-.07-.07-.18-.102-.277-.07-.097.026-.167.11-.187.218-.05.378-.1.865-.1 1.422v.167c.026 1.447.515 2.562 1.828 3.78.315.327 17.922 18.28 46.175 18.28 28.253-.006 45.86-17.96 46.175-18.28 1.313-1.217 1.796-2.33 1.822-3.78v-.167a10.75 10.75 0 0 0-.09-1.447z"/><path fill-rule="evenodd" d="M7.58 47.48c0 .137.046.248.137.332s.217.126.372.126.28-.042.37-.126.137-.195.137-.332-.046-.248-.142-.33-.217-.124-.367-.124-.28.042-.37.124-.137.193-.137.33zm.084 4.12c0 .133.04.234.12.305s.18.106.305.106.226-.035.308-.106.124-.173.124-.305v-2.648c0-.133-.042-.232-.124-.3s-.184-.104-.308-.104-.226.035-.305.104-.12.168-.12.3v2.648zm-.768-4.396c-.093-.073-.195-.11-.3-.11-.168 0-.3.077-.36.235L4.65 50.834 3.073 47.33a.4.4 0 0 0-.155-.175c-.066-.038-.14-.057-.217-.057-.12 0-.226.038-.32.11s-.142.166-.142.28c0 .044.015.1.042.164l1.894 4.088c.04.086.104.153.188.2a.53.53 0 0 0 .27.073.53.53 0 0 0 .27-.073c.084-.046.146-.115.188-.2l1.9-4.088c.03-.064.042-.122.042-.173 0-.11-.046-.2-.137-.274zm5.133 1.405a.35.35 0 0 1 .201-.062c.106 0 .2.035.285.106a.33.33 0 0 1 .126.263.34.34 0 0 1-.042.164l-1.27 2.655c-.042.086-.1.153-.175.2a.47.47 0 0 1-.25.069.49.49 0 0 1-.25-.069.44.44 0 0 1-.181-.199L9.2 49.082c-.022-.046-.035-.097-.035-.157a.33.33 0 0 1 .135-.268c.088-.073.2-.11.305-.11.164 0 .285.08.363.24l.962 2.124.954-2.113c.038-.082.086-.144.148-.186zm4.12 2.772c0-.102-.024-.18-.073-.24s-.11-.09-.188-.086c-.064 0-.164.038-.3.11l-.38.15c-.11.038-.24.055-.387.055-.3 0-.51-.075-.66-.223s-.24-.38-.268-.697h2.024c.175 0 .26-.097.26-.294 0-.33-.062-.615-.186-.858s-.3-.43-.522-.562-.49-.2-.8-.2c-.316 0-.597.073-.847.22s-.442.352-.58.617-.206.57-.206.912c0 .54.157.965.473 1.276s.743.467 1.283.467c.177 0 .365-.027.562-.08s.374-.124.53-.2c.17-.095.254-.214.254-.356zm-2.256-1.394c.027-.274.11-.484.25-.63s.325-.22.56-.22.407.073.535.217.197.356.206.635h-1.55zm5.274-1.365c.07.06.102.148.102.268s-.03.215-.088.274-.166.097-.323.117l-.206.02c-.27.026-.467.12-.593.274s-.188.35-.188.584v1.44c0 .133-.042.234-.124.305s-.186.106-.308.106-.226-.035-.305-.106-.12-.173-.12-.305v-2.655c0-.128.04-.226.12-.294s.18-.104.3-.104a.41.41 0 0 1 .288.1c.073.066.11.162.11.285v.274a1.02 1.02 0 0 1 .387-.467c.17-.11.363-.17.573-.186l.095-.007a.38.38 0 0 1 .281.075zm2.626 2.58c.142.266.34.47.6.61s.56.212.903.212.644-.07.903-.212.458-.345.597-.61.2-.575.2-.927-.07-.66-.2-.922a1.46 1.46 0 0 0-.597-.606c-.26-.142-.56-.212-.903-.212s-.644.07-.903.212-.458.343-.6.606-.212.57-.212.922.07.66.212.927zm2.352-.927c0 .356-.073.626-.22.8s-.358.274-.64.274c-.274 0-.485-.09-.63-.274s-.22-.453-.22-.8.075-.62.223-.805.36-.28.635-.28.485.093.63.28.22.453.22.805zm8.508-1.416c.195.217.292.57.292 1.053v1.688c0 .133-.04.235-.12.305s-.184.106-.312.106-.226-.035-.305-.106-.12-.172-.12-.305v-1.688c0-.252-.044-.43-.133-.538s-.226-.16-.407-.16c-.223 0-.403.077-.535.23s-.2.363-.2.628v1.53c0 .133-.04.235-.12.305s-.18.106-.305.106a.46.46 0 0 1-.31-.106c-.084-.07-.124-.172-.124-.305v-1.688c0-.252-.044-.43-.133-.538s-.226-.16-.407-.16c-.223 0-.4.077-.53.23s-.195.363-.195.628v1.53c0 .133-.042.235-.124.305s-.186.106-.308.106-.226-.035-.305-.106-.12-.172-.12-.305v-2.655c0-.128.042-.226.124-.294s.186-.104.3-.104.217.033.292.1.113.16.113.285v.164a1.05 1.05 0 0 1 .422-.418c.175-.095.378-.144.606-.144.502 0 .838.2 1.01.63.102-.192.25-.345.447-.46a1.29 1.29 0 0 1 .666-.17c.356 0 .635.108.83.325zm4.38.093c0-.124-.04-.22-.117-.294s-.184-.11-.308-.106-.232.038-.3.11-.117.17-.117.294v1.53c0 .26-.073.47-.217.628s-.336.237-.573.237c-.206 0-.358-.055-.454-.17s-.144-.292-.144-.53v-1.695c0-.124-.04-.22-.117-.294s-.184-.11-.316-.11-.232.038-.3.11-.117.17-.117.294v1.688c0 .923.41 1.385 1.234 1.385.224 0 .425-.05.604-.148a1.11 1.11 0 0 0 .425-.423v.17c0 .12.038.212.11.28a.42.42 0 0 0 .294.102c.128 0 .232-.038.312-.11a.37.37 0 0 0 .12-.288v-2.66zm3.867-.075c.197.228.294.573.294 1.035v1.688c0 .128-.038.228-.113.3s-.18.11-.312.11-.24-.038-.316-.11-.117-.175-.117-.3v-1.64c0-.26-.05-.45-.148-.57s-.252-.18-.462-.18c-.248 0-.445.077-.593.232s-.224.363-.224.624v1.53c0 .128-.04.228-.117.3s-.184.11-.316.11-.237-.038-.312-.11-.113-.175-.113-.3v-2.655c0-.12.038-.215.117-.288s.184-.11.316-.11c.12 0 .217.035.292.106s.113.164.113.28v.186a1.15 1.15 0 0 1 .46-.431c.192-.1.41-.15.65-.15.405 0 .703.115.9.343zm4.542-1.378a.37.37 0 0 0-.124-.288c-.082-.073-.188-.11-.32-.113s-.23.035-.305.106-.113.164-.113.28v1.626a1.05 1.05 0 0 0-.431-.425c-.186-.1-.4-.15-.644-.15-.292 0-.55.07-.774.212s-.398.343-.524.604a2.07 2.07 0 0 0-.188.911 2.14 2.14 0 0 0 .188.922c.126.268.303.476.53.622a1.4 1.4 0 0 0 .772.219c.243 0 .458-.05.648-.157s.334-.25.436-.438v.17a.38.38 0 0 0 .117.294c.08.073.18.11.3.11s.23-.038.308-.11.117-.17.117-.294V47.5zm-.852 2.776c0 .347-.075.615-.223.803s-.358.28-.635.28c-.27 0-.48-.095-.63-.288s-.226-.462-.226-.8c0-.34.075-.604.226-.788s.363-.274.637-.274.48.093.628.28.223.45.223.8zm2.493 1.537c-.26-.142-.458-.345-.6-.61s-.212-.573-.212-.927.07-.66.212-.922.34-.465.6-.606.56-.212.903-.212.644.07.903.212a1.46 1.46 0 0 1 .597.606c.14.263.2.57.2.922s-.07.66-.2.927-.338.47-.597.61-.56.212-.903.212-.644-.07-.903-.212zm1.533-.728c.146-.184.22-.453.22-.8s-.073-.622-.22-.805-.356-.28-.63-.28-.487.093-.635.28-.223.453-.223.805.073.626.22.8.356.274.63.274c.28 0 .493-.09.64-.274zm3.93.124a1.44 1.44 0 0 0 .586.604 1.76 1.76 0 0 0 .883.21 2.11 2.11 0 0 0 .575-.08 1.83 1.83 0 0 0 .493-.217.48.48 0 0 0 .168-.155c.033-.055.05-.124.05-.2 0-.095-.024-.175-.075-.24s-.113-.095-.186-.095c-.05 0-.1.01-.15.03s-.11.05-.18.093c-.11.06-.2.108-.3.142s-.2.05-.305.05c-.283 0-.502-.093-.655-.28s-.23-.45-.23-.792.077-.613.23-.8.372-.28.655-.28a.87.87 0 0 1 .316.051c.09.035.186.082.288.142.053.03.108.06.164.082s.106.035.157.035c.077 0 .14-.03.188-.093a.38.38 0 0 0 .073-.243c0-.146-.073-.268-.22-.363-.137-.086-.294-.155-.476-.206a1.96 1.96 0 0 0-.538-.075c-.34 0-.637.073-.898.22s-.462.354-.606.622a1.92 1.92 0 0 0-.217.922 1.93 1.93 0 0 0 .206.912zm4.093.604c-.26-.142-.458-.345-.6-.61s-.212-.573-.212-.927.07-.66.212-.922.34-.465.6-.606.56-.212.903-.212.644.07.903.212a1.46 1.46 0 0 1 .597.606c.14.263.2.57.2.922s-.07.66-.2.927-.338.47-.597.61-.56.212-.903.212-.646-.07-.903-.212zm1.533-.728c.146-.184.22-.453.22-.8s-.073-.622-.22-.805-.356-.28-.63-.28-.487.093-.635.28-.224.453-.224.805.073.626.22.8.356.274.63.274.49-.09.64-.274zm7.028-1.172c0-.485-.097-.836-.292-1.053s-.474-.325-.83-.325a1.29 1.29 0 0 0-.666.17c-.197.115-.345.268-.447.46-.17-.42-.507-.63-1.01-.63-.228 0-.43.05-.606.144s-.32.235-.422.418v-.164c0-.124-.038-.22-.113-.285s-.172-.1-.292-.1-.228.035-.3.104-.124.166-.124.294v2.655c0 .133.04.235.12.305s.18.106.305.106.226-.035.308-.106.124-.172.124-.305v-1.53c0-.265.064-.476.195-.628s.308-.23.53-.23c.18 0 .32.053.407.16s.133.285.133.538v1.688c0 .133.04.235.124.305a.46.46 0 0 0 .31.106c.124 0 .226-.035.305-.106s.12-.172.12-.305v-1.53c0-.265.066-.476.2-.628s.312-.23.535-.23c.18 0 .32.053.407.16s.133.285.133.538v1.688c0 .133.04.235.12.305s.18.106.305.106.232-.035.312-.106.12-.172.12-.305v-1.688zm3.852 1.228c.05.06.073.14.073.24 0 .142-.084.26-.254.356a2.33 2.33 0 0 1-.529.21c-.197.053-.385.08-.562.08-.54 0-.967-.155-1.283-.467s-.473-.737-.473-1.276c0-.343.07-.646.206-.912s.33-.47.58-.617.53-.22.847-.22c.3 0 .564.066.8.2s.398.32.522.562.186.53.186.858c0 .197-.086.294-.26.294H66.87c.026.316.117.55.268.697s.37.223.66.223a1.21 1.21 0 0 0 .387-.055c.113-.038.24-.086.38-.15.137-.073.237-.11.3-.11.077-.002.14.027.188.086zM67.12 49.36c-.14.146-.224.356-.25.63h1.55c-.01-.28-.077-.49-.206-.635s-.305-.217-.535-.217-.42.075-.56.22zm5.648 2.015c0-.095-.024-.175-.075-.24s-.113-.095-.184-.102c-.05 0-.1.01-.15.03a1.16 1.16 0 0 0-.179.093c-.11.06-.2.108-.3.142s-.2.05-.305.05c-.283 0-.502-.093-.655-.28s-.23-.45-.23-.792.077-.613.23-.8.372-.28.655-.28a.87.87 0 0 1 .316.051c.09.035.186.082.288.142a1.25 1.25 0 0 0 .164.082c.053.024.106.035.157.035.078 0 .14-.03.188-.093a.38.38 0 0 0 .073-.243c0-.146-.073-.268-.22-.363-.137-.086-.294-.155-.476-.206a1.96 1.96 0 0 0-.538-.075c-.338 0-.637.073-.898.22s-.462.354-.606.622a1.92 1.92 0 0 0-.217.923c0 .465.12.852.363 1.155s.575.49.995.553l-.055.473c-.004.042.007.075.03.1s.057.038.1.038c.018 0 .064-.01.137-.024s.133-.024.18-.024c.06 0 .104.016.137.042s.05.064.05.11c0 .137-.115.206-.343.206-.102 0-.23-.018-.385-.055-.064-.018-.115-.01-.155.03s-.057.09-.057.155c0 .042.01.077.033.11s.053.058.095.075c.128.047.288.07.48.07.28 0 .496-.055.648-.164a.5.5 0 0 0 .23-.425c0-.148-.05-.263-.148-.347a.54.54 0 0 0-.361-.126c-.03 0-.084.005-.157.013l.026-.24c.352-.027.65-.124.898-.288a.48.48 0 0 0 .168-.155c.033-.055.05-.124.05-.2zm3.2-2.49c.226.23.34.582.34 1.053v1.672c0 .124-.038.22-.11.292s-.175.106-.3.106c-.12 0-.217-.038-.292-.11s-.113-.168-.113-.288v-.15a.88.88 0 0 1-.367.418 1.11 1.11 0 0 1-.58.15 1.36 1.36 0 0 1-.611-.137c-.184-.09-.327-.217-.43-.378s-.157-.34-.157-.535c0-.248.062-.44.188-.584s.33-.245.615-.3.675-.095 1.172-.095h.173v-.157c0-.223-.05-.387-.144-.49s-.252-.155-.467-.155c-.133 0-.268.02-.405.058L74 49.4c-.12.06-.206.088-.26.088-.082 0-.15-.03-.2-.088s-.08-.137-.08-.232c0-.077.02-.146.058-.2s.104-.11.195-.162a2.28 2.28 0 0 1 .573-.206 2.92 2.92 0 0 1 .655-.075c.465.002.812.117 1.038.35zm-.692 2.296c.144-.153.217-.352.217-.593v-.144h-.124c-.308 0-.544.013-.712.042s-.3.075-.363.144-.11.16-.11.28c0 .146.05.266.155.36s.23.142.38.142c.228-.002.414-.077.558-.232zm6.87-1.243c0-.47-.115-.823-.34-1.053s-.573-.347-1.038-.35a2.92 2.92 0 0 0-.655.075 2.28 2.28 0 0 0-.573.206c-.09.05-.155.104-.195.162s-.058.124-.058.2c0 .095.027.173.08.232s.12.088.2.088c.055 0 .142-.03.26-.088l.487-.168c.137-.038.272-.058.405-.058.215 0 .372.05.467.155s.144.268.144.49v.157h-.173c-.498 0-.89.03-1.172.095s-.49.166-.615.3-.188.336-.188.584c0 .197.05.376.157.535s.248.288.43.378a1.36 1.36 0 0 0 .611.137 1.11 1.11 0 0 0 .58-.15.88.88 0 0 0 .367-.418v.15c0 .12.038.215.113.288s.173.11.292.11c.126 0 .228-.035.3-.106s.11-.168.11-.292v-1.672zm-.816.65c0 .24-.073.44-.217.593s-.33.23-.558.232c-.15 0-.28-.05-.38-.142s-.155-.215-.155-.36c0-.12.038-.212.11-.28s.195-.115.363-.144.405-.042.712-.042h.124v.144zm4.944-1.927c.078.073.117.17.117.294v3.89c0 .12-.042.215-.124.288a.46.46 0 0 1-.316.111c-.128 0-.23-.035-.305-.106s-.113-.164-.113-.28v-1.414c-.1.184-.246.325-.436.43a1.31 1.31 0 0 1-.642.155c-.292 0-.55-.07-.774-.212s-.398-.343-.524-.604-.188-.564-.188-.912.062-.655.188-.922.3-.473.53-.622.484-.22.772-.22c.243 0 .458.05.648.155a1.05 1.05 0 0 1 .436.436v-.173c0-.124.04-.22.117-.294s.18-.11.3-.11a.43.43 0 0 1 .305.111zm-.958 2.42c.148-.188.224-.454.224-.797s-.075-.615-.224-.803-.36-.28-.635-.28-.48.095-.63.288-.226.462-.226.8c0 .338.075.6.226.785s.363.28.637.28.48-.093.628-.28zm5.177-2.126c0-.124-.04-.22-.117-.294s-.184-.11-.307-.106-.232.038-.3.11-.117.17-.117.294v1.53c0 .26-.073.47-.217.628s-.336.237-.573.237c-.206 0-.358-.055-.454-.17s-.144-.292-.144-.53v-1.695c0-.124-.04-.22-.117-.294s-.184-.11-.316-.11-.232.038-.3.11-.117.17-.117.294v1.688c0 .923.41 1.385 1.234 1.385.224 0 .425-.05.604-.148a1.11 1.11 0 0 0 .425-.423v.17c0 .12.038.212.11.28a.42.42 0 0 0 .294.102c.128 0 .232-.038.312-.11a.37.37 0 0 0 .12-.288v-2.66zm1.082-1.142c-.09-.084-.137-.195-.137-.332s.046-.248.137-.33.215-.124.37-.124.272.042.367.124.142.193.142.33-.046.248-.137.332-.215.126-.37.126-.28-.042-.372-.126zm.066 4.095c-.08-.07-.12-.173-.12-.305v-2.648c0-.133.04-.232.12-.3s.18-.104.305-.104.226.035.308.104.124.168.124.3v2.648c0 .133-.042.234-.124.305s-.186.106-.308.106-.226-.035-.305-.106zm1.657-.41c0 .146.05.27.144.367a.48.48 0 0 0 .363.148.49.49 0 0 0 .363-.148.51.51 0 0 0 .144-.367c0-.146-.05-.27-.144-.367a.48.48 0 0 0-.363-.148.49.49 0 0 0-.363.148.51.51 0 0 0-.144.367z"/></g><defs><clipPath id="A"><path fill="#fff" transform="translate(0 .69)" d="M0 0h96v52.62H0z"/></clipPath></defs></svg>