<svg xmlns="http://www.w3.org/2000/svg" width="96" height="25" fill="none" xmlns:v="https://vecta.io/nano"><path d="M95.9.448a.26.26 0 0 0-.184-.216c-.1-.034-.206-.002-.276.073L95.263.5l-.574.568L92.402 3.1l-2.537 1.984c-.001-.018-.005-.034-.006-.053-11.8 8.877-25.697 12.85-39.255 13.202l-.347.007-1.14.018-1.117.018v.001-.001c-13.226 0-23.806-3.28-31.593-7.037C10.812 8.612 5.87 5.347 1.89 1.6l-.58-.544L.738.498.55.303C.48.23.372.197.276.23.178.258.106.343.092.447.04.83 0 1.314 0 1.876v.17c.03 1.452.516 2.57 1.826 3.794.317.325 17.923 18.37 46.174 18.375v-.005.005C76.25 24.21 93.86 6.164 94.175 5.84c1.31-1.223 1.798-2.343 1.825-3.794v-.17C96 1.314 95.964.83 95.9.448z" fill="#000"/></svg>