<svg xmlns="http://www.w3.org/2000/svg" width="96" height="25" fill="none" xmlns:v="https://vecta.io/nano"><path d="M95.9.83a.26.26 0 0 0-.184-.216c-.1-.034-.206-.002-.276.073l-.187.194-.574.568-2.287 2.032-2.537 1.984c-.001-.018-.005-.034-.006-.053-11.8 8.877-25.697 12.85-39.255 13.202l-.347.007-2.258.036v.001-.001c-13.226 0-23.806-3.28-31.593-7.037C10.812 8.992 5.87 5.728 1.89 1.99l-.58-.544L.738.878.55.684C.48.6.372.578.276.61.178.64.106.723.092.828.04 1.21 0 1.695 0 2.256v.17c.03 1.452.516 2.57 1.826 3.794C2.142 6.545 19.75 24.59 48 24.595V24.6v.005C76.25 24.6 93.86 6.545 94.175 6.22c1.31-1.223 1.798-2.343 1.825-3.794v-.17C96 1.695 95.964 1.21 95.9.83z" fill="#ff7020"/></svg>