<svg xmlns="http://www.w3.org/2000/svg" width="96" height="54" fill="none" xmlns:v="https://vecta.io/nano"><g clip-path="url(#A)" fill="#ff7020"><path d="M49.98 5.36a2.29 2.29 0 0 0 2.279-2.292A2.29 2.29 0 0 0 49.979.774c-1.255 0-2.28 1.02-2.28 2.292.006 1.265 1.023 2.292 2.28 2.292zm9.096 20.194h.013c.882 0 1.654-.218 2.26-.514.605-.29 1.036-.63 1.25-.925a1.2 1.2 0 0 0 .225-.687c0-.186-.045-.385-.135-.578-.225-.443-.69-.655-1.107-.66-.077 0-.154.007-.232.026-.225.058-.386.14-.54.193-.16.05-.328.096-.624.096-.483 0-.773-.193-.966-.385-.04-.038-.328-.41-.438-.873-.18-.764-.193-1.856-.2-2.62.013-.283.013-15.725.013-16.136.006-.57-.3-1.034-.695-1.303-.405-.283-.914-.398-1.43-.405-.52.006-1.036.135-1.455.405-.412.27-.715.72-.715 1.278v18.274c0 1.02.283 2.215 1.036 3.172.74.95 1.963 1.644 3.74 1.644zm8.78-15.045c1.075-1.548 2.208-1.734 2.736-1.74h.006c.863.006 1.745.578 2.002 1.94a4 4 0 0 1 .058.661c0 .938-.354 1.746-.895 2.37-1.287 1.438-3.084 1.85-4.976 2.048l-.006-.507c0-1.682.232-3.576 1.075-4.77zm-2.84 12.86c1.4 1.348 3.335 2.17 5.742 2.17h.007c1.307 0 2.523-.23 3.43-.6.457-.193.837-.417 1.12-.693.277-.27.463-.597.463-.97 0-.058-.006-.116-.013-.18-.1-.63-.605-1.053-1.19-1.047-.142 0-.3.02-.43.07-.708.225-1.397.353-2.247.353-.232 0-.483-.013-.747-.032-1.783-.14-2.826-1.22-3.463-2.312a6.9 6.9 0 0 1-.637-1.522c-.052-.186-.1-.34-.116-.47 2.433-.103 4.538-.392 6.527-1.45 1.017-.57 2.272-1.496 2.93-2.774.406-.835.618-1.79.624-2.665 0-.276-.026-.54-.064-.8-.412-2.357-2.588-4.148-5.96-4.135-2.343 0-5.362.93-7.197 3.782-.708 1.117-1.66 3.255-1.66 5.952 0 .642.058 1.323.18 2.023.4 2.087 1.294 3.943 2.704 5.297zm-41.695 1.496c.406.276.92.398 1.423.405.52 0 1.043-.128 1.455-.405.412-.27.715-.72.715-1.278l.006-10.043c.032-.77.232-1.81.69-2.62.463-.815 1.133-1.387 2.17-1.393.483 0 .81.148 1.075.392.406.366.637.976.766 1.592.122.616.135 1.233.135 1.58v10.46c0 .584.315 1.04.74 1.3.43.27.972.392 1.506.398.547 0 1.1-.128 1.54-.398.438-.263.766-.713.766-1.284V13.54c.032-.77.232-1.804.69-2.613.464-.815 1.127-1.387 2.17-1.393a1.52 1.52 0 0 1 1.081.392c.4.366.637.976.76 1.592s.135 1.233.135 1.58l.007 10.46c-.007.584.31 1.04.74 1.3s.966.392 1.506.398c.554 0 1.1-.128 1.538-.398.438-.263.766-.713.766-1.284v-9.85c0-2.498-.483-4.36-1.403-5.618-.908-1.26-2.26-1.875-3.856-1.87-1.532 0-2.704.745-3.528 1.592a8.03 8.03 0 0 0-1.242 1.714c-.373-1.002-.92-1.78-1.61-2.33-.824-.66-1.854-.976-3.013-.976-1.97 0-3.315 1.207-4.14 2.318V8.46c.006-.57-.283-1.027-.695-1.303-.405-.276-.914-.405-1.43-.405s-1.036.128-1.455.405c-.412.263-.714.713-.714 1.278v15.128a1.59 1.59 0 0 0 .708 1.303zm28.105-17.71c-.406-.276-.92-.405-1.43-.405-.515 0-1.036.128-1.448.405-.412.263-.72.713-.714 1.278v15.128c0 .572.3 1.034.695 1.303.406.276.92.398 1.43.405.52 0 1.043-.128 1.455-.405.412-.27.72-.72.715-1.278V8.454a1.55 1.55 0 0 0-.702-1.297zm44.553 7.802c-.013-.103-.084-.186-.187-.218s-.206 0-.277.07c0 0-.058.064-.187.193s-.315.32-.573.565a39.16 39.16 0 0 1-2.285 2.023c-.72.597-1.564 1.265-2.536 1.978a4.46 4.46 0 0 0-.122-.803c-.258-1.047-.863-1.843-1.616-2.48-1.126-.957-2.562-1.58-3.747-2.267-.586-.34-1.12-.694-1.506-1.092-.386-.392-.637-.828-.715-1.36a2.3 2.3 0 0 1-.019-.302c0-.552.212-1.13.657-1.56.238-.23.96-.7 1.963-.7 1.255 0 2.31.552 2.9.552.67.006 1.25-.385 1.43-1.04.032-.128.052-.257.052-.392 0-.745-.612-1.432-1.455-1.644 0 0-.76-.257-2.356-.257-2.227 0-4.05.552-5.337 1.522-1.28.963-2.008 2.356-2.002 3.955a5.9 5.9 0 0 0 .161 1.361c.476 1.978 2.414 3.044 4.197 4.007.895.475 1.77.925 2.427 1.413.663.488 1.088 1.002 1.172 1.592.02.096.026.205.026.295 0 .546-.22 1.047-.682 1.445-.47.385-1.197.66-2.24.68h-.097c-1.133 0-2.105-.327-2.742-.6a1.92 1.92 0 0 0-.83-.199c-.682-.013-1.25.456-1.34 1.13-.006.064-.013.128-.013.2 0 .482.258.886.612 1.188.528.47 1.28.777 1.996.99-7.873 3.962-18.816 7.538-32.65 7.538-13.97 0-24.983-3.647-32.875-7.654 1.63-.308 2.942-.976 3.92-1.862a6.38 6.38 0 0 0 2.092-4.752c0-.41-.04-.822-.11-1.233-.245-1.368-.985-2.453-1.938-3.34-1.43-1.33-3.347-2.267-4.937-3.204-.798-.462-1.513-.93-2.047-1.432-.534-.494-.875-1.02-.978-1.612a3.13 3.13 0 0 1-.045-.494 3.07 3.07 0 0 1 .933-2.19c.637-.616 1.635-1.066 3.103-1.066.792 0 1.725.135 2.8.45.315.1.6.135.862.14.74.013 1.288-.398 1.513-.99a1.7 1.7 0 0 0 .122-.623c0-.507-.264-.937-.637-1.233-.373-.302-.856-.5-1.358-.6-1.004-.2-2.1-.34-3.238-.34h-.032c-3.058 0-5.28.86-6.74 2.15-1.455 1.29-2.13 2.992-2.13 4.617 0 .36.032.72.097 1.066.45 2.376 2.4 3.89 4.397 5.124 2.002 1.22 4.08 2.215 4.88 3.34.43.597.637 1.323.637 2.016 0 .706-.22 1.387-.61 1.87-.753.912-2.176 1.528-3.7 1.528-.966 0-1.97-.238-2.878-.783-.05-.032-.193-.11-.206-.116-2.19-1.432-3.953-2.78-5.29-3.885-1.017-.84-1.777-1.535-2.285-2.023L.81 15.03l-.187-.193c-.07-.07-.18-.103-.277-.07-.097.026-.167.11-.187.218-.05.38-.1.867-.1 1.426v.167c.026 1.45.515 2.568 1.828 3.788.315.328 17.922 18.326 46.175 18.326 28.253-.006 45.86-18.005 46.175-18.326 1.313-1.22 1.796-2.337 1.822-3.788v-.167c0-.59-.04-1.072-.1-1.45z"/><path fill-rule="evenodd" d="M7.58 47.48c0 .137.046.248.137.332s.217.126.372.126.28-.042.37-.126.137-.195.137-.332-.046-.248-.142-.33-.217-.124-.367-.124-.28.042-.37.124-.137.193-.137.33zm.084 4.12c0 .133.04.234.12.305s.18.106.305.106.226-.035.308-.106.124-.173.124-.305v-2.648c0-.133-.042-.232-.124-.3s-.184-.104-.308-.104-.226.035-.305.104-.12.168-.12.3v2.648zm-.768-4.396c-.093-.073-.195-.11-.3-.11-.168 0-.3.077-.36.235L4.65 50.834 3.073 47.33a.4.4 0 0 0-.155-.175c-.066-.038-.14-.057-.217-.057-.12 0-.226.038-.32.11s-.142.166-.142.28c0 .044.015.1.042.164l1.894 4.088c.04.086.104.153.188.2a.53.53 0 0 0 .27.073.53.53 0 0 0 .27-.073c.084-.046.146-.115.188-.2l1.9-4.088c.03-.064.042-.122.042-.173 0-.11-.046-.2-.137-.274zm5.133 1.405a.35.35 0 0 1 .201-.062c.106 0 .2.035.285.106a.33.33 0 0 1 .126.263.34.34 0 0 1-.042.164l-1.27 2.655c-.042.086-.1.153-.175.2a.47.47 0 0 1-.25.069.49.49 0 0 1-.25-.069.44.44 0 0 1-.181-.199L9.2 49.082c-.022-.046-.035-.097-.035-.157a.33.33 0 0 1 .135-.268c.088-.073.2-.11.305-.11.164 0 .285.08.363.24l.962 2.124.954-2.113c.038-.082.086-.144.148-.186zm4.12 2.772c0-.102-.024-.18-.073-.24s-.11-.09-.188-.086c-.064 0-.164.038-.3.11l-.38.15c-.11.038-.24.055-.387.055-.3 0-.51-.075-.66-.223s-.24-.38-.268-.697h2.024c.175 0 .26-.097.26-.294 0-.33-.062-.615-.186-.858s-.3-.43-.522-.562-.49-.2-.8-.2c-.316 0-.597.073-.847.22s-.442.352-.58.617-.206.57-.206.912c0 .54.157.965.473 1.276s.743.467 1.283.467c.177 0 .365-.027.562-.08s.374-.124.53-.2c.17-.095.254-.214.254-.356zm-2.256-1.394c.027-.274.11-.484.25-.63s.325-.22.56-.22.407.073.535.217.197.356.206.635h-1.55zm5.274-1.365c.07.06.102.148.102.268s-.03.215-.088.274-.166.097-.323.117l-.206.02c-.27.026-.467.12-.593.274s-.188.35-.188.584v1.44c0 .133-.042.234-.124.305s-.186.106-.308.106-.226-.035-.305-.106-.12-.173-.12-.305v-2.655c0-.128.04-.226.12-.294s.18-.104.3-.104a.41.41 0 0 1 .288.1c.073.066.11.162.11.285v.274a1.02 1.02 0 0 1 .387-.467c.17-.11.363-.17.573-.186l.095-.007a.38.38 0 0 1 .281.075zm2.626 2.58c.142.266.34.47.6.61s.56.212.903.212.644-.07.903-.212.458-.345.597-.61.2-.575.2-.927-.07-.66-.2-.922a1.46 1.46 0 0 0-.597-.606c-.26-.142-.56-.212-.903-.212s-.644.07-.903.212-.458.343-.6.606-.212.57-.212.922.07.66.212.927zm2.352-.927c0 .356-.073.626-.22.8s-.358.274-.64.274c-.274 0-.485-.09-.63-.274s-.22-.453-.22-.8.075-.62.223-.805.36-.28.635-.28.485.093.63.28.22.453.22.805zm8.508-1.416c.195.217.292.57.292 1.053v1.688c0 .133-.04.235-.12.305s-.184.106-.312.106-.226-.035-.305-.106-.12-.172-.12-.305v-1.688c0-.252-.044-.43-.133-.538s-.226-.16-.407-.16c-.223 0-.403.077-.535.23s-.2.363-.2.628v1.53c0 .133-.04.235-.12.305s-.18.106-.305.106a.46.46 0 0 1-.31-.106c-.084-.07-.124-.172-.124-.305v-1.688c0-.252-.044-.43-.133-.538s-.226-.16-.407-.16c-.223 0-.4.077-.53.23s-.195.363-.195.628v1.53c0 .133-.042.235-.124.305s-.186.106-.308.106-.226-.035-.305-.106-.12-.172-.12-.305v-2.655c0-.128.042-.226.124-.294s.186-.104.3-.104.217.033.292.1.113.16.113.285v.164a1.05 1.05 0 0 1 .422-.418c.175-.095.378-.144.606-.144.502 0 .838.2 1.01.63.102-.192.25-.345.447-.46a1.29 1.29 0 0 1 .666-.17c.356 0 .635.108.83.325zm4.38.093c0-.124-.04-.22-.117-.294s-.184-.11-.308-.106-.232.038-.3.11-.117.17-.117.294v1.53c0 .26-.073.47-.217.628s-.336.237-.573.237c-.206 0-.358-.055-.454-.17s-.144-.292-.144-.53v-1.695c0-.124-.04-.22-.117-.294s-.184-.11-.316-.11-.232.038-.3.11-.117.17-.117.294v1.688c0 .923.41 1.385 1.234 1.385.224 0 .425-.05.604-.148a1.11 1.11 0 0 0 .425-.423v.17c0 .12.038.212.11.28a.42.42 0 0 0 .294.102c.128 0 .232-.038.312-.11a.37.37 0 0 0 .12-.288v-2.66zm3.867-.075c.197.228.294.573.294 1.035v1.688c0 .128-.038.228-.113.3s-.18.11-.312.11-.24-.038-.316-.11-.117-.175-.117-.3v-1.64c0-.26-.05-.45-.148-.57s-.252-.18-.462-.18c-.248 0-.445.077-.593.232s-.224.363-.224.624v1.53c0 .128-.04.228-.117.3s-.184.11-.316.11-.237-.038-.312-.11-.113-.175-.113-.3v-2.655c0-.12.038-.215.117-.288s.184-.11.316-.11c.12 0 .217.035.292.106s.113.164.113.28v.186a1.15 1.15 0 0 1 .46-.431c.192-.1.41-.15.65-.15.405 0 .703.115.9.343zm4.542-1.378a.37.37 0 0 0-.124-.288c-.082-.073-.188-.11-.32-.113s-.23.035-.305.106-.113.164-.113.28v1.626a1.05 1.05 0 0 0-.431-.425c-.186-.1-.4-.15-.644-.15-.292 0-.55.07-.774.212s-.398.343-.524.604a2.07 2.07 0 0 0-.188.911 2.14 2.14 0 0 0 .188.922c.126.268.303.476.53.622a1.4 1.4 0 0 0 .772.219c.243 0 .458-.05.648-.157s.334-.25.436-.438v.17a.38.38 0 0 0 .117.294c.08.073.18.11.3.11s.23-.038.308-.11.117-.17.117-.294V47.5zm-.852 2.776c0 .347-.075.615-.223.803s-.358.28-.635.28c-.27 0-.48-.095-.63-.288s-.226-.462-.226-.8c0-.34.075-.604.226-.788s.363-.274.637-.274.48.093.628.28.223.45.223.8zm2.493 1.537c-.26-.142-.458-.345-.6-.61s-.212-.573-.212-.927.07-.66.212-.922.34-.465.6-.606.56-.212.903-.212.644.07.903.212a1.46 1.46 0 0 1 .597.606c.14.263.2.57.2.922s-.07.66-.2.927-.338.47-.597.61-.56.212-.903.212-.644-.07-.903-.212zm1.533-.728c.146-.184.22-.453.22-.8s-.073-.622-.22-.805-.356-.28-.63-.28-.487.093-.635.28-.223.453-.223.805.073.626.22.8.356.274.63.274c.28 0 .493-.09.64-.274zm3.93.124a1.44 1.44 0 0 0 .586.604 1.76 1.76 0 0 0 .883.21 2.11 2.11 0 0 0 .575-.08 1.83 1.83 0 0 0 .493-.217.48.48 0 0 0 .168-.155c.033-.055.05-.124.05-.2 0-.095-.024-.175-.075-.24s-.113-.095-.186-.095c-.05 0-.1.01-.15.03s-.11.05-.18.093c-.11.06-.2.108-.3.142s-.2.05-.305.05c-.283 0-.502-.093-.655-.28s-.23-.45-.23-.792.077-.613.23-.8.372-.28.655-.28a.87.87 0 0 1 .316.051c.09.035.186.082.288.142.053.03.108.06.164.082s.106.035.157.035c.077 0 .14-.03.188-.093a.38.38 0 0 0 .073-.243c0-.146-.073-.268-.22-.363-.137-.086-.294-.155-.476-.206a1.96 1.96 0 0 0-.538-.075c-.34 0-.637.073-.898.22s-.462.354-.606.622a1.92 1.92 0 0 0-.217.922 1.93 1.93 0 0 0 .206.912zm4.093.604c-.26-.142-.458-.345-.6-.61s-.212-.573-.212-.927.07-.66.212-.922.34-.465.6-.606.56-.212.903-.212.644.07.903.212a1.46 1.46 0 0 1 .597.606c.14.263.2.57.2.922s-.07.66-.2.927-.338.47-.597.61-.56.212-.903.212-.646-.07-.903-.212zm1.533-.728c.146-.184.22-.453.22-.8s-.073-.622-.22-.805-.356-.28-.63-.28-.487.093-.635.28-.224.453-.224.805.073.626.22.8.356.274.63.274.49-.09.64-.274zm7.028-1.172c0-.485-.097-.836-.292-1.053s-.474-.325-.83-.325a1.29 1.29 0 0 0-.666.17c-.197.115-.345.268-.447.46-.17-.42-.507-.63-1.01-.63-.228 0-.43.05-.606.144s-.32.235-.422.418v-.164c0-.124-.038-.22-.113-.285s-.172-.1-.292-.1-.228.035-.3.104-.124.166-.124.294v2.655c0 .133.04.235.12.305s.18.106.305.106.226-.035.308-.106.124-.172.124-.305v-1.53c0-.265.064-.476.195-.628s.308-.23.53-.23c.18 0 .32.053.407.16s.133.285.133.538v1.688c0 .133.04.235.124.305a.46.46 0 0 0 .31.106c.124 0 .226-.035.305-.106s.12-.172.12-.305v-1.53c0-.265.066-.476.2-.628s.312-.23.535-.23c.18 0 .32.053.407.16s.133.285.133.538v1.688c0 .133.04.235.12.305s.18.106.305.106.232-.035.312-.106.12-.172.12-.305v-1.688zm3.852 1.228c.05.06.073.14.073.24 0 .142-.084.26-.254.356a2.33 2.33 0 0 1-.529.21c-.197.053-.385.08-.562.08-.54 0-.967-.155-1.283-.467s-.473-.737-.473-1.276c0-.343.07-.646.206-.912s.33-.47.58-.617.53-.22.847-.22c.3 0 .564.066.8.2s.398.32.522.562.186.53.186.858c0 .197-.086.294-.26.294H66.87c.026.316.117.55.268.697s.37.223.66.223a1.21 1.21 0 0 0 .387-.055c.113-.038.24-.086.38-.15.137-.073.237-.11.3-.11.077-.002.14.027.188.086zM67.12 49.36c-.14.146-.224.356-.25.63h1.55c-.01-.28-.077-.49-.206-.635s-.305-.217-.535-.217-.42.075-.56.22zm5.648 2.015c0-.095-.024-.175-.075-.24s-.113-.095-.184-.102c-.05 0-.1.01-.15.03a1.16 1.16 0 0 0-.179.093c-.11.06-.2.108-.3.142s-.2.05-.305.05c-.283 0-.502-.093-.655-.28s-.23-.45-.23-.792.077-.613.23-.8.372-.28.655-.28a.87.87 0 0 1 .316.051c.09.035.186.082.288.142a1.25 1.25 0 0 0 .164.082c.053.024.106.035.157.035.078 0 .14-.03.188-.093a.38.38 0 0 0 .073-.243c0-.146-.073-.268-.22-.363-.137-.086-.294-.155-.476-.206a1.96 1.96 0 0 0-.538-.075c-.338 0-.637.073-.898.22s-.462.354-.606.622a1.92 1.92 0 0 0-.217.923c0 .465.12.852.363 1.155s.575.49.995.553l-.055.473c-.004.042.007.075.03.1s.057.038.1.038c.018 0 .064-.01.137-.024s.133-.024.18-.024c.06 0 .104.016.137.042s.05.064.05.11c0 .137-.115.206-.343.206-.102 0-.23-.018-.385-.055-.064-.018-.115-.01-.155.03s-.057.09-.057.155c0 .042.01.077.033.11s.053.058.095.075c.128.047.288.07.48.07.28 0 .496-.055.648-.164a.5.5 0 0 0 .23-.425c0-.148-.05-.263-.148-.347a.54.54 0 0 0-.361-.126c-.03 0-.084.005-.157.013l.026-.24c.352-.027.65-.124.898-.288a.48.48 0 0 0 .168-.155c.033-.055.05-.124.05-.2zm3.2-2.49c.226.23.34.582.34 1.053v1.672c0 .124-.038.22-.11.292s-.175.106-.3.106c-.12 0-.217-.038-.292-.11s-.113-.168-.113-.288v-.15a.88.88 0 0 1-.367.418 1.11 1.11 0 0 1-.58.15 1.36 1.36 0 0 1-.611-.137c-.184-.09-.327-.217-.43-.378s-.157-.34-.157-.535c0-.248.062-.44.188-.584s.33-.245.615-.3.675-.095 1.172-.095h.173v-.157c0-.223-.05-.387-.144-.49s-.252-.155-.467-.155c-.133 0-.268.02-.405.058L74 49.4c-.12.06-.206.088-.26.088-.082 0-.15-.03-.2-.088s-.08-.137-.08-.232c0-.077.02-.146.058-.2s.104-.11.195-.162a2.28 2.28 0 0 1 .573-.206 2.92 2.92 0 0 1 .655-.075c.465.002.812.117 1.038.35zm-.692 2.296c.144-.153.217-.352.217-.593v-.144h-.124c-.308 0-.544.013-.712.042s-.3.075-.363.144-.11.16-.11.28c0 .146.05.266.155.36s.23.142.38.142c.228-.002.414-.077.558-.232zm6.87-1.243c0-.47-.115-.823-.34-1.053s-.573-.347-1.038-.35a2.92 2.92 0 0 0-.655.075 2.28 2.28 0 0 0-.573.206c-.09.05-.155.104-.195.162s-.058.124-.058.2c0 .095.027.173.08.232s.12.088.2.088c.055 0 .142-.03.26-.088l.487-.168c.137-.038.272-.058.405-.058.215 0 .372.05.467.155s.144.268.144.49v.157h-.173c-.498 0-.89.03-1.172.095s-.49.166-.615.3-.188.336-.188.584c0 .197.05.376.157.535s.248.288.43.378a1.36 1.36 0 0 0 .611.137 1.11 1.11 0 0 0 .58-.15.88.88 0 0 0 .367-.418v.15c0 .12.038.215.113.288s.173.11.292.11c.126 0 .228-.035.3-.106s.11-.168.11-.292v-1.672zm-.816.65c0 .24-.073.44-.217.593s-.33.23-.558.232c-.15 0-.28-.05-.38-.142s-.155-.215-.155-.36c0-.12.038-.212.11-.28s.195-.115.363-.144.405-.042.712-.042h.124v.144zm4.944-1.927c.078.073.117.17.117.294v3.89c0 .12-.042.215-.124.288a.46.46 0 0 1-.316.111c-.128 0-.23-.035-.305-.106s-.113-.164-.113-.28v-1.414c-.1.184-.246.325-.436.43a1.31 1.31 0 0 1-.642.155c-.292 0-.55-.07-.774-.212s-.398-.343-.524-.604-.188-.564-.188-.912.062-.655.188-.922.3-.473.53-.622.484-.22.772-.22c.243 0 .458.05.648.155a1.05 1.05 0 0 1 .436.436v-.173c0-.124.04-.22.117-.294s.18-.11.3-.11a.43.43 0 0 1 .305.111zm-.958 2.42c.148-.188.224-.454.224-.797s-.075-.615-.224-.803-.36-.28-.635-.28-.48.095-.63.288-.226.462-.226.8c0 .338.075.6.226.785s.363.28.637.28.48-.093.628-.28zm5.177-2.126c0-.124-.04-.22-.117-.294s-.184-.11-.307-.106-.232.038-.3.11-.117.17-.117.294v1.53c0 .26-.073.47-.217.628s-.336.237-.573.237c-.206 0-.358-.055-.454-.17s-.144-.292-.144-.53v-1.695c0-.124-.04-.22-.117-.294s-.184-.11-.316-.11-.232.038-.3.11-.117.17-.117.294v1.688c0 .923.41 1.385 1.234 1.385.224 0 .425-.05.604-.148a1.11 1.11 0 0 0 .425-.423v.17c0 .12.038.212.11.28a.42.42 0 0 0 .294.102c.128 0 .232-.038.312-.11a.37.37 0 0 0 .12-.288v-2.66zm1.082-1.142c-.09-.084-.137-.195-.137-.332s.046-.248.137-.33.215-.124.37-.124.272.042.367.124.142.193.142.33-.046.248-.137.332-.215.126-.37.126-.28-.042-.372-.126zm.066 4.095c-.08-.07-.12-.173-.12-.305v-2.648c0-.133.04-.232.12-.3s.18-.104.305-.104.226.035.308.104.124.168.124.3v2.648c0 .133-.042.234-.124.305s-.186.106-.308.106-.226-.035-.305-.106zm1.657-.41c0 .146.05.27.144.367a.48.48 0 0 0 .363.148.49.49 0 0 0 .363-.148.51.51 0 0 0 .144-.367c0-.146-.05-.27-.144-.367a.48.48 0 0 0-.363-.148.49.49 0 0 0-.363.148.51.51 0 0 0-.144.367z"/></g><defs><clipPath id="A"><path fill="#fff" transform="translate(0 .69)" d="M0 0h96v52.62H0z"/></clipPath></defs></svg>