
<svg width="96" height="39" viewBox="0 0 96 39" fill="none" xmlns="http://www.w3.org/2000/svg">
  <path
    d="M49.9087 5.35856C51.164 5.35856 52.1875 4.33119 52.1875 3.06623C52.1875 1.80128 51.164 0.773904 49.9087 0.773904C48.6534 0.773904 47.6298 1.79486 47.6298 3.06623C47.6363 4.33119 48.6534 5.35856 49.9087 5.35856ZM59.0047 25.5529H59.0175C59.8994 25.5529 60.6719 25.3346 61.277 25.0392C61.8821 24.7502 62.3134 24.4099 62.5259 24.1146C62.661 23.9219 62.7511 23.6843 62.7511 23.4275C62.7511 23.2413 62.7061 23.0422 62.616 22.8496C62.3907 22.4065 61.9272 22.1947 61.5087 22.1882C61.4315 22.1882 61.3543 22.1947 61.277 22.2139C61.0517 22.2717 60.8908 22.3552 60.7363 22.4065C60.5754 22.4579 60.408 22.5029 60.1119 22.5029C59.6291 22.5029 59.3394 22.3102 59.1463 22.1176C59.1076 22.0791 58.818 21.7066 58.7085 21.2443C58.5283 20.4802 58.5154 19.3886 58.509 18.6245C58.5218 18.342 58.5219 2.89928 58.5219 2.48833C58.5283 1.91686 58.2322 1.45454 57.8266 1.18485C57.4211 0.902326 56.9125 0.786746 56.3975 0.780325C55.8761 0.786746 55.3611 0.915168 54.9427 1.18485C54.5307 1.45454 54.2281 1.90402 54.2281 2.46265V20.7371C54.2281 21.758 54.5114 22.9523 55.2646 23.9091C56.0049 24.8594 57.2279 25.5529 59.0047 25.5529ZM67.7851 10.5083C68.8602 8.96079 69.9932 8.77458 70.521 8.76816H70.5275C71.3901 8.77458 72.272 9.34606 72.5295 10.7073C72.5681 10.9385 72.5874 11.1568 72.5874 11.3687C72.5874 12.3062 72.2334 13.1152 71.6926 13.7381C70.4052 15.1764 68.6091 15.5874 66.7166 15.7864C66.7166 15.6195 66.7101 15.4461 66.7101 15.2791C66.7101 13.5968 66.9419 11.7026 67.7851 10.5083ZM64.9463 23.3697C66.3561 24.7181 68.2808 25.54 70.6884 25.54H70.6948C72.0016 25.54 73.2183 25.3089 74.1259 24.93C74.583 24.7374 74.9628 24.5127 75.246 24.2366C75.5228 23.9669 75.7095 23.6394 75.7095 23.267C75.7095 23.2092 75.7031 23.1514 75.6967 23.0872C75.6065 22.4579 75.0915 22.0341 74.5057 22.0405C74.3641 22.0405 74.2161 22.0598 74.0744 22.1112C73.3663 22.3359 72.6775 22.4643 71.8278 22.4643C71.5961 22.4643 71.345 22.4515 71.0811 22.4322C69.2979 22.291 68.2551 21.2122 67.6178 20.1206C67.3023 19.5749 67.1028 19.0226 66.9805 18.5988C66.929 18.4126 66.8904 18.2585 66.8646 18.1301C69.2979 18.0274 71.4029 17.7384 73.3921 16.6789C74.4092 16.1075 75.6645 15.1828 76.3211 13.905C76.7266 13.0703 76.9391 12.1135 76.9455 11.2403C76.9455 10.9642 76.9197 10.7009 76.8811 10.4505C76.4691 8.09394 74.2933 6.30246 70.9201 6.3153C68.5769 6.3153 65.5578 7.24636 63.7232 10.0973C63.0151 11.2146 62.0624 13.3528 62.0624 16.0497C62.0624 16.6918 62.1203 17.3724 62.2426 18.0723C62.6417 20.1592 63.5365 22.0149 64.9463 23.3697ZM23.2517 24.8658C23.6572 25.1419 24.1722 25.2639 24.6743 25.2704C25.1957 25.2704 25.7172 25.1419 26.1292 24.8658C26.5412 24.5961 26.8437 24.1467 26.8437 23.588C26.8437 23.588 26.8501 13.5904 26.8501 13.5454C26.8823 12.7749 27.0819 11.7347 27.5389 10.9256C28.0024 10.1102 28.6719 9.53869 29.7083 9.53227C30.1911 9.53227 30.5194 9.67995 30.7833 9.92395C31.1889 10.29 31.4206 10.9 31.5494 11.5164C31.6717 12.1328 31.6846 12.7492 31.6846 13.096C31.6846 13.1794 31.6846 23.2862 31.6846 23.5559C31.6846 24.1402 32 24.5961 32.4249 24.8658C32.8562 25.1355 33.3969 25.2575 33.9312 25.2639C34.4784 25.2639 35.032 25.1355 35.4697 24.8658C35.9075 24.6026 36.2358 24.1531 36.2358 23.5816V13.539C36.2679 12.7685 36.4675 11.7347 36.9246 10.9256C37.388 10.1102 38.0511 9.53869 39.0939 9.53227C39.5703 9.53227 39.9051 9.67995 40.1754 9.92395C40.5746 10.29 40.8127 10.9 40.935 11.5164C41.0574 12.1328 41.0702 12.7492 41.0702 13.096C41.0702 13.1794 41.0766 22.9138 41.0766 23.5559C41.0702 24.1402 41.3857 24.5961 41.817 24.8658C42.2483 25.1355 42.7825 25.2575 43.3233 25.2639C43.8769 25.2639 44.4241 25.1355 44.8618 24.8658C45.2995 24.6026 45.6278 24.1531 45.6278 23.5816V13.7317C45.6278 11.2339 45.1451 9.37174 44.2245 8.11321C43.3168 6.85467 41.965 6.23825 40.3686 6.24467C38.8365 6.24467 37.6648 6.98952 36.8409 7.8371C36.2808 8.42142 35.8688 9.05069 35.5985 9.55153C35.2251 8.54984 34.6779 7.77289 33.9891 7.22068C33.1651 6.5593 32.1352 6.24467 30.9765 6.24467C29.0066 6.24467 27.6612 7.45184 26.8373 8.56268V8.45995C26.8437 7.88847 26.554 7.43257 26.142 7.15647C25.7365 6.88036 25.2279 6.75194 24.7129 6.75194C24.198 6.75194 23.6765 6.88036 23.2581 7.15647C22.8461 7.41973 22.5436 7.86921 22.5436 8.43426C22.5436 8.44068 22.5436 23.1514 22.5436 23.5623C22.5564 24.1338 22.8461 24.5961 23.2517 24.8658ZM51.3571 7.15647C50.9515 6.88036 50.4365 6.75194 49.928 6.75194C49.413 6.75194 48.8916 6.88036 48.4796 7.15647C48.0676 7.41973 47.7586 7.86921 47.765 8.43426V23.5623C47.765 24.1338 48.0547 24.5961 48.4603 24.8658C48.8658 25.1419 49.3808 25.2639 49.8894 25.2704C50.4108 25.2704 50.9322 25.1419 51.3442 24.8658C51.7562 24.5961 52.0652 24.1467 52.0587 23.588C52.0587 23.588 52.0587 8.8709 52.0587 8.45353C52.0587 7.88847 51.7626 7.42615 51.3571 7.15647ZM95.9099 14.9581C95.897 14.8553 95.8262 14.7719 95.7232 14.7398C95.6202 14.7077 95.5172 14.7398 95.4464 14.8104C95.4464 14.8104 95.3884 14.8746 95.2597 15.003C95.1309 15.1315 94.9443 15.3241 94.6868 15.5681C94.1783 16.0561 93.4186 16.756 92.4015 17.5907C91.6805 18.1879 90.8373 18.8557 89.8652 19.5684C89.8459 19.2859 89.8073 19.0162 89.7429 18.7658C89.4854 17.7192 88.8803 16.9229 88.1272 16.2873C87.0006 15.3305 85.5651 14.7077 84.3806 14.0206C83.7948 13.6803 83.2605 13.3271 82.8743 12.929C82.488 12.5373 82.237 12.1007 82.1597 11.5678C82.1469 11.4714 82.1404 11.3687 82.1404 11.266C82.1404 10.7137 82.3528 10.1358 82.797 9.70564C83.0352 9.47448 83.7562 9.00574 84.7604 9.00574C86.0157 9.00574 87.0714 9.55795 87.6701 9.55795C88.3396 9.56437 88.919 9.17269 89.0992 8.51774C89.1314 8.38931 89.1507 8.26089 89.1507 8.12605C89.1507 7.3812 88.5391 6.69415 87.6958 6.48225C87.6958 6.48225 86.9362 6.22541 85.3398 6.22541C83.1125 6.22541 81.2907 6.77762 80.0032 7.7472C78.7222 8.71037 77.9948 10.1037 78.0012 11.7026C78.0012 12.1456 78.0527 12.6015 78.1621 13.0639C78.6385 15.0416 80.5761 16.1075 82.3593 17.0706C83.2541 17.5458 84.1296 17.9953 84.7862 18.4833C85.4492 18.9713 85.8741 19.485 85.9578 20.0757C85.9771 20.172 85.9835 20.2812 85.9835 20.3711C85.9835 20.9169 85.7646 21.4177 85.3012 21.8158C84.8312 22.2011 84.1038 22.4772 83.061 22.4964H82.9644C81.8314 22.4964 80.8594 22.169 80.2221 21.8864C79.9453 21.7516 79.6556 21.6874 79.3917 21.6874C78.7093 21.6745 78.1428 22.1433 78.0527 22.8175C78.0463 22.8817 78.0398 22.9459 78.0398 23.0166C78.0398 23.4981 78.2973 23.9027 78.6514 24.2045C79.1792 24.6732 79.9324 24.9814 80.647 25.1933C72.7741 29.1551 61.8306 32.7317 47.9968 32.7317C34.0278 32.7317 23.0135 29.0845 15.1213 25.0777C16.7499 24.7695 18.0632 24.1017 19.0417 23.2156C20.4257 21.9507 21.1338 20.2362 21.1338 18.464C21.1338 18.0531 21.0952 17.6421 21.0244 17.2312C20.7797 15.8635 20.0394 14.7783 19.0867 13.8922C17.6576 12.563 15.7393 11.6255 14.1493 10.6881C13.351 10.2257 12.6365 9.75701 12.1022 9.25616C11.5679 8.76174 11.2267 8.23521 11.1237 7.64447C11.098 7.48394 11.0787 7.31699 11.0787 7.15004C11.0851 6.39236 11.3684 5.5833 12.0121 4.96045C12.6494 4.34403 13.6471 3.89455 15.1149 3.89455C15.9066 3.89455 16.8401 4.0294 17.9151 4.34403C18.2305 4.43392 18.5138 4.47887 18.7777 4.48529C19.518 4.49813 20.0652 4.08719 20.2905 3.49644C20.3742 3.28455 20.4128 3.07265 20.4128 2.8736C20.4128 2.36633 20.1489 1.93612 19.7755 1.64075C19.4022 1.33896 18.9193 1.13991 18.4172 1.03075C17.413 0.831694 16.3187 0.69043 15.1793 0.69043H15.1471C12.0893 0.69043 9.86844 1.55086 8.40716 2.84149C6.95232 4.13213 6.2764 5.83372 6.2764 7.45826C6.2764 7.81784 6.30861 8.17742 6.37298 8.52416C6.82359 10.9 8.77408 12.4153 10.7697 13.6482C12.7717 14.8682 14.8509 15.8635 15.6492 16.9872C16.0805 17.5843 16.2865 18.3099 16.2865 19.0034C16.2865 19.7097 16.0676 20.3903 15.6749 20.8719C14.9218 21.7837 13.4991 22.4001 11.9735 22.4001C11.0079 22.4001 10.0036 22.1625 9.09596 21.6168C9.04446 21.5847 8.90283 21.5076 8.88996 21.5012C6.70127 20.0693 4.93743 18.7208 3.59847 17.6164C2.58137 16.7753 1.82177 16.0818 1.31322 15.5938C1.06217 15.3498 0.869037 15.1571 0.74029 15.0287C0.61798 14.9003 0.553621 14.8361 0.553621 14.8361C0.48281 14.7655 0.373361 14.7333 0.276801 14.7655C0.180241 14.7911 0.109444 14.8746 0.0901321 14.9838C0.0386334 15.3626 0 15.8506 0 16.4093V16.5377V16.5762C0.0257493 18.0274 0.514985 19.1446 1.8282 20.3646C2.14363 20.6921 19.7498 38.6904 48.0032 38.6904C76.2567 38.684 93.8628 20.6857 94.1782 20.3646C95.4914 19.1446 95.9743 18.0274 96 16.5762V16.5377V16.4093C96 15.8185 95.9614 15.3369 95.9099 14.9581Z"
    fill="#FF7020" />
</svg>