<svg width="360" height="360" viewBox="0 0 360 360" fill="none" xmlns="http://www.w3.org/2000/svg">
<rect opacity="0.6" x="0.5" y="0.5" width="359" height="359" rx="7.5" stroke="#999999"/>
<path d="M34.3281 296.293C58.989 296.293 58.989 305.828 83.6498 305.828C108.326 305.828 108.326 296.293 132.987 296.293C157.663 296.293 157.663 305.828 182.34 305.828C207.016 305.828 207.016 296.293 231.677 296.293C256.369 296.293 256.369 305.828 281.045 305.828C305.722 305.828 305.737 296.293 330.414 296.293" stroke="#333333" stroke-width="2" stroke-miterlimit="10" stroke-linecap="round" stroke-linejoin="round"/>
<path d="M34.3281 305.828C58.989 305.828 58.989 315.363 83.6498 315.363C108.326 315.363 108.326 305.828 132.987 305.828C157.663 305.828 157.663 315.363 182.34 315.363C207.016 315.363 207.016 305.828 231.677 305.828C256.369 305.828 256.369 315.363 281.045 315.363C305.722 315.363 305.737 305.828 330.414 305.828" stroke="#333333" stroke-width="2" stroke-miterlimit="10" stroke-linecap="round" stroke-linejoin="round"/>
<path d="M34.3281 315.378C58.989 315.378 58.989 324.912 83.6498 324.912C108.326 324.912 108.326 315.378 132.987 315.378C157.663 315.378 157.663 324.912 182.34 324.912C207.016 324.912 207.016 315.378 231.677 315.378C256.369 315.378 256.369 324.912 281.045 324.912C305.722 324.912 305.737 315.378 330.414 315.378" stroke="#333333" stroke-width="2" stroke-miterlimit="10" stroke-linecap="round" stroke-linejoin="round"/>
<path d="M34.3281 324.913C58.989 324.913 58.989 334.448 83.6498 334.448C108.326 334.448 108.326 324.913 132.987 324.913C157.663 324.913 157.663 334.448 182.34 334.448C207.016 334.448 207.016 324.913 231.677 324.913C256.369 324.913 256.369 334.448 281.045 334.448C305.722 334.448 305.737 324.913 330.414 324.913" stroke="#333333" stroke-width="2" stroke-miterlimit="10" stroke-linecap="round" stroke-linejoin="round"/>
<path d="M184.793 37.07C184.616 37.07 184.471 37.0187 184.359 36.916C184.257 36.804 184.205 36.6593 184.205 36.482V28.11H181.195C181.027 28.11 180.897 28.068 180.803 27.984C180.71 27.9 180.663 27.7787 180.663 27.62C180.663 27.4613 180.71 27.34 180.803 27.256C180.897 27.172 181.027 27.13 181.195 27.13H188.377C188.545 27.13 188.676 27.172 188.769 27.256C188.863 27.34 188.909 27.4613 188.909 27.62C188.909 27.7787 188.863 27.9 188.769 27.984C188.676 28.068 188.545 28.11 188.377 28.11H185.367V36.482C185.367 36.6593 185.316 36.804 185.213 36.916C185.111 37.0187 184.971 37.07 184.793 37.07ZM194.262 30.014C195.064 30.014 195.671 30.2427 196.082 30.7C196.492 31.148 196.698 31.82 196.698 32.716V36.51C196.698 36.6873 196.646 36.8273 196.544 36.93C196.441 37.0233 196.306 37.07 196.138 37.07C195.96 37.07 195.82 37.0233 195.718 36.93C195.615 36.8273 195.564 36.6873 195.564 36.51V32.744C195.564 32.1373 195.438 31.6893 195.186 31.4C194.943 31.1107 194.551 30.966 194.01 30.966C193.384 30.966 192.885 31.1573 192.512 31.54C192.138 31.9227 191.952 32.4407 191.952 33.094V36.51C191.952 36.6873 191.9 36.8273 191.798 36.93C191.704 37.0233 191.569 37.07 191.392 37.07C191.214 37.07 191.074 37.0233 190.972 36.93C190.869 36.8273 190.818 36.6873 190.818 36.51V27.606C190.818 27.4473 190.869 27.3167 190.972 27.214C191.084 27.1113 191.224 27.06 191.392 27.06C191.569 27.06 191.704 27.1113 191.798 27.214C191.9 27.3073 191.952 27.438 191.952 27.606V31.274C192.176 30.8633 192.488 30.5507 192.89 30.336C193.291 30.1213 193.748 30.014 194.262 30.014ZM203.955 30.042C204.132 30.042 204.267 30.0933 204.361 30.196C204.463 30.2987 204.515 30.434 204.515 30.602V36.524C204.515 36.6827 204.463 36.8133 204.361 36.916C204.267 37.0187 204.132 37.07 203.955 37.07C203.787 37.07 203.651 37.0233 203.549 36.93C203.455 36.8273 203.409 36.6967 203.409 36.538V35.838C203.194 36.2487 202.891 36.5613 202.499 36.776C202.116 36.9907 201.682 37.098 201.197 37.098C200.385 37.098 199.773 36.874 199.363 36.426C198.952 35.9687 198.747 35.2967 198.747 34.41V30.602C198.747 30.434 198.798 30.2987 198.901 30.196C199.003 30.0933 199.143 30.042 199.321 30.042C199.498 30.042 199.633 30.0933 199.727 30.196C199.829 30.2987 199.881 30.434 199.881 30.602V34.382C199.881 34.9887 200.002 35.4367 200.245 35.726C200.487 36.006 200.87 36.146 201.393 36.146C201.99 36.146 202.471 35.9547 202.835 35.572C203.199 35.18 203.381 34.6667 203.381 34.032V30.602C203.381 30.434 203.432 30.2987 203.535 30.196C203.637 30.0933 203.777 30.042 203.955 30.042ZM214.21 30.014C215.722 30.014 216.478 30.9147 216.478 32.716V36.51C216.478 36.6873 216.427 36.8273 216.324 36.93C216.222 37.0233 216.086 37.07 215.918 37.07C215.75 37.07 215.61 37.0233 215.498 36.93C215.396 36.8273 215.344 36.6873 215.344 36.51V32.744C215.344 32.1187 215.232 31.666 215.008 31.386C214.784 31.106 214.434 30.966 213.958 30.966C213.389 30.966 212.941 31.1573 212.614 31.54C212.288 31.9227 212.124 32.4407 212.124 33.094V36.51C212.124 36.6873 212.068 36.8273 211.956 36.93C211.854 37.0233 211.718 37.07 211.55 37.07C211.382 37.07 211.247 37.0233 211.144 36.93C211.042 36.8273 210.99 36.6873 210.99 36.51V32.744C210.99 32.1187 210.878 31.666 210.654 31.386C210.43 31.106 210.076 30.966 209.59 30.966C209.03 30.966 208.582 31.1573 208.246 31.54C207.92 31.9227 207.756 32.4407 207.756 33.094V36.51C207.756 36.6873 207.705 36.8273 207.602 36.93C207.5 37.0233 207.364 37.07 207.196 37.07C207.028 37.07 206.888 37.0233 206.776 36.93C206.674 36.8273 206.622 36.6873 206.622 36.51V30.602C206.622 30.434 206.674 30.2987 206.776 30.196C206.888 30.0933 207.028 30.042 207.196 30.042C207.355 30.042 207.486 30.0933 207.588 30.196C207.691 30.2893 207.742 30.42 207.742 30.588V31.26C207.948 30.8587 208.232 30.5507 208.596 30.336C208.96 30.1213 209.38 30.014 209.856 30.014C210.92 30.014 211.616 30.462 211.942 31.358C212.138 30.9473 212.437 30.6207 212.838 30.378C213.24 30.1353 213.697 30.014 214.21 30.014ZM221.974 30.014C222.571 30.014 223.099 30.1587 223.556 30.448C224.013 30.7373 224.368 31.148 224.62 31.68C224.872 32.212 224.998 32.828 224.998 33.528C224.998 34.2373 224.872 34.8627 224.62 35.404C224.368 35.936 224.013 36.3513 223.556 36.65C223.099 36.9487 222.571 37.098 221.974 37.098C221.442 37.098 220.975 36.9813 220.574 36.748C220.182 36.5147 219.883 36.1833 219.678 35.754V36.51C219.678 36.678 219.627 36.8133 219.524 36.916C219.431 37.0187 219.295 37.07 219.118 37.07C218.941 37.07 218.801 37.0187 218.698 36.916C218.595 36.8133 218.544 36.678 218.544 36.51V27.606C218.544 27.4473 218.595 27.3167 218.698 27.214C218.801 27.1113 218.941 27.06 219.118 27.06C219.295 27.06 219.431 27.1113 219.524 27.214C219.627 27.3073 219.678 27.438 219.678 27.606V31.358C219.883 30.9287 220.182 30.5973 220.574 30.364C220.975 30.1307 221.442 30.014 221.974 30.014ZM221.75 36.16C222.413 36.16 222.926 35.9313 223.29 35.474C223.654 35.0073 223.836 34.3587 223.836 33.528C223.836 32.716 223.654 32.086 223.29 31.638C222.926 31.19 222.413 30.966 221.75 30.966C221.087 30.966 220.574 31.19 220.21 31.638C219.855 32.086 219.678 32.7253 219.678 33.556C219.678 34.3867 219.855 35.0307 220.21 35.488C220.574 35.936 221.087 36.16 221.75 36.16ZM230.123 30.014C231.756 30.014 232.573 30.9147 232.573 32.716V36.51C232.573 36.6873 232.521 36.8273 232.419 36.93C232.325 37.0233 232.19 37.07 232.013 37.07C231.835 37.07 231.695 37.0233 231.593 36.93C231.49 36.8273 231.439 36.6873 231.439 36.51V32.786C231.439 32.1513 231.313 31.6893 231.061 31.4C230.818 31.1107 230.426 30.966 229.885 30.966C229.259 30.966 228.76 31.1573 228.387 31.54C228.013 31.9227 227.827 32.4407 227.827 33.094V36.51C227.827 36.6873 227.775 36.8273 227.673 36.93C227.579 37.0233 227.444 37.07 227.267 37.07C227.089 37.07 226.949 37.0233 226.847 36.93C226.744 36.8273 226.693 36.6873 226.693 36.51V30.602C226.693 30.434 226.744 30.2987 226.847 30.196C226.949 30.0933 227.089 30.042 227.267 30.042C227.435 30.042 227.565 30.0933 227.659 30.196C227.761 30.2987 227.813 30.4293 227.813 30.588V31.302C228.037 30.882 228.349 30.5647 228.751 30.35C229.152 30.126 229.609 30.014 230.123 30.014ZM237.436 30.014C239.144 30.014 239.998 30.91 239.998 32.702V36.51C239.998 36.678 239.946 36.8133 239.844 36.916C239.75 37.0187 239.62 37.07 239.452 37.07C239.284 37.07 239.148 37.0187 239.046 36.916C238.943 36.8133 238.892 36.678 238.892 36.51V35.838C238.714 36.2393 238.444 36.552 238.08 36.776C237.716 36.9907 237.296 37.098 236.82 37.098C236.381 37.098 235.975 37.0093 235.602 36.832C235.238 36.6547 234.948 36.4073 234.734 36.09C234.519 35.7727 234.412 35.4227 234.412 35.04C234.412 34.5267 234.542 34.13 234.804 33.85C235.065 33.5607 235.494 33.3553 236.092 33.234C236.689 33.1033 237.52 33.038 238.584 33.038H238.892V32.576C238.892 32.016 238.775 31.6053 238.542 31.344C238.318 31.0827 237.949 30.952 237.436 30.952C236.801 30.952 236.157 31.1247 235.504 31.47C235.252 31.6287 235.074 31.708 234.972 31.708C234.86 31.708 234.766 31.666 234.692 31.582C234.617 31.498 234.58 31.3907 234.58 31.26C234.58 31.1293 234.617 31.0173 234.692 30.924C234.776 30.8213 234.906 30.7187 235.084 30.616C235.41 30.4293 235.779 30.2847 236.19 30.182C236.61 30.07 237.025 30.014 237.436 30.014ZM236.974 36.202C237.534 36.202 237.991 36.0153 238.346 35.642C238.71 35.2593 238.892 34.7693 238.892 34.172V33.766H238.64C237.818 33.766 237.193 33.8033 236.764 33.878C236.334 33.9433 236.026 34.06 235.84 34.228C235.662 34.3867 235.574 34.6247 235.574 34.942C235.574 35.306 235.704 35.6093 235.966 35.852C236.236 36.0853 236.572 36.202 236.974 36.202ZM242.647 37.07C242.479 37.07 242.339 37.0233 242.227 36.93C242.125 36.8273 242.073 36.6873 242.073 36.51V30.602C242.073 30.4247 242.125 30.2893 242.227 30.196C242.339 30.0933 242.479 30.042 242.647 30.042C242.815 30.042 242.951 30.0933 243.053 30.196C243.156 30.2893 243.207 30.4247 243.207 30.602V36.51C243.207 36.6967 243.156 36.8367 243.053 36.93C242.951 37.0233 242.815 37.07 242.647 37.07ZM242.647 28.572C242.423 28.572 242.241 28.5067 242.101 28.376C241.961 28.2453 241.891 28.0727 241.891 27.858C241.891 27.6527 241.961 27.4847 242.101 27.354C242.241 27.2233 242.423 27.158 242.647 27.158C242.871 27.158 243.053 27.2233 243.193 27.354C243.333 27.4847 243.403 27.6527 243.403 27.858C243.403 28.0727 243.333 28.2453 243.193 28.376C243.053 28.5067 242.871 28.572 242.647 28.572ZM245.901 37.07C245.733 37.07 245.593 37.0233 245.481 36.93C245.379 36.8273 245.327 36.6873 245.327 36.51V27.62C245.327 27.4427 245.379 27.3073 245.481 27.214C245.593 27.1113 245.733 27.06 245.901 27.06C246.06 27.06 246.191 27.1113 246.293 27.214C246.405 27.3073 246.461 27.4427 246.461 27.62V36.51C246.461 36.6873 246.405 36.8273 246.293 36.93C246.191 37.0233 246.06 37.07 245.901 37.07ZM257.665 27.06C257.842 27.06 257.982 27.1113 258.085 27.214C258.187 27.3167 258.239 27.4473 258.239 27.606V36.51C258.239 36.678 258.187 36.8133 258.085 36.916C257.982 37.0187 257.842 37.07 257.665 37.07C257.487 37.07 257.347 37.0187 257.245 36.916C257.151 36.8133 257.105 36.678 257.105 36.51V35.754C256.899 36.1833 256.596 36.5147 256.195 36.748C255.803 36.9813 255.341 37.098 254.809 37.098C254.211 37.098 253.684 36.9487 253.227 36.65C252.769 36.3513 252.415 35.936 252.163 35.404C251.911 34.8627 251.785 34.2373 251.785 33.528C251.785 32.828 251.911 32.212 252.163 31.68C252.415 31.148 252.769 30.7373 253.227 30.448C253.684 30.1587 254.211 30.014 254.809 30.014C255.341 30.014 255.803 30.1307 256.195 30.364C256.596 30.5973 256.899 30.9287 257.105 31.358V27.606C257.105 27.438 257.151 27.3073 257.245 27.214C257.347 27.1113 257.487 27.06 257.665 27.06ZM255.033 36.16C255.695 36.16 256.204 35.936 256.559 35.488C256.923 35.0307 257.105 34.3867 257.105 33.556C257.105 32.7253 256.923 32.086 256.559 31.638C256.204 31.19 255.695 30.966 255.033 30.966C254.37 30.966 253.852 31.19 253.479 31.638C253.115 32.086 252.933 32.716 252.933 33.528C252.933 34.3587 253.115 35.0073 253.479 35.474C253.852 35.9313 254.37 36.16 255.033 36.16ZM265.617 35.418C265.72 35.418 265.808 35.46 265.883 35.544C265.958 35.628 265.995 35.7353 265.995 35.866C265.995 36.0993 265.832 36.314 265.505 36.51C265.169 36.706 264.814 36.8553 264.441 36.958C264.068 37.0513 263.704 37.098 263.349 37.098C262.294 37.098 261.459 36.7853 260.843 36.16C260.236 35.5347 259.933 34.6713 259.933 33.57C259.933 32.87 260.068 32.254 260.339 31.722C260.61 31.1807 260.988 30.7607 261.473 30.462C261.968 30.1633 262.528 30.014 263.153 30.014C264.04 30.014 264.744 30.3033 265.267 30.882C265.79 31.4607 266.051 32.2447 266.051 33.234C266.051 33.4207 266.014 33.556 265.939 33.64C265.864 33.724 265.743 33.766 265.575 33.766H261.067C261.151 35.3713 261.912 36.174 263.349 36.174C263.713 36.174 264.026 36.1273 264.287 36.034C264.548 35.9313 264.828 35.796 265.127 35.628C265.37 35.488 265.533 35.418 265.617 35.418ZM263.167 30.896C262.57 30.896 262.089 31.0827 261.725 31.456C261.37 31.8293 261.16 32.3567 261.095 33.038H265.057C265.038 32.3473 264.866 31.82 264.539 31.456C264.212 31.0827 263.755 30.896 263.167 30.896ZM278.919 30.014C280.431 30.014 281.187 30.9147 281.187 32.716V36.51C281.187 36.6873 281.136 36.8273 281.033 36.93C280.931 37.0233 280.795 37.07 280.627 37.07C280.459 37.07 280.319 37.0233 280.207 36.93C280.105 36.8273 280.053 36.6873 280.053 36.51V32.744C280.053 32.1187 279.941 31.666 279.717 31.386C279.493 31.106 279.143 30.966 278.667 30.966C278.098 30.966 277.65 31.1573 277.323 31.54C276.997 31.9227 276.833 32.4407 276.833 33.094V36.51C276.833 36.6873 276.777 36.8273 276.665 36.93C276.563 37.0233 276.427 37.07 276.259 37.07C276.091 37.07 275.956 37.0233 275.853 36.93C275.751 36.8273 275.699 36.6873 275.699 36.51V32.744C275.699 32.1187 275.587 31.666 275.363 31.386C275.139 31.106 274.785 30.966 274.299 30.966C273.739 30.966 273.291 31.1573 272.955 31.54C272.629 31.9227 272.465 32.4407 272.465 33.094V36.51C272.465 36.6873 272.414 36.8273 272.311 36.93C272.209 37.0233 272.073 37.07 271.905 37.07C271.737 37.07 271.597 37.0233 271.485 36.93C271.383 36.8273 271.331 36.6873 271.331 36.51V30.602C271.331 30.434 271.383 30.2987 271.485 30.196C271.597 30.0933 271.737 30.042 271.905 30.042C272.064 30.042 272.195 30.0933 272.297 30.196C272.4 30.2893 272.451 30.42 272.451 30.588V31.26C272.657 30.8587 272.941 30.5507 273.305 30.336C273.669 30.1213 274.089 30.014 274.565 30.014C275.629 30.014 276.325 30.462 276.651 31.358C276.847 30.9473 277.146 30.6207 277.547 30.378C277.949 30.1353 278.406 30.014 278.919 30.014ZM286.039 30.014C287.747 30.014 288.601 30.91 288.601 32.702V36.51C288.601 36.678 288.55 36.8133 288.447 36.916C288.354 37.0187 288.223 37.07 288.055 37.07C287.887 37.07 287.752 37.0187 287.649 36.916C287.546 36.8133 287.495 36.678 287.495 36.51V35.838C287.318 36.2393 287.047 36.552 286.683 36.776C286.319 36.9907 285.899 37.098 285.423 37.098C284.984 37.098 284.578 37.0093 284.205 36.832C283.841 36.6547 283.552 36.4073 283.337 36.09C283.122 35.7727 283.015 35.4227 283.015 35.04C283.015 34.5267 283.146 34.13 283.407 33.85C283.668 33.5607 284.098 33.3553 284.695 33.234C285.292 33.1033 286.123 33.038 287.187 33.038H287.495V32.576C287.495 32.016 287.378 31.6053 287.145 31.344C286.921 31.0827 286.552 30.952 286.039 30.952C285.404 30.952 284.76 31.1247 284.107 31.47C283.855 31.6287 283.678 31.708 283.575 31.708C283.463 31.708 283.37 31.666 283.295 31.582C283.22 31.498 283.183 31.3907 283.183 31.26C283.183 31.1293 283.22 31.0173 283.295 30.924C283.379 30.8213 283.51 30.7187 283.687 30.616C284.014 30.4293 284.382 30.2847 284.793 30.182C285.213 30.07 285.628 30.014 286.039 30.014ZM285.577 36.202C286.137 36.202 286.594 36.0153 286.949 35.642C287.313 35.2593 287.495 34.7693 287.495 34.172V33.766H287.243C286.422 33.766 285.796 33.8033 285.367 33.878C284.938 33.9433 284.63 34.06 284.443 34.228C284.266 34.3867 284.177 34.6247 284.177 34.942C284.177 35.306 284.308 35.6093 284.569 35.852C284.84 36.0853 285.176 36.202 285.577 36.202ZM294.051 30.042C294.443 30.014 294.639 30.1727 294.639 30.518C294.639 30.6673 294.597 30.7887 294.513 30.882C294.429 30.966 294.284 31.0173 294.079 31.036L293.659 31.078C293.034 31.134 292.567 31.358 292.259 31.75C291.96 32.1327 291.811 32.5853 291.811 33.108V36.51C291.811 36.6967 291.76 36.8367 291.657 36.93C291.554 37.0233 291.419 37.07 291.251 37.07C291.083 37.07 290.943 37.0233 290.831 36.93C290.728 36.8273 290.677 36.6873 290.677 36.51V30.602C290.677 30.4247 290.733 30.2893 290.845 30.196C290.957 30.0933 291.092 30.042 291.251 30.042C291.4 30.042 291.526 30.0933 291.629 30.196C291.732 30.2893 291.783 30.42 291.783 30.588V31.372C291.979 30.9613 292.254 30.6487 292.609 30.434C292.973 30.2193 293.388 30.0933 293.855 30.056L294.051 30.042ZM298.29 37.098C297.655 37.098 297.09 36.9533 296.596 36.664C296.11 36.3747 295.732 35.964 295.462 35.432C295.2 34.9 295.07 34.284 295.07 33.584C295.07 32.884 295.205 32.2633 295.476 31.722C295.756 31.1807 296.143 30.7607 296.638 30.462C297.132 30.1633 297.702 30.014 298.346 30.014C298.7 30.014 299.05 30.0653 299.396 30.168C299.75 30.2613 300.058 30.4013 300.32 30.588C300.488 30.7 300.604 30.812 300.67 30.924C300.744 31.0267 300.782 31.1433 300.782 31.274C300.782 31.4047 300.744 31.512 300.67 31.596C300.604 31.68 300.516 31.722 300.404 31.722C300.338 31.722 300.268 31.7033 300.194 31.666C300.119 31.6287 300.054 31.5913 299.998 31.554C299.951 31.5167 299.918 31.4933 299.9 31.484C299.657 31.3253 299.424 31.1993 299.2 31.106C298.985 31.0127 298.719 30.966 298.402 30.966C297.72 30.966 297.188 31.1993 296.806 31.666C296.432 32.1233 296.246 32.7627 296.246 33.584C296.246 34.4053 296.432 35.04 296.806 35.488C297.188 35.936 297.72 36.16 298.402 36.16C298.719 36.16 298.99 36.1133 299.214 36.02C299.447 35.9267 299.68 35.8007 299.914 35.642C300.016 35.5767 300.114 35.5207 300.208 35.474C300.301 35.4273 300.38 35.404 300.446 35.404C300.548 35.404 300.632 35.446 300.698 35.53C300.772 35.614 300.81 35.7213 300.81 35.852C300.81 35.9733 300.777 36.0853 300.712 36.188C300.646 36.2813 300.525 36.3887 300.348 36.51C300.086 36.6873 299.769 36.832 299.396 36.944C299.032 37.0467 298.663 37.098 298.29 37.098ZM304.961 30.014C306.669 30.014 307.523 30.91 307.523 32.702V36.51C307.523 36.678 307.472 36.8133 307.369 36.916C307.276 37.0187 307.145 37.07 306.977 37.07C306.809 37.07 306.674 37.0187 306.571 36.916C306.468 36.8133 306.417 36.678 306.417 36.51V35.838C306.24 36.2393 305.969 36.552 305.605 36.776C305.241 36.9907 304.821 37.098 304.345 37.098C303.906 37.098 303.5 37.0093 303.127 36.832C302.763 36.6547 302.474 36.4073 302.259 36.09C302.044 35.7727 301.937 35.4227 301.937 35.04C301.937 34.5267 302.068 34.13 302.329 33.85C302.59 33.5607 303.02 33.3553 303.617 33.234C304.214 33.1033 305.045 33.038 306.109 33.038H306.417V32.576C306.417 32.016 306.3 31.6053 306.067 31.344C305.843 31.0827 305.474 30.952 304.961 30.952C304.326 30.952 303.682 31.1247 303.029 31.47C302.777 31.6287 302.6 31.708 302.497 31.708C302.385 31.708 302.292 31.666 302.217 31.582C302.142 31.498 302.105 31.3907 302.105 31.26C302.105 31.1293 302.142 31.0173 302.217 30.924C302.301 30.8213 302.432 30.7187 302.609 30.616C302.936 30.4293 303.304 30.2847 303.715 30.182C304.135 30.07 304.55 30.014 304.961 30.014ZM304.499 36.202C305.059 36.202 305.516 36.0153 305.871 35.642C306.235 35.2593 306.417 34.7693 306.417 34.172V33.766H306.165C305.344 33.766 304.718 33.8033 304.289 33.878C303.86 33.9433 303.552 34.06 303.365 34.228C303.188 34.3867 303.099 34.6247 303.099 34.942C303.099 35.306 303.23 35.6093 303.491 35.852C303.762 36.0853 304.098 36.202 304.499 36.202ZM314.569 35.404C314.671 35.404 314.755 35.446 314.821 35.53C314.895 35.614 314.933 35.7213 314.933 35.852C314.933 35.9733 314.9 36.0853 314.835 36.188C314.769 36.2813 314.648 36.3887 314.471 36.51C314.237 36.6687 313.962 36.7993 313.645 36.902C313.337 37.0047 313.015 37.0653 312.679 37.084L312.623 37.616C312.735 37.588 312.856 37.574 312.987 37.574C313.276 37.574 313.519 37.6533 313.715 37.812C313.92 37.98 314.023 38.2227 314.023 38.54C314.023 38.8853 313.878 39.1653 313.589 39.38C313.299 39.5947 312.893 39.702 312.371 39.702C312.035 39.702 311.717 39.646 311.419 39.534C311.344 39.506 311.283 39.4593 311.237 39.394C311.199 39.338 311.181 39.2773 311.181 39.212C311.181 39.128 311.209 39.0533 311.265 38.988C311.321 38.932 311.395 38.904 311.489 38.904C311.535 38.904 311.573 38.9087 311.601 38.918C311.853 38.9927 312.114 39.03 312.385 39.03C312.646 39.03 312.842 38.988 312.973 38.904C313.113 38.82 313.183 38.6987 313.183 38.54C313.183 38.4187 313.145 38.3253 313.071 38.26C312.996 38.1947 312.889 38.162 312.749 38.162C312.646 38.162 312.515 38.1807 312.357 38.218C312.198 38.2647 312.1 38.288 312.063 38.288C311.988 38.288 311.918 38.26 311.853 38.204C311.797 38.1573 311.773 38.0967 311.783 38.022L311.895 37.07C311.073 36.9487 310.415 36.58 309.921 35.964C309.435 35.3387 309.193 34.5453 309.193 33.584C309.193 32.884 309.328 32.2633 309.599 31.722C309.879 31.1807 310.266 30.7607 310.761 30.462C311.255 30.1633 311.825 30.014 312.469 30.014C312.823 30.014 313.173 30.0653 313.519 30.168C313.873 30.2613 314.181 30.4013 314.443 30.588C314.611 30.7 314.727 30.812 314.793 30.924C314.867 31.0267 314.905 31.1433 314.905 31.274C314.905 31.4047 314.867 31.512 314.793 31.596C314.727 31.68 314.639 31.722 314.527 31.722C314.461 31.722 314.391 31.7033 314.317 31.666C314.242 31.6287 314.177 31.5913 314.121 31.554C314.074 31.5167 314.041 31.4933 314.023 31.484C313.78 31.3253 313.547 31.1993 313.323 31.106C313.108 31.0127 312.842 30.966 312.525 30.966C311.843 30.966 311.311 31.1993 310.929 31.666C310.555 32.1233 310.369 32.7627 310.369 33.584C310.369 34.4053 310.555 35.04 310.929 35.488C311.311 35.936 311.843 36.16 312.525 36.16C312.842 36.16 313.113 36.1133 313.337 36.02C313.57 35.9267 313.803 35.8007 314.037 35.642C314.139 35.5767 314.237 35.5207 314.331 35.474C314.424 35.4273 314.503 35.404 314.569 35.404ZM319.084 30.014C320.792 30.014 321.646 30.91 321.646 32.702V36.51C321.646 36.678 321.595 36.8133 321.492 36.916C321.399 37.0187 321.268 37.07 321.1 37.07C320.932 37.07 320.797 37.0187 320.694 36.916C320.591 36.8133 320.54 36.678 320.54 36.51V35.838C320.363 36.2393 320.092 36.552 319.728 36.776C319.364 36.9907 318.944 37.098 318.468 37.098C318.029 37.098 317.623 37.0093 317.25 36.832C316.886 36.6547 316.597 36.4073 316.382 36.09C316.167 35.7727 316.06 35.4227 316.06 35.04C316.06 34.5267 316.191 34.13 316.452 33.85C316.713 33.5607 317.143 33.3553 317.74 33.234C318.337 33.1033 319.168 33.038 320.232 33.038H320.54V32.576C320.54 32.016 320.423 31.6053 320.19 31.344C319.966 31.0827 319.597 30.952 319.084 30.952C318.449 30.952 317.805 31.1247 317.152 31.47C316.9 31.6287 316.723 31.708 316.62 31.708C316.508 31.708 316.415 31.666 316.34 31.582C316.265 31.498 316.228 31.3907 316.228 31.26C316.228 31.1293 316.265 31.0173 316.34 30.924C316.424 30.8213 316.555 30.7187 316.732 30.616C317.059 30.4293 317.427 30.2847 317.838 30.182C318.258 30.07 318.673 30.014 319.084 30.014ZM318.622 36.202C319.182 36.202 319.639 36.0153 319.994 35.642C320.358 35.2593 320.54 34.7693 320.54 34.172V33.766H320.288C319.467 33.766 318.841 33.8033 318.412 33.878C317.983 33.9433 317.675 34.06 317.488 34.228C317.311 34.3867 317.222 34.6247 317.222 34.942C317.222 35.306 317.353 35.6093 317.614 35.852C317.885 36.0853 318.221 36.202 318.622 36.202ZM320.078 28.74C319.901 28.74 319.728 28.698 319.56 28.614C319.392 28.53 319.191 28.4087 318.958 28.25C318.753 28.1193 318.589 28.026 318.468 27.97C318.347 27.9047 318.235 27.872 318.132 27.872C317.973 27.872 317.847 27.914 317.754 27.998C317.67 28.082 317.586 28.1987 317.502 28.348C317.437 28.4507 317.381 28.53 317.334 28.586C317.287 28.6327 317.231 28.656 317.166 28.656C317.082 28.656 317.012 28.6233 316.956 28.558C316.9 28.4927 316.872 28.4087 316.872 28.306C316.872 28.138 316.923 27.9513 317.026 27.746C317.129 27.5407 317.273 27.3633 317.46 27.214C317.647 27.0647 317.857 26.99 318.09 26.99C318.267 26.99 318.44 27.032 318.608 27.116C318.776 27.2 318.977 27.3213 319.21 27.48C319.415 27.6107 319.579 27.7087 319.7 27.774C319.821 27.83 319.933 27.858 320.036 27.858C320.185 27.858 320.302 27.816 320.386 27.732C320.479 27.648 320.573 27.5313 320.666 27.382C320.731 27.27 320.787 27.1907 320.834 27.144C320.881 27.088 320.937 27.06 321.002 27.06C321.086 27.06 321.156 27.0973 321.212 27.172C321.268 27.2373 321.296 27.3213 321.296 27.424C321.296 27.5827 321.245 27.7693 321.142 27.984C321.039 28.1893 320.895 28.3667 320.708 28.516C320.521 28.6653 320.311 28.74 320.078 28.74ZM326.55 37.098C325.906 37.098 325.337 36.9533 324.842 36.664C324.357 36.3747 323.979 35.964 323.708 35.432C323.447 34.8907 323.316 34.2653 323.316 33.556C323.316 32.8467 323.447 32.226 323.708 31.694C323.979 31.1527 324.357 30.7373 324.842 30.448C325.337 30.1587 325.906 30.014 326.55 30.014C327.194 30.014 327.763 30.1587 328.258 30.448C328.753 30.7373 329.131 31.1527 329.392 31.694C329.663 32.226 329.798 32.8467 329.798 33.556C329.798 34.2653 329.663 34.8907 329.392 35.432C329.131 35.964 328.753 36.3747 328.258 36.664C327.763 36.9533 327.194 37.098 326.55 37.098ZM326.55 36.16C327.222 36.16 327.735 35.9407 328.09 35.502C328.454 35.054 328.636 34.4053 328.636 33.556C328.636 32.7253 328.454 32.086 328.09 31.638C327.726 31.1807 327.213 30.952 326.55 30.952C325.887 30.952 325.374 31.1807 325.01 31.638C324.646 32.086 324.464 32.7253 324.464 33.556C324.464 34.396 324.641 35.04 324.996 35.488C325.36 35.936 325.878 36.16 326.55 36.16Z" fill="#333333"/>
<path d="M86.8686 25.5527C55.2107 25.5527 29.5547 51.1749 29.5547 82.791C29.5547 114.407 55.2107 140.029 86.8686 140.029C118.527 140.029 144.182 114.407 144.182 82.791C144.182 51.1749 118.511 25.5527 86.8686 25.5527Z" fill="#FF7020"/>
<path d="M202.818 330.814L246.619 82.8271" stroke="#333333" stroke-width="2" stroke-miterlimit="10" stroke-linecap="round" stroke-linejoin="round"/>
<path d="M120.299 188.718C130.452 131.216 185.356 92.8138 242.934 102.954C300.513 113.094 338.965 167.926 328.812 225.428" fill="#333333"/>
<path d="M189.426 201.509C199.579 144.007 223.478 100.155 242.821 103.555C262.164 106.956 269.612 156.337 259.459 213.839" stroke="white" stroke-width="2" stroke-miterlimit="10" stroke-linecap="round" stroke-linejoin="round"/>
</svg>
